NotoSerifTamilSlanted-CondensedThin.ufo
<glyph name="exclam" format="2">
  <advance width="219.70000000000002"/>
  <unicode hex="0021"/>
  <outline>
    <contour>
      <point x="68.7" y="167.0" type="line"/>
      <point x="92.7" y="167.0" type="line"/>
      <point x="213.0" y="714.0" type="line"/>
      <point x="183.0" y="714.0" type="line"/>
    </contour>
    <contour>
      <point x="48.199999999999996" y="-6.9" type="curve" smooth="yes"/>
      <point x="64.8" y="-6.9"/>
      <point x="80.5" y="9.7"/>
      <point x="80.5" y="41.3" type="curve" smooth="yes"/>
      <point x="80.5" y="62.4"/>
      <point x="69.5" y="71.1"/>
      <point x="55.8" y="71.1" type="curve" smooth="yes"/>
      <point x="36.5" y="71.1"/>
      <point x="21.5" y="52.5"/>
      <point x="21.5" y="24.2" type="curve" smooth="yes"/>
      <point x="21.5" y="2.8"/>
      <point x="31.500000000000004" y="-6.9"/>
    </contour>
  </outline>
</glyph>
<glyph name="quotedbl" format="2">
  <advance width="249.2"/>
  <unicode hex="0022"/>
  <outline>
    <contour>
      <point x="94.1" y="499.0" type="line"/>
      <point x="114.1" y="499.0" type="line"/>
      <point x="165.1" y="714.0" type="line"/>
      <point x="135.1" y="714.0" type="line"/>
    </contour>
    <contour>
      <point x="215.0" y="499.0" type="line"/>
      <point x="235.0" y="499.0" type="line"/>
      <point x="286.0" y="714.0" type="line"/>
      <point x="256.0" y="714.0" type="line"/>
    </contour>
  </outline>
</glyph>
<glyph name="numbersign" format="2">
  <advance width="475.70000000000005"/>
  <unicode hex="0023"/>
  <outline>
    <contour>
      <point x="52.7" y="0.0" type="line"/>
      <point x="80.7" y="0.0" type="line"/>
      <point x="141.9" y="219.0" type="line"/>
      <point x="291.9" y="219.0" type="line"/>
      <point x="230.7" y="0.0" type="line"/>
      <point x="258.7" y="0.0" type="line"/>
      <point x="319.9" y="219.0" type="line"/>
      <point x="414.9" y="219.0" type="line"/>
      <point x="419.9" y="244.0" type="line"/>
      <point x="326.9" y="244.0" type="line"/>
      <point x="394.09999999999997" y="483.0" type="line"/>
      <point x="489.1" y="483.0" type="line"/>
      <point x="493.4" y="508.0" type="line"/>
      <point x="401.4" y="508.0" type="line"/>
      <point x="459.3" y="714.0" type="line"/>
      <point x="431.29999999999995" y="714.0" type="line"/>
      <point x="373.4" y="508.0" type="line"/>
      <point x="223.4" y="508.0" type="line"/>
      <point x="281.3" y="714.0" type="line"/>
      <point x="253.3" y="714.0" type="line"/>
      <point x="195.4" y="508.0" type="line"/>
      <point x="97.4" y="508.0" type="line"/>
      <point x="93.1" y="483.0" type="line"/>
      <point x="188.10000000000002" y="483.0" type="line"/>
      <point x="120.89999999999999" y="244.0" type="line"/>
      <point x="23.9" y="244.0" type="line"/>
      <point x="18.9" y="219.0" type="line"/>
      <point x="113.9" y="219.0" type="line"/>
    </contour>
    <contour>
      <point x="148.9" y="244.0" type="line"/>
      <point x="216.10000000000002" y="483.0" type="line"/>
      <point x="366.09999999999997" y="483.0" type="line"/>
      <point x="298.9" y="244.0" type="line"/>
    </contour>
  </outline>
</glyph>
<glyph name="percent" format="2">
  <advance width="737.1"/>
  <unicode hex="0025"/>
  <outline>
    <contour>
      <point x="142.0" y="0.0" type="line"/>
      <point x="171.4" y="0.0" type="line"/>
      <point x="622.3" y="714.0" type="line"/>
      <point x="592.9" y="714.0" type="line"/>
    </contour>
    <contour>
      <point x="169.39999999999998" y="283.0" type="curve" smooth="yes"/>
      <point x="280.2" y="283.0"/>
      <point x="331.09999999999997" y="455.09999999999997"/>
      <point x="331.09999999999997" y="571.2" type="curve" smooth="yes"/>
      <point x="331.09999999999997" y="662.3000000000001"/>
      <point x="298.9" y="721.0"/>
      <point x="235.0" y="721.0" type="curve" smooth="yes"/>
      <point x="125.4" y="721.0"/>
      <point x="71.5" y="548.9"/>
      <point x="71.5" y="432.29999999999995" type="curve"/>
      <point x="71.5" y="334.8"/>
      <point x="107.5" y="283.0"/>
    </contour>
    <contour>
      <point x="170.8" y="307.7" type="curve" smooth="yes"/>
      <point x="123.2" y="307.7"/>
      <point x="99.2" y="346.70000000000005"/>
      <point x="99.2" y="432.29999999999995" type="curve" smooth="yes"/>
      <point x="99.2" y="529.2"/>
      <point x="143.7" y="696.3000000000001"/>
      <point x="233.6" y="696.3000000000001" type="curve" smooth="yes"/>
      <point x="278.79999999999995" y="696.3000000000001"/>
      <point x="303.40000000000003" y="652.7"/>
      <point x="303.40000000000003" y="571.2" type="curve" smooth="yes"/>
      <point x="303.40000000000003" y="474.79999999999995"/>
      <point x="258.40000000000003" y="307.7"/>
    </contour>
    <contour>
      <point x="532.4" y="-6.0" type="curve" smooth="yes"/>
      <point x="644.0" y="-6.0"/>
      <point x="693.5" y="166.1"/>
      <point x="693.5" y="282.20000000000005" type="curve" smooth="yes"/>
      <point x="693.5" y="373.3"/>
      <point x="661.3000000000001" y="432.0"/>
      <point x="597.4" y="432.0" type="curve" smooth="yes"/>
      <point x="487.8" y="432.0"/>
      <point x="433.9" y="259.90000000000003"/>
      <point x="433.9" y="143.3" type="curve"/>
      <point x="433.9" y="45.300000000000004"/>
      <point x="471.40000000000003" y="-6.0"/>
    </contour>
    <contour>
      <point x="533.8000000000001" y="18.7" type="curve" smooth="yes"/>
      <point x="485.6" y="18.7"/>
      <point x="461.6" y="57.7"/>
      <point x="461.6" y="143.3" type="curve" smooth="yes"/>
      <point x="461.6" y="240.2"/>
      <point x="504.6" y="407.3"/>
      <point x="596.0" y="407.3" type="curve" smooth="yes"/>
      <point x="641.2" y="407.3"/>
      <point x="665.8" y="363.7"/>
      <point x="665.8" y="282.20000000000005" type="curve" smooth="yes"/>
      <point x="665.8" y="185.8"/>
      <point x="622.2" y="18.7"/>
    </contour>
  </outline>
</glyph>
<glyph name="quotesingle" format="2">
  <advance width="122.6"/>
  <unicode hex="0027"/>
  <outline>
    <contour>
      <point x="97.2" y="530.0" type="line"/>
      <point x="117.2" y="530.0" type="line"/>
      <point x="161.20000000000002" y="714.0" type="line"/>
      <point x="131.2" y="714.0" type="line"/>
    </contour>
  </outline>
</glyph>
<glyph name="parenleft" format="2">
  <advance width="237.8"/>
  <unicode hex="0028"/>
  <outline>
    <contour>
      <point x="126.0" y="-117.5" type="curve"/>
      <point x="131.3" y="-93.9" type="line"/>
      <point x="88.89999999999999" y="-50.300000000000004"/>
      <point x="58.800000000000004" y="55.1"/>
      <point x="58.800000000000004" y="164.3" type="curve" smooth="yes"/>
      <point x="58.800000000000004" y="327.9"/>
      <point x="116.80000000000001" y="566.9"/>
      <point x="304.2" y="714.8000000000001" type="curve"/>
      <point x="309.5" y="739.8000000000001" type="line"/>
      <point x="103.2" y="604.9"/>
      <point x="30.800000000000004" y="364.5"/>
      <point x="30.800000000000004" y="165.4" type="curve" smooth="yes"/>
      <point x="30.800000000000004" y="38.300000000000004"/>
      <point x="64.8" y="-61.5"/>
    </contour>
  </outline>
</glyph>
<glyph name="parenright" format="2">
  <advance width="237.8"/>
  <unicode hex="0029"/>
  <outline>
    <contour>
      <point x="-65.0" y="-117.5" type="line"/>
      <point x="141.3" y="17.4"/>
      <point x="213.70000000000002" y="257.8"/>
      <point x="213.70000000000002" y="456.9" type="curve" smooth="yes"/>
      <point x="213.70000000000002" y="584.0"/>
      <point x="179.70000000000002" y="683.8000000000001"/>
      <point x="118.5" y="739.8" type="curve"/>
      <point x="113.2" y="716.2" type="line"/>
      <point x="155.60000000000002" y="672.6"/>
      <point x="185.7" y="567.1999999999999"/>
      <point x="185.7" y="458.0" type="curve" smooth="yes"/>
      <point x="185.7" y="294.4"/>
      <point x="127.7" y="55.39999999999999"/>
      <point x="-59.7" y="-92.5" type="curve"/>
    </contour>
  </outline>
</glyph>
<glyph name="asterisk" format="2">
  <advance width="338.4"/>
  <unicode hex="002A"/>
  <outline>
    <contour>
      <point x="221.8" y="418.29999999999995" type="line"/>
      <point x="241.3" y="573.7" type="line"/>
      <point x="339.90000000000003" y="472.5" type="line"/>
      <point x="362.5" y="499.9" type="line"/>
      <point x="245.5" y="587.6" type="line"/>
      <point x="388.8" y="620.1" type="line"/>
      <point x="378.40000000000003" y="655.4" type="line"/>
      <point x="247.29999999999998" y="601.6" type="line"/>
      <point x="291.79999999999995" y="752.4" type="line"/>
      <point x="254.7" y="760.0" type="line"/>
      <point x="234.1" y="604.9" type="line"/>
      <point x="135.79999999999998" y="708.0" type="line"/>
      <point x="112.3" y="679.0" type="line"/>
      <point x="229.0" y="591.0" type="line"/>
      <point x="86.0" y="558.1999999999999" type="line"/>
      <point x="97.0" y="523.5" type="line"/>
      <point x="227.5" y="577.0" type="line"/>
      <point x="184.10000000000002" y="426.2" type="line"/>
    </contour>
  </outline>
</glyph>
<glyph name="plus" format="2">
  <advance width="465.2"/>
  <unicode hex="002B"/>
  <outline>
    <contour>
      <point x="229.3" y="143.0" type="line"/>
      <point x="258.7" y="143.0" type="line"/>
      <point x="258.7" y="343.7" type="line"/>
      <point x="421.90000000000003" y="343.7" type="line"/>
      <point x="421.90000000000003" y="371.7" type="line"/>
      <point x="258.7" y="371.7" type="line"/>
      <point x="258.7" y="572.0" type="line"/>
      <point x="229.3" y="572.0" type="line"/>
      <point x="229.3" y="371.7" type="line"/>
      <point x="65.7" y="371.7" type="line"/>
      <point x="65.7" y="343.7" type="line"/>
      <point x="229.3" y="343.7" type="line"/>
    </contour>
  </outline>
</glyph>
<glyph name="comma" format="2">
  <advance width="156.5"/>
  <unicode hex="002C"/>
  <outline>
    <contour>
      <point x="-47.0" y="-138.6" type="line"/>
      <point x="42.5" y="-113.9"/>
      <point x="61.8" y="-52.300000000000004"/>
      <point x="61.8" y="15.0" type="curve" smooth="yes"/>
      <point x="61.8" y="51.0"/>
      <point x="47.8" y="73.0"/>
      <point x="27.8" y="73.0" type="curve" smooth="yes"/>
      <point x="7.8" y="73.0"/>
      <point x="-2.2" y="59.0"/>
      <point x="-2.2" y="42.0" type="curve" smooth="yes"/>
      <point x="-2.2" y="11.0"/>
      <point x="32.8" y="12.0"/>
      <point x="32.8" y="-22.0" type="curve" smooth="yes"/>
      <point x="32.8" y="-60.6"/>
      <point x="9.200000000000001" y="-99.2"/>
      <point x="-48.6" y="-117.9" type="curve"/>
    </contour>
  </outline>
</glyph>
<glyph name="hyphen" format="2">
  <advance width="263.8"/>
  <unicode hex="002D"/>
  <outline>
    <contour>
      <point x="18.799999999999997" y="258.29999999999995" type="line"/>
      <point x="239.6" y="258.29999999999995" type="line"/>
      <point x="245.29999999999998" y="284.3" type="line"/>
      <point x="24.5" y="284.3" type="line"/>
    </contour>
  </outline>
</glyph>
<glyph name="period" format="2">
  <advance width="156.5"/>
  <unicode hex="002E"/>
  <outline>
    <contour>
      <point x="30.7" y="-5.7" type="curve" smooth="yes"/>
      <point x="46.7" y="-5.7"/>
      <point x="63.0" y="9.7"/>
      <point x="63.0" y="42.5" type="curve" smooth="yes"/>
      <point x="63.0" y="63.6"/>
      <point x="52.0" y="72.3"/>
      <point x="38.3" y="72.3" type="curve" smooth="yes"/>
      <point x="19.3" y="72.3"/>
      <point x="4.0" y="54.300000000000004"/>
      <point x="4.0" y="25.4" type="curve" smooth="yes"/>
      <point x="4.0" y="4.0"/>
      <point x="14.0" y="-5.7"/>
    </contour>
  </outline>
</glyph>
<glyph name="slash" format="2">
  <advance width="245.29999999999998"/>
  <unicode hex="002F"/>
  <outline>
    <contour>
      <point x="-76.89999999999999" y="-121.0" type="line"/>
      <point x="-48.199999999999996" y="-121.0" type="line"/>
      <point x="323.4" y="760.0" type="line"/>
      <point x="294.1" y="760.0" type="line"/>
    </contour>
  </outline>
</glyph>
<glyph name="zero" format="2">
  <advance width="450.09999999999997"/>
  <unicode hex="0030"/>
  <outline>
    <contour>
      <point x="173.0" y="-11.0" type="curve" smooth="yes"/>
      <point x="361.0" y="-11.0"/>
      <point x="437.40000000000003" y="308.2"/>
      <point x="437.40000000000003" y="501.90000000000003" type="curve" smooth="yes"/>
      <point x="437.40000000000003" y="650.8"/>
      <point x="387.40000000000003" y="723.6999999999999"/>
      <point x="304.09999999999997" y="723.6999999999999" type="curve" smooth="yes"/>
      <point x="128.7" y="723.6999999999999"/>
      <point x="41.0" y="427.09999999999997"/>
      <point x="41.0" y="212.70000000000002" type="curve" smooth="yes"/>
      <point x="41.0" y="67.39999999999999"/>
      <point x="89.10000000000001" y="-11.0"/>
    </contour>
    <contour>
      <point x="175.2" y="14.0" type="curve" smooth="yes"/>
      <point x="106.0" y="14.0"/>
      <point x="69.0" y="85.2"/>
      <point x="69.0" y="213.3" type="curve" smooth="yes"/>
      <point x="69.0" y="407.4"/>
      <point x="148.8" y="699.4"/>
      <point x="300.3" y="699.4" type="curve" smooth="yes"/>
      <point x="370.3" y="699.4"/>
      <point x="409.4" y="632.0999999999999"/>
      <point x="409.4" y="500.40000000000003" type="curve" smooth="yes"/>
      <point x="409.4" y="326.5"/>
      <point x="338.5" y="14.0"/>
    </contour>
  </outline>
</glyph>
<glyph name="one" format="2">
  <advance width="450.09999999999997"/>
  <unicode hex="0031"/>
  <outline>
    <contour>
      <point x="43.5" y="0.0" type="line"/>
      <point x="309.7" y="0.0" type="line"/>
      <point x="314.7" y="20.0" type="line"/>
      <point x="242.2" y="20.0" type="line" smooth="yes"/>
      <point x="208.4" y="20.0"/>
      <point x="203.5" y="23.3"/>
      <point x="203.5" y="45.199999999999996" type="curve" smooth="yes"/>
      <point x="203.5" y="54.4"/>
      <point x="206.2" y="74.1"/>
      <point x="210.6" y="94.7" type="curve" smooth="yes"/>
      <point x="342.8" y="718.0" type="line"/>
      <point x="334.79999999999995" y="718.0" type="line"/>
      <point x="284.79999999999995" y="678.1" type="line" smooth="yes"/>
      <point x="222.1" y="626.7"/>
      <point x="178.29999999999998" y="601.6"/>
      <point x="139.3" y="592.3" type="curve"/>
      <point x="139.3" y="583.4"/>
      <point x="141.6" y="571.9"/>
      <point x="162.9" y="571.9" type="curve" smooth="yes"/>
      <point x="193.5" y="571.9"/>
      <point x="232.9" y="602.1"/>
      <point x="306.0" y="669.9" type="curve"/>
      <point x="307.7" y="669.9" type="line"/>
      <point x="300.70000000000005" y="644.0"/>
      <point x="285.9" y="582.1"/>
      <point x="264.4" y="479.2" type="curve" smooth="yes"/>
      <point x="182.6" y="94.69999999999999" type="line" smooth="yes"/>
      <point x="167.8" y="25.1"/>
      <point x="163.6" y="20.0"/>
      <point x="116.5" y="20.0" type="curve" smooth="yes"/>
      <point x="48.5" y="20.0" type="line"/>
    </contour>
  </outline>
</glyph>
<glyph name="two" format="2">
  <advance width="450.09999999999997"/>
  <unicode hex="0032"/>
  <outline>
    <contour>
      <point x="-2.4000000000000004" y="0.0" type="line"/>
      <point x="331.29999999999995" y="0.0" type="line"/>
      <point x="356.5" y="111.1" type="line"/>
      <point x="336.5" y="111.1" type="line"/>
      <point x="330.5" y="88.3" type="line" smooth="yes"/>
      <point x="315.1" y="27.5"/>
      <point x="311.90000000000003" y="25.0"/>
      <point x="254.5" y="25.0" type="curve" smooth="yes"/>
      <point x="31.599999999999998" y="25.0" type="line"/>
      <point x="251.0" y="257.7" type="line" smooth="yes"/>
      <point x="365.6" y="379.0"/>
      <point x="415.09999999999997" y="470.09999999999997"/>
      <point x="415.09999999999997" y="577.0" type="curve" smooth="yes"/>
      <point x="415.09999999999997" y="664.6999999999999"/>
      <point x="364.40000000000003" y="724.0"/>
      <point x="271.5" y="724.0" type="curve" smooth="yes"/>
      <point x="171.0" y="724.0"/>
      <point x="114.9" y="651.4"/>
      <point x="114.9" y="592.3000000000001" type="curve" smooth="yes"/>
      <point x="114.9" y="570.6999999999999"/>
      <point x="126.4" y="563.4"/>
      <point x="139.9" y="563.4" type="curve"/>
      <point x="139.9" y="646.1999999999999"/>
      <point x="191.2" y="699.0"/>
      <point x="270.1" y="699.0" type="curve" smooth="yes"/>
      <point x="345.0" y="699.0"/>
      <point x="387.1" y="650.0"/>
      <point x="387.1" y="575.5999999999999" type="curve" smooth="yes"/>
      <point x="387.1" y="484.4"/>
      <point x="350.5" y="401.2"/>
      <point x="227.4" y="269.4" type="curve" smooth="yes"/>
      <point x="6.6" y="33.6" type="line"/>
    </contour>
  </outline>
</glyph>
<glyph name="three" format="2">
  <advance width="450.09999999999997"/>
  <unicode hex="0033"/>
  <outline>
    <contour>
      <point x="146.4" y="-10.0" type="curve" smooth="yes"/>
      <point x="265.7" y="-10.0"/>
      <point x="357.8" y="66.5"/>
      <point x="357.8" y="226.4" type="curve" smooth="yes"/>
      <point x="357.8" y="307.4"/>
      <point x="304.70000000000005" y="363.40000000000003"/>
      <point x="253.4" y="375.0" type="curve"/>
      <point x="362.8" y="397.1"/>
      <point x="412.3" y="481.6"/>
      <point x="412.3" y="580.1" type="curve" smooth="yes"/>
      <point x="412.3" y="666.9"/>
      <point x="355.5" y="724.0"/>
      <point x="276.90000000000003" y="724.0" type="curve" smooth="yes"/>
      <point x="183.5" y="724.0"/>
      <point x="116.9" y="660.3"/>
      <point x="116.9" y="573.0" type="curve" smooth="yes"/>
      <point x="116.9" y="550.6999999999999"/>
      <point x="129.2" y="539.7"/>
      <point x="141.5" y="539.7" type="curve"/>
      <point x="141.5" y="625.9"/>
      <point x="176.7" y="699.0"/>
      <point x="275.2" y="699.0" type="curve" smooth="yes"/>
      <point x="339.90000000000003" y="699.0"/>
      <point x="384.3" y="652.1"/>
      <point x="384.3" y="579.8000000000001" type="curve" smooth="yes"/>
      <point x="384.3" y="456.9"/>
      <point x="303.5" y="389.0"/>
      <point x="205.20000000000002" y="389.0" type="curve" smooth="yes"/>
      <point x="177.4" y="389.0" type="line"/>
      <point x="169.39999999999998" y="364.0" type="line"/>
      <point x="203.4" y="364.0" type="line" smooth="yes"/>
      <point x="279.8" y="364.0"/>
      <point x="329.8" y="300.9"/>
      <point x="329.8" y="226.1" type="curve" smooth="yes"/>
      <point x="329.8" y="85.5"/>
      <point x="249.3" y="15.0"/>
      <point x="148.4" y="15.0" type="curve" smooth="yes"/>
      <point x="58.2" y="15.0"/>
      <point x="29.8" y="63.5"/>
      <point x="29.8" y="132.9" type="curve"/>
      <point x="17.700000000000003" y="132.9"/>
      <point x="4.1" y="123.4"/>
      <point x="4.1" y="103.8" type="curve" smooth="yes"/>
      <point x="4.1" y="49.4"/>
      <point x="41.7" y="-10.0"/>
    </contour>
  </outline>
</glyph>
<glyph name="four" format="2">
  <advance width="450.09999999999997"/>
  <unicode hex="0034"/>
  <outline>
    <contour>
      <point x="104.3" y="0.0" type="line"/>
      <point x="355.0" y="0.0" type="line"/>
      <point x="360.0" y="20.0" type="line"/>
      <point x="309.5" y="20.0" type="line" smooth="yes"/>
      <point x="273.9" y="20.0"/>
      <point x="267.90000000000003" y="25.8"/>
      <point x="267.90000000000003" y="47.2" type="curve" smooth="yes"/>
      <point x="267.90000000000003" y="58.8"/>
      <point x="270.6" y="72.8"/>
      <point x="273.6" y="88.19999999999999" type="curve" smooth="yes"/>
      <point x="405.90000000000003" y="714.0" type="line"/>
      <point x="379.1" y="714.0" type="line"/>
      <point x="9.199999999999996" y="230.3" type="line"/>
      <point x="5.199999999999999" y="214.0" type="line"/>
      <point x="419.8" y="214.0" type="line"/>
      <point x="427.6" y="239.0" type="line"/>
      <point x="38.6" y="239.0" type="line"/>
      <point x="42.8" y="235.3" type="line"/>
      <point x="315.59999999999997" y="593.0" type="line" smooth="yes"/>
      <point x="335.6" y="618.5"/>
      <point x="362.90000000000003" y="655.1999999999999"/>
      <point x="373.4" y="673.1" type="curve"/>
      <point x="362.0" y="632.8"/>
      <point x="350.29999999999995" y="582.7"/>
      <point x="336.0" y="515.8" type="curve" smooth="yes"/>
      <point x="245.6" y="88.2" type="line" smooth="yes"/>
      <point x="232.89999999999998" y="26.7"/>
      <point x="228.6" y="20.0"/>
      <point x="179.1" y="20.0" type="curve" smooth="yes"/>
      <point x="109.3" y="20.0" type="line"/>
    </contour>
  </outline>
</glyph>
<glyph name="five" format="2">
  <advance width="450.09999999999997"/>
  <unicode hex="0035"/>
  <outline>
    <contour>
      <point x="152.5" y="-10.0" type="curve" smooth="yes"/>
      <point x="285.5" y="-10.0"/>
      <point x="368.5" y="101.9"/>
      <point x="368.5" y="245.4" type="curve" smooth="yes"/>
      <point x="368.5" y="356.8"/>
      <point x="310.0" y="418.3"/>
      <point x="217.6" y="418.3" type="curve" smooth="yes"/>
      <point x="184.9" y="418.3"/>
      <point x="155.0" y="409.3"/>
      <point x="139.2" y="402.3" type="curve"/>
      <point x="223.0" y="689.0" type="line"/>
      <point x="368.8" y="689.0" type="line" smooth="yes"/>
      <point x="398.70000000000005" y="689.0"/>
      <point x="403.8" y="681.8"/>
      <point x="403.8" y="667.7" type="curve" smooth="yes"/>
      <point x="403.8" y="661.1"/>
      <point x="401.1" y="640.4000000000001"/>
      <point x="396.40000000000003" y="605.4" type="curve"/>
      <point x="416.4" y="605.4" type="line"/>
      <point x="441.4" y="714.0" type="line"/>
      <point x="204.70000000000002" y="714.0" type="line"/>
      <point x="105.5" y="376.7" type="line"/>
      <point x="119.69999999999999" y="371.3" type="line"/>
      <point x="148.9" y="384.4"/>
      <point x="168.3" y="393.3"/>
      <point x="215.60000000000002" y="393.3" type="curve" smooth="yes"/>
      <point x="290.8" y="393.3"/>
      <point x="340.5" y="344.1"/>
      <point x="340.5" y="245.4" type="curve" smooth="yes"/>
      <point x="340.5" y="103.39999999999999"/>
      <point x="256.40000000000003" y="15.0"/>
      <point x="156.39999999999998" y="15.0" type="curve" smooth="yes"/>
      <point x="77.8" y="15.0"/>
      <point x="45.9" y="64.5"/>
      <point x="46.3" y="137.5" type="curve"/>
      <point x="26.5" y="137.5"/>
      <point x="19.900000000000002" y="124.69999999999999"/>
      <point x="19.900000000000002" y="106.3" type="curve" smooth="yes"/>
      <point x="19.900000000000002" y="56.39999999999999"/>
      <point x="54.10000000000001" y="-10.0"/>
    </contour>
  </outline>
</glyph>
<glyph name="six" format="2">
  <advance width="450.09999999999997"/>
  <unicode hex="0036"/>
  <outline>
    <contour>
      <point x="199.10000000000002" y="-10.0" type="curve" smooth="yes"/>
      <point x="319.9" y="-10.0"/>
      <point x="388.9" y="118.7"/>
      <point x="388.9" y="264.7" type="curve" smooth="yes"/>
      <point x="388.9" y="354.2"/>
      <point x="345.2" y="428.0"/>
      <point x="250.5" y="428.0" type="curve" smooth="yes"/>
      <point x="188.10000000000002" y="428.0"/>
      <point x="138.6" y="396.7"/>
      <point x="109.6" y="369.6" type="curve"/>
      <point x="146.6" y="558.5"/>
      <point x="246.10000000000002" y="699.0"/>
      <point x="347.5" y="699.0" type="curve" smooth="yes"/>
      <point x="409.5" y="699.0"/>
      <point x="428.90000000000003" y="652.3000000000001"/>
      <point x="428.9" y="591.3000000000001" type="curve"/>
      <point x="448.2" y="591.3000000000001"/>
      <point x="455.2" y="604.5"/>
      <point x="455.2" y="620.7" type="curve" smooth="yes"/>
      <point x="455.2" y="667.9"/>
      <point x="421.29999999999995" y="724.0"/>
      <point x="350.0" y="724.0" type="curve" smooth="yes"/>
      <point x="196.1" y="724.0"/>
      <point x="64.4" y="478.29999999999995"/>
      <point x="64.4" y="206.5" type="curve" smooth="yes"/>
      <point x="64.4" y="47.7"/>
      <point x="122.0" y="-10.0"/>
    </contour>
    <contour>
      <point x="200.1" y="15.0" type="curve" smooth="yes"/>
      <point x="135.2" y="15.0"/>
      <point x="92.39999999999999" y="81.4"/>
      <point x="92.39999999999999" y="203.7" type="curve" smooth="yes"/>
      <point x="92.39999999999999" y="237.9"/>
      <point x="94.1" y="280.59999999999997"/>
      <point x="103.5" y="334.1" type="curve"/>
      <point x="143.1" y="374.0"/>
      <point x="194.7" y="403.0"/>
      <point x="250.5" y="403.0" type="curve" smooth="yes"/>
      <point x="320.0" y="403.0"/>
      <point x="360.90000000000003" y="345.0"/>
      <point x="360.90000000000003" y="263.4" type="curve" smooth="yes"/>
      <point x="360.90000000000003" y="131.6"/>
      <point x="295.9" y="15.0"/>
    </contour>
  </outline>
</glyph>
<glyph name="seven" format="2">
  <advance width="450.09999999999997"/>
  <unicode hex="0037"/>
  <outline>
    <contour>
      <point x="103.4" y="0.0" type="line"/>
      <point x="133.1" y="0.0" type="line"/>
      <point x="472.8" y="701.0999999999999" type="line"/>
      <point x="475.7" y="714.0" type="line"/>
      <point x="133.3" y="714.0" type="line"/>
      <point x="97.80000000000001" y="581.6" type="line"/>
      <point x="117.8" y="581.6" type="line"/>
      <point x="137.1" y="646.5" type="line" smooth="yes"/>
      <point x="148.6" y="684.6"/>
      <point x="154.0" y="689.0"/>
      <point x="192.4" y="689.0" type="curve" smooth="yes"/>
      <point x="441.59999999999997" y="689.0" type="line"/>
    </contour>
  </outline>
</glyph>
<glyph name="eight" format="2">
  <advance width="450.09999999999997"/>
  <unicode hex="0038"/>
  <outline>
    <contour>
      <point x="192.89999999999998" y="-10.0" type="curve" smooth="yes"/>
      <point x="300.59999999999997" y="-10.0"/>
      <point x="388.1" y="62.3"/>
      <point x="388.1" y="195.60000000000002" type="curve" smooth="yes"/>
      <point x="388.1" y="275.1"/>
      <point x="348.8" y="328.29999999999995"/>
      <point x="261.7" y="375.2" type="curve"/>
      <point x="366.3" y="418.4"/>
      <point x="441.9" y="479.1"/>
      <point x="441.9" y="583.6" type="curve" smooth="yes"/>
      <point x="441.9" y="661.1"/>
      <point x="390.40000000000003" y="724.0"/>
      <point x="293.59999999999997" y="724.0" type="curve" smooth="yes"/>
      <point x="175.70000000000002" y="724.0"/>
      <point x="111.0" y="633.8000000000001"/>
      <point x="111.0" y="541.6" type="curve" smooth="yes"/>
      <point x="111.0" y="472.4"/>
      <point x="139.6" y="422.6"/>
      <point x="210.6" y="378.1" type="curve"/>
      <point x="103.3" y="333.7"/>
      <point x="17.4" y="266.1"/>
      <point x="17.4" y="151.3" type="curve" smooth="yes"/>
      <point x="17.4" y="59.0"/>
      <point x="79.3" y="-10.0"/>
    </contour>
    <contour>
      <point x="192.9" y="15.0" type="curve" smooth="yes"/>
      <point x="97.0" y="15.0"/>
      <point x="45.4" y="73.10000000000001"/>
      <point x="45.4" y="151.6" type="curve" smooth="yes"/>
      <point x="45.4" y="258.1"/>
      <point x="134.8" y="325.7"/>
      <point x="233.8" y="363.09999999999997" type="curve"/>
      <point x="324.5" y="314.5"/>
      <point x="360.1" y="274.8"/>
      <point x="360.1" y="193.60000000000002" type="curve" smooth="yes"/>
      <point x="360.1" y="80.8"/>
      <point x="287.0" y="15.0"/>
    </contour>
    <contour>
      <point x="238.5" y="390.2" type="curve"/>
      <point x="160.1" y="436.5"/>
      <point x="139.0" y="480.2"/>
      <point x="139.0" y="541.6" type="curve" smooth="yes"/>
      <point x="139.0" y="621.1"/>
      <point x="195.29999999999998" y="699.0"/>
      <point x="293.3" y="699.0" type="curve" smooth="yes"/>
      <point x="374.1" y="699.0"/>
      <point x="413.9" y="645.8"/>
      <point x="413.9" y="583.6" type="curve" smooth="yes"/>
      <point x="413.9" y="495.7"/>
      <point x="357.1" y="438.4"/>
    </contour>
  </outline>
</glyph>
<glyph name="nine" format="2">
  <advance width="450.09999999999997"/>
  <unicode hex="0039"/>
  <outline>
    <contour>
      <point x="159.9" y="-10.0" type="curve" smooth="yes"/>
      <point x="313.0" y="-10.0"/>
      <point x="418.4" y="255.9"/>
      <point x="418.4" y="517.6" type="curve" smooth="yes"/>
      <point x="418.4" y="666.0"/>
      <point x="355.5" y="724.0"/>
      <point x="278.7" y="724.0" type="curve" smooth="yes"/>
      <point x="160.60000000000002" y="724.0"/>
      <point x="83.8" y="604.9"/>
      <point x="83.8" y="450.5" type="curve" smooth="yes"/>
      <point x="83.8" y="359.8"/>
      <point x="127.2" y="283.0"/>
      <point x="222.5" y="283.0" type="curve" smooth="yes"/>
      <point x="285.5" y="283.0"/>
      <point x="347.2" y="321.5"/>
      <point x="375.0" y="351.9" type="curve"/>
      <point x="344.0" y="162.8"/>
      <point x="257.2" y="15.0"/>
      <point x="160.6" y="15.0" type="curve" smooth="yes"/>
      <point x="88.3" y="15.0"/>
      <point x="72.7" y="59.0"/>
      <point x="72.7" y="122.4" type="curve"/>
      <point x="53.7" y="122.4"/>
      <point x="46.4" y="110.39999999999999"/>
      <point x="46.4" y="92.1" type="curve" smooth="yes"/>
      <point x="46.4" y="46.4"/>
      <point x="72.30000000000001" y="-10.0"/>
    </contour>
    <contour>
      <point x="222.5" y="308.0" type="curve" smooth="yes"/>
      <point x="149.1" y="308.0"/>
      <point x="111.8" y="372.9"/>
      <point x="111.8" y="451.2" type="curve" smooth="yes"/>
      <point x="111.8" y="591.4"/>
      <point x="179.10000000000002" y="699.0"/>
      <point x="278.0" y="699.0" type="curve" smooth="yes"/>
      <point x="340.5" y="699.0"/>
      <point x="390.4" y="645.1"/>
      <point x="390.4" y="516.9" type="curve" smooth="yes"/>
      <point x="390.4" y="485.70000000000005"/>
      <point x="388.0" y="442.09999999999997"/>
      <point x="381.3" y="389.8" type="curve"/>
      <point x="346.8" y="351.1"/>
      <point x="284.9" y="308.0"/>
    </contour>
  </outline>
</glyph>
<glyph name="colon" format="2">
  <advance width="169.10000000000002"/>
  <unicode hex="003A"/>
  <outline>
    <contour>
      <point x="128.4" y="463.70000000000005" type="curve" smooth="yes"/>
      <point x="144.4" y="463.70000000000005"/>
      <point x="160.7" y="479.1"/>
      <point x="160.7" y="511.90000000000003" type="curve" smooth="yes"/>
      <point x="160.7" y="533.0"/>
      <point x="149.7" y="541.7"/>
      <point x="136.0" y="541.7" type="curve" smooth="yes"/>
      <point x="117.0" y="541.7"/>
      <point x="101.69999999999999" y="523.7"/>
      <point x="101.69999999999999" y="494.8" type="curve" smooth="yes"/>
      <point x="101.69999999999999" y="473.4"/>
      <point x="111.7" y="463.70000000000005"/>
    </contour>
    <contour>
      <point x="27.5" y="-5.7" type="curve" smooth="yes"/>
      <point x="43.5" y="-5.7"/>
      <point x="59.800000000000004" y="9.7"/>
      <point x="59.800000000000004" y="42.5" type="curve" smooth="yes"/>
      <point x="59.800000000000004" y="63.6"/>
      <point x="48.800000000000004" y="72.3"/>
      <point x="35.1" y="72.3" type="curve" smooth="yes"/>
      <point x="16.1" y="72.3"/>
      <point x="0.8000000000000043" y="54.300000000000004"/>
      <point x="0.8000000000000043" y="25.4" type="curve" smooth="yes"/>
      <point x="0.8000000000000043" y="4.0"/>
      <point x="10.8" y="-5.7"/>
    </contour>
  </outline>
</glyph>
<glyph name="semicolon" format="2">
  <advance width="169.1"/>
  <unicode hex="003B"/>
  <outline>
    <contour>
      <point x="-46.3" y="-138.6" type="line"/>
      <point x="43.2" y="-113.9"/>
      <point x="62.5" y="-52.300000000000004"/>
      <point x="62.5" y="15.0" type="curve" smooth="yes"/>
      <point x="62.5" y="51.0"/>
      <point x="48.5" y="73.0"/>
      <point x="28.5" y="73.0" type="curve" smooth="yes"/>
      <point x="8.5" y="73.0"/>
      <point x="-1.4999999999999998" y="59.0"/>
      <point x="-1.4999999999999998" y="42.0" type="curve" smooth="yes"/>
      <point x="-1.4999999999999998" y="11.0"/>
      <point x="33.5" y="12.0"/>
      <point x="33.5" y="-22.0" type="curve" smooth="yes"/>
      <point x="33.5" y="-60.6"/>
      <point x="9.9" y="-99.2"/>
      <point x="-47.900000000000006" y="-117.9" type="curve"/>
    </contour>
    <contour>
      <point x="128.4" y="463.70000000000005" type="curve" smooth="yes"/>
      <point x="144.4" y="463.70000000000005"/>
      <point x="160.7" y="479.1"/>
      <point x="160.7" y="511.90000000000003" type="curve" smooth="yes"/>
      <point x="160.7" y="533.0"/>
      <point x="149.70000000000002" y="541.7"/>
      <point x="136.0" y="541.7" type="curve" smooth="yes"/>
      <point x="117.0" y="541.7"/>
      <point x="101.69999999999999" y="523.7"/>
      <point x="101.69999999999999" y="494.8" type="curve" smooth="yes"/>
      <point x="101.69999999999999" y="473.4"/>
      <point x="111.7" y="463.70000000000005"/>
    </contour>
  </outline>
</glyph>
<glyph name="less" format="2">
  <advance width="465.2"/>
  <unicode hex="003C"/>
  <outline>
    <contour>
      <point x="421.90000000000003" y="117.3" type="line"/>
      <point x="421.90000000000003" y="151.8" type="line"/>
      <point x="96.4" y="357.0" type="line"/>
      <point x="421.90000000000003" y="564.2" type="line"/>
      <point x="421.90000000000003" y="598.6999999999999" type="line"/>
      <point x="65.7" y="371.0" type="line"/>
      <point x="65.7" y="344.0" type="line"/>
    </contour>
  </outline>
</glyph>
<glyph name="equal" format="2">
  <advance width="465.2"/>
  <unicode hex="003D"/>
  <outline>
    <contour>
      <point x="67.0" y="445.4" type="line"/>
      <point x="419.3" y="445.4" type="line"/>
      <point x="419.3" y="473.4" type="line"/>
      <point x="67.0" y="473.4" type="line"/>
    </contour>
    <contour>
      <point x="67.0" y="241.3" type="line"/>
      <point x="419.3" y="241.3" type="line"/>
      <point x="419.3" y="269.3" type="line"/>
      <point x="67.0" y="269.3" type="line"/>
    </contour>
  </outline>
</glyph>
<glyph name="greater" format="2">
  <advance width="465.2"/>
  <unicode hex="003E"/>
  <outline>
    <contour>
      <point x="65.7" y="117.3" type="line"/>
      <point x="421.90000000000003" y="344.0" type="line"/>
      <point x="421.90000000000003" y="371.0" type="line"/>
      <point x="65.7" y="598.6999999999999" type="line"/>
      <point x="65.7" y="564.2" type="line"/>
      <point x="390.0" y="357.0" type="line"/>
      <point x="65.7" y="151.8" type="line"/>
    </contour>
  </outline>
</glyph>
<glyph name="question" format="2">
  <advance width="379.6"/>
  <unicode hex="003F"/>
  <outline>
    <contour>
      <point x="119.3" y="166.7" type="line"/>
      <point x="143.3" y="166.7" type="line"/>
      <point x="176.7" y="319.2" type="line"/>
      <point x="300.6" y="378.2"/>
      <point x="389.90000000000003" y="448.5"/>
      <point x="389.90000000000003" y="580.9000000000001" type="curve" smooth="yes"/>
      <point x="389.90000000000003" y="665.7"/>
      <point x="338.8" y="724.0"/>
      <point x="257.59999999999997" y="724.0" type="curve" smooth="yes"/>
      <point x="162.1" y="724.0"/>
      <point x="110.19999999999999" y="652.4"/>
      <point x="110.19999999999999" y="585.3000000000001" type="curve" smooth="yes"/>
      <point x="110.19999999999999" y="567.2"/>
      <point x="118.3" y="552.3"/>
      <point x="129.9" y="552.3" type="curve"/>
      <point x="133.0" y="629.5"/>
      <point x="166.9" y="699.0"/>
      <point x="256.2" y="699.0" type="curve" smooth="yes"/>
      <point x="319.79999999999995" y="699.0"/>
      <point x="361.90000000000003" y="651.6999999999999"/>
      <point x="361.90000000000003" y="579.5" type="curve" smooth="yes"/>
      <point x="361.90000000000003" y="459.9"/>
      <point x="275.9" y="388.9"/>
      <point x="153.1" y="336.9" type="curve"/>
    </contour>
    <contour>
      <point x="106.6" y="-5.7" type="curve" smooth="yes"/>
      <point x="122.60000000000001" y="-5.7"/>
      <point x="138.9" y="9.7"/>
      <point x="138.9" y="42.5" type="curve" smooth="yes"/>
      <point x="138.9" y="63.6"/>
      <point x="127.9" y="72.3"/>
      <point x="114.19999999999999" y="72.3" type="curve" smooth="yes"/>
      <point x="95.2" y="72.3"/>
      <point x="79.9" y="54.300000000000004"/>
      <point x="79.9" y="25.4" type="curve" smooth="yes"/>
      <point x="79.9" y="4.0"/>
      <point x="89.9" y="-5.7"/>
    </contour>
  </outline>
</glyph>
<glyph name="bracketleft" format="2">
  <advance width="249.4"/>
  <unicode hex="005B"/>
  <outline>
    <contour>
      <point x="-18.1" y="-128.0" type="line"/>
      <point x="118.7" y="-128.0" type="line"/>
      <point x="123.0" y="-108.0" type="line"/>
      <point x="69.60000000000001" y="-108.0" type="line" smooth="yes"/>
      <point x="32.699999999999996" y="-108.0"/>
      <point x="22.4" y="-103.3"/>
      <point x="22.4" y="-80.6" type="curve" smooth="yes"/>
      <point x="22.4" y="-68.5"/>
      <point x="25.4" y="-51.10000000000001"/>
      <point x="30.8" y="-27.2" type="curve"/>
      <point x="176.1" y="658.6" type="line"/>
      <point x="191.2" y="731.4000000000001"/>
      <point x="198.7" y="740.0"/>
      <point x="250.8" y="740.0" type="curve" smooth="yes"/>
      <point x="302.40000000000003" y="740.0" type="line"/>
      <point x="306.7" y="760.0" type="line"/>
      <point x="169.9" y="760.0" type="line"/>
    </contour>
  </outline>
</glyph>
<glyph name="backslash" format="2">
  <advance width="245.29999999999998"/>
  <unicode hex="005C"/>
  <outline>
    <contour>
      <point x="152.1" y="-121.0" type="line"/>
      <point x="179.8" y="-121.0" type="line"/>
      <point x="127.4" y="760.0" type="line"/>
      <point x="99.7" y="760.0" type="line"/>
    </contour>
  </outline>
</glyph>
<glyph name="bracketright" format="2">
  <advance width="249.4"/>
  <unicode hex="005D"/>
  <outline>
    <contour>
      <point x="-56.8" y="-128.0" type="line"/>
      <point x="80.0" y="-128.0" type="line"/>
      <point x="268.0" y="760.0" type="line"/>
      <point x="131.2" y="760.0" type="line"/>
      <point x="126.9" y="740.0" type="line"/>
      <point x="180.3" y="740.0" type="line" smooth="yes"/>
      <point x="217.20000000000002" y="740.0"/>
      <point x="227.49999999999997" y="735.3000000000001"/>
      <point x="227.49999999999997" y="712.5999999999999" type="curve" smooth="yes"/>
      <point x="227.49999999999997" y="702.6"/>
      <point x="223.8" y="683.1"/>
      <point x="219.10000000000002" y="659.1999999999999" type="curve" smooth="yes"/>
      <point x="73.8" y="-26.600000000000005" type="line"/>
      <point x="58.699999999999996" y="-99.4"/>
      <point x="51.2" y="-108.0"/>
      <point x="-0.8999999999999986" y="-108.0" type="curve" smooth="yes"/>
      <point x="-52.5" y="-108.0" type="line"/>
    </contour>
  </outline>
</glyph>
<glyph name="asciicircum" format="2">
  <advance width="465.2"/>
  <unicode hex="005E"/>
  <outline>
    <contour>
      <point x="56.3" y="271.3" type="line"/>
      <point x="88.0" y="271.3" type="line"/>
      <point x="242.3" y="669.1999999999999" type="line"/>
      <point x="398.6" y="271.3" type="line"/>
      <point x="430.29999999999995" y="271.3" type="line"/>
      <point x="254.29999999999998" y="714.0" type="line"/>
      <point x="230.0" y="714.0" type="line"/>
    </contour>
  </outline>
</glyph>
<glyph name="underscore" format="2">
  <advance width="391.1"/>
  <unicode hex="005F"/>
  <outline>
    <contour>
      <point x="-79.39999999999999" y="-121.3" type="line"/>
      <point x="321.70000000000005" y="-121.3" type="line"/>
      <point x="326.70000000000005" y="-96.3" type="line"/>
      <point x="-74.39999999999999" y="-96.3" type="line"/>
    </contour>
  </outline>
</glyph>
<glyph name="braceleft" format="2">
  <advance width="349.8"/>
  <unicode hex="007B"/>
  <outline>
    <contour>
      <point x="172.2" y="-132.0" type="curve" smooth="yes"/>
      <point x="195.9" y="-132.0" type="line"/>
      <point x="201.6" y="-108.4" type="line"/>
      <point x="176.9" y="-108.4" type="line" smooth="yes"/>
      <point x="134.8" y="-108.4"/>
      <point x="119.10000000000001" y="-89.6"/>
      <point x="119.10000000000001" y="-50.1" type="curve" smooth="yes"/>
      <point x="119.10000000000001" y="-27.9"/>
      <point x="122.80000000000001" y="-8.299999999999999"/>
      <point x="127.5" y="14.200000000000001" type="curve" smooth="yes"/>
      <point x="162.3" y="174.8" type="line" smooth="yes"/>
      <point x="165.9" y="192.9"/>
      <point x="168.89999999999998" y="214.3"/>
      <point x="168.89999999999998" y="230.7" type="curve" smooth="yes"/>
      <point x="168.89999999999998" y="271.3"/>
      <point x="152.1" y="298.9"/>
      <point x="114.2" y="311.3" type="curve"/>
      <point x="114.2" y="313.6" type="line"/>
      <point x="168.8" y="324.8"/>
      <point x="201.5" y="356.1"/>
      <point x="216.8" y="428.0" type="curve" smooth="yes"/>
      <point x="258.0" y="620.9" type="line" smooth="yes"/>
      <point x="276.5" y="708.1999999999999"/>
      <point x="298.8" y="735.0"/>
      <point x="357.4" y="735.0" type="curve" smooth="yes"/>
      <point x="376.09999999999997" y="735.0" type="line"/>
      <point x="381.8" y="760.0" type="line"/>
      <point x="356.9" y="760.0" type="line" smooth="yes"/>
      <point x="286.9" y="760.0"/>
      <point x="253.2" y="727.4"/>
      <point x="231.3" y="623.5" type="curve" smooth="yes"/>
      <point x="190.10000000000002" y="430.3" type="line" smooth="yes"/>
      <point x="175.29999999999998" y="361.3"/>
      <point x="137.4" y="329.90000000000003"/>
      <point x="64.80000000000001" y="327.0" type="curve"/>
      <point x="59.80000000000001" y="302.7" type="line"/>
      <point x="120.60000000000002" y="299.4"/>
      <point x="142.2" y="275.9"/>
      <point x="142.2" y="231.8" type="curve" smooth="yes"/>
      <point x="142.2" y="216.0"/>
      <point x="139.3" y="196.1"/>
      <point x="135.7" y="179.0" type="curve" smooth="yes"/>
      <point x="100.19999999999999" y="14.200000000000003" type="line" smooth="yes"/>
      <point x="94.80000000000001" y="-11.399999999999999"/>
      <point x="92.5" y="-28.6"/>
      <point x="92.5" y="-50.1" type="curve" smooth="yes"/>
      <point x="92.5" y="-96.39999999999999"/>
      <point x="116.19999999999999" y="-132.0"/>
    </contour>
  </outline>
</glyph>
<glyph name="braceright" format="2">
  <advance width="349.79999999999995"/>
  <unicode hex="007D"/>
  <outline>
    <contour>
      <point x="-15.3" y="-132.0" type="line"/>
      <point x="9.600000000000001" y="-132.0" type="line" smooth="yes"/>
      <point x="80.3" y="-132.0"/>
      <point x="113.30000000000001" y="-98.69999999999999"/>
      <point x="135.2" y="4.5" type="curve" smooth="yes"/>
      <point x="176.4" y="197.70000000000002" type="line" smooth="yes"/>
      <point x="191.20000000000002" y="266.7"/>
      <point x="229.1" y="298.09999999999997"/>
      <point x="301.70000000000005" y="301.0" type="curve"/>
      <point x="306.7" y="325.3" type="line"/>
      <point x="245.9" y="328.6"/>
      <point x="224.3" y="352.1"/>
      <point x="224.3" y="396.2" type="curve" smooth="yes"/>
      <point x="224.3" y="412.0"/>
      <point x="227.2" y="431.90000000000003"/>
      <point x="230.79999999999998" y="449.0" type="curve" smooth="yes"/>
      <point x="266.29999999999995" y="613.8000000000001" type="line" smooth="yes"/>
      <point x="271.70000000000005" y="639.4"/>
      <point x="274.0" y="656.6"/>
      <point x="274.0" y="678.1" type="curve" smooth="yes"/>
      <point x="274.0" y="724.4"/>
      <point x="250.3" y="760.0"/>
      <point x="194.29999999999998" y="760.0" type="curve" smooth="yes"/>
      <point x="170.6" y="760.0" type="line"/>
      <point x="164.9" y="736.4000000000001" type="line"/>
      <point x="189.60000000000002" y="736.4000000000001" type="line" smooth="yes"/>
      <point x="231.70000000000002" y="736.4000000000001"/>
      <point x="247.4" y="717.6"/>
      <point x="247.4" y="678.1" type="curve" smooth="yes"/>
      <point x="247.4" y="655.9"/>
      <point x="243.70000000000002" y="636.3"/>
      <point x="239.0" y="613.8" type="curve" smooth="yes"/>
      <point x="204.20000000000002" y="453.2" type="line" smooth="yes"/>
      <point x="200.6" y="435.1"/>
      <point x="197.6" y="413.7"/>
      <point x="197.6" y="397.3" type="curve" smooth="yes"/>
      <point x="197.6" y="356.7"/>
      <point x="214.4" y="329.1"/>
      <point x="252.3" y="316.7" type="curve"/>
      <point x="252.3" y="314.4" type="line"/>
      <point x="197.7" y="303.2"/>
      <point x="165.0" y="271.9"/>
      <point x="149.7" y="200.0" type="curve" smooth="yes"/>
      <point x="108.5" y="7.100000000000001" type="line" smooth="yes"/>
      <point x="90.0" y="-79.5"/>
      <point x="68.39999999999999" y="-107.0"/>
      <point x="10.5" y="-107.0" type="curve" smooth="yes"/>
      <point x="-9.6" y="-107.0" type="line"/>
    </contour>
  </outline>
</glyph>
<glyph name="asciitilde" format="2">
  <advance width="465.2"/>
  <unicode hex="007E"/>
  <outline>
    <contour>
      <point x="63.300000000000004" y="277.0" type="curve"/>
      <point x="91.9" y="277.0" type="line"/>
      <point x="104.0" y="356.7"/>
      <point x="114.9" y="408.7"/>
      <point x="156.9" y="408.7" type="curve" smooth="yes"/>
      <point x="185.70000000000002" y="408.7"/>
      <point x="203.8" y="385.90000000000003"/>
      <point x="236.4" y="343.20000000000005" type="curve" smooth="yes"/>
      <point x="269.4" y="299.79999999999995"/>
      <point x="294.6" y="277.7"/>
      <point x="330.0" y="277.7" type="curve" smooth="yes"/>
      <point x="401.2" y="277.7"/>
      <point x="415.09999999999997" y="371.9"/>
      <point x="424.0" y="435.3" type="curve"/>
      <point x="395.1" y="435.3" type="line"/>
      <point x="383.3" y="361.6"/>
      <point x="372.59999999999997" y="305.0"/>
      <point x="330.0" y="305.0" type="curve" smooth="yes"/>
      <point x="305.4" y="305.0"/>
      <point x="286.3" y="322.5"/>
      <point x="252.6" y="367.0" type="curve" smooth="yes"/>
      <point x="219.29999999999998" y="411.09999999999997"/>
      <point x="195.0" y="436.0"/>
      <point x="156.9" y="436.0" type="curve" smooth="yes"/>
      <point x="84.8" y="436.0"/>
      <point x="73.4" y="343.1"/>
    </contour>
  </outline>
</glyph>
<glyph name="twosuperior" format="2">
  <advance width="334.5"/>
  <unicode hex="00B2"/>
  <outline>
    <contour>
      <point x="62.39999999999999" y="386.3" type="line"/>
      <point x="293.2" y="386.3" type="line"/>
      <point x="317.4" y="477.2" type="line"/>
      <point x="296.8" y="477.2" type="line"/>
      <point x="291.0" y="459.2" type="line" smooth="yes"/>
      <point x="277.0" y="414.9"/>
      <point x="273.8" y="410.59999999999997"/>
      <point x="235.29999999999998" y="410.59999999999997" type="curve" smooth="yes"/>
      <point x="108.5" y="410.59999999999997" type="line"/>
      <point x="205.39999999999998" y="503.9" type="line" smooth="yes"/>
      <point x="310.7" y="604.4"/>
      <point x="344.8" y="655.8000000000001"/>
      <point x="344.8" y="721.1999999999999" type="curve" smooth="yes"/>
      <point x="344.8" y="782.6"/>
      <point x="307.5" y="821.5"/>
      <point x="244.10000000000002" y="821.5" type="curve" smooth="yes"/>
      <point x="165.8" y="821.5"/>
      <point x="123.8" y="754.2"/>
      <point x="123.8" y="715.6" type="curve" smooth="yes"/>
      <point x="123.8" y="696.3"/>
      <point x="129.70000000000002" y="687.5999999999999"/>
      <point x="149.1" y="687.5999999999999" type="curve"/>
      <point x="149.1" y="747.3"/>
      <point x="182.89999999999998" y="797.2"/>
      <point x="243.40000000000003" y="797.2" type="curve" smooth="yes"/>
      <point x="286.5" y="797.2"/>
      <point x="317.5" y="774.4"/>
      <point x="317.5" y="721.9" type="curve" smooth="yes"/>
      <point x="317.5" y="658.1999999999999"/>
      <point x="282.2" y="609.1"/>
      <point x="182.4" y="513.0999999999999" type="curve" smooth="yes"/>
      <point x="66.4" y="400.5" type="line"/>
    </contour>
  </outline>
</glyph>
<glyph name="threesuperior" format="2">
  <advance width="334.5"/>
  <unicode hex="00B3"/>
  <outline>
    <contour>
      <point x="180.29999999999998" y="378.6" type="curve" smooth="yes"/>
      <point x="263.2" y="378.6"/>
      <point x="326.9" y="432.59999999999997"/>
      <point x="326.9" y="513.6" type="curve" smooth="yes"/>
      <point x="326.9" y="562.3"/>
      <point x="298.6" y="600.0"/>
      <point x="253.59999999999997" y="608.8000000000001" type="curve"/>
      <point x="252.89999999999998" y="610.4" type="line"/>
      <point x="318.0" y="622.8000000000001"/>
      <point x="357.5" y="666.4"/>
      <point x="357.5" y="726.8" type="curve" smooth="yes"/>
      <point x="357.5" y="783.6999999999999"/>
      <point x="316.3" y="821.2"/>
      <point x="252.9" y="821.2" type="curve" smooth="yes"/>
      <point x="173.5" y="821.2"/>
      <point x="126.39999999999999" y="769.9"/>
      <point x="126.39999999999999" y="724.1" type="curve" smooth="yes"/>
      <point x="126.39999999999999" y="703.4"/>
      <point x="134.2" y="699.0"/>
      <point x="149.89999999999998" y="699.0" type="curve"/>
      <point x="153.20000000000002" y="765.1"/>
      <point x="190.5" y="796.9"/>
      <point x="251.2" y="796.9" type="curve" smooth="yes"/>
      <point x="299.3" y="796.9"/>
      <point x="329.9" y="770.4000000000001"/>
      <point x="329.9" y="725.9" type="curve" smooth="yes"/>
      <point x="329.9" y="669.1"/>
      <point x="288.59999999999997" y="622.5"/>
      <point x="199.6" y="622.5" type="curve" smooth="yes"/>
      <point x="169.7" y="622.5" type="line"/>
      <point x="164.7" y="598.2" type="line"/>
      <point x="193.5" y="598.2" type="line" smooth="yes"/>
      <point x="267.1" y="598.2"/>
      <point x="299.6" y="565.1"/>
      <point x="299.6" y="513.3" type="curve" smooth="yes"/>
      <point x="299.6" y="445.2"/>
      <point x="250.49999999999997" y="402.9"/>
      <point x="182.2" y="402.9" type="curve" smooth="yes"/>
      <point x="119.49999999999999" y="402.9"/>
      <point x="94.10000000000001" y="429.6"/>
      <point x="100.0" y="502.4" type="curve"/>
      <point x="82.19999999999999" y="502.4"/>
      <point x="72.9" y="487.90000000000003"/>
      <point x="72.9" y="469.8" type="curve" smooth="yes"/>
      <point x="72.9" y="412.7"/>
      <point x="109.7" y="378.6"/>
    </contour>
  </outline>
</glyph>
<glyph name="multiply" format="2">
  <advance width="465.2"/>
  <unicode hex="00D7"/>
  <outline>
    <contour>
      <point x="90.3" y="147.89999999999998" type="line"/>
      <point x="248.20000000000002" y="339.1" type="line"/>
      <point x="406.1" y="147.89999999999998" type="line"/>
      <point x="428.2" y="166.20000000000002" type="line"/>
      <point x="266.8" y="361.2" type="line"/>
      <point x="428.2" y="557.9" type="line"/>
      <point x="407.1" y="575.8" type="line"/>
      <point x="248.20000000000002" y="384.0" type="line"/>
      <point x="89.6" y="575.5" type="line"/>
      <point x="68.5" y="557.6" type="line"/>
      <point x="229.9" y="361.2" type="line"/>
      <point x="68.8" y="166.5" type="line"/>
    </contour>
  </outline>
</glyph>
<glyph name="divide" format="2">
  <advance width="465.2"/>
  <unicode hex="00F7"/>
  <outline>
    <contour>
      <point x="65.7" y="343.7" type="line"/>
      <point x="421.90000000000003" y="343.7" type="line"/>
      <point x="421.90000000000003" y="371.7" type="line"/>
      <point x="65.7" y="371.7" type="line"/>
    </contour>
    <contour>
      <point x="244.3" y="135.6" type="curve" smooth="yes"/>
      <point x="262.8" y="135.6"/>
      <point x="276.9" y="144.5"/>
      <point x="276.9" y="173.4" type="curve" smooth="yes"/>
      <point x="276.9" y="204.3"/>
      <point x="262.8" y="212.9"/>
      <point x="244.3" y="212.9" type="curve" smooth="yes"/>
      <point x="224.8" y="212.9"/>
      <point x="212.39999999999998" y="204.3"/>
      <point x="212.39999999999998" y="173.4" type="curve" smooth="yes"/>
      <point x="212.39999999999998" y="144.5"/>
      <point x="224.8" y="135.6"/>
    </contour>
    <contour>
      <point x="244.3" y="504.9" type="curve" smooth="yes"/>
      <point x="262.8" y="504.9"/>
      <point x="276.9" y="513.8"/>
      <point x="276.9" y="543.0" type="curve" smooth="yes"/>
      <point x="276.9" y="573.5999999999999"/>
      <point x="262.8" y="582.1999999999999"/>
      <point x="244.3" y="582.1999999999999" type="curve" smooth="yes"/>
      <point x="224.8" y="582.1999999999999"/>
      <point x="212.39999999999998" y="573.5999999999999"/>
      <point x="212.39999999999998" y="543.0" type="curve" smooth="yes"/>
      <point x="212.39999999999998" y="513.8"/>
      <point x="224.8" y="504.9"/>
    </contour>
  </outline>
</glyph>
<glyph name="udatta-deva" format="2">
  <unicode hex="0951"/>
  <anchor x="56.0" y="542.0" name="_vedic"/>
  <outline>
    <contour>
      <point x="120.3" y="903.5" type="line"/>
      <point x="146.3" y="903.5" type="line"/>
      <point x="185.3" y="1087.5" type="line"/>
      <point x="159.29999999999998" y="1087.5" type="line"/>
    </contour>
  </outline>
</glyph>
<glyph name="anudatta-deva" format="2">
  <unicode hex="0952"/>
  <anchor x="-59.0" y="0.0" name="_bottom"/>
  <outline>
    <contour>
      <point x="-332.6" y="-449.7" type="line"/>
      <point x="23.5" y="-449.7" type="line"/>
      <point x="29.2" y="-425.7" type="line"/>
      <point x="-327.6" y="-425.7" type="line"/>
    </contour>
  </outline>
</glyph>
<glyph name="danda-deva" format="2">
  <advance width="253.0"/>
  <unicode hex="0964"/>
  <outline>
    <contour>
      <point x="55.0" y="0.0" type="line"/>
      <point x="83.0" y="0.0" type="line"/>
      <point x="198.70000000000002" y="542.0" type="line"/>
      <point x="170.0" y="542.0" type="line"/>
    </contour>
  </outline>
</glyph>
<glyph name="dbldanda-deva" format="2">
  <advance width="454.5"/>
  <unicode hex="0965"/>
  <outline>
    <contour>
      <point x="256.2" y="0.0" type="line"/>
      <point x="284.5" y="0.0" type="line"/>
      <point x="399.5" y="542.0" type="line"/>
      <point x="371.2" y="542.0" type="line"/>
    </contour>
    <contour>
      <point x="55.0" y="0.0" type="line"/>
      <point x="83.0" y="0.0" type="line"/>
      <point x="198.70000000000002" y="542.0" type="line"/>
      <point x="170.0" y="542.0" type="line"/>
    </contour>
  </outline>
</glyph>
<glyph name="anusvara-tamil" format="2">
  <unicode hex="0B82"/>
  <note>
uni0B82
</note>
  <anchor x="56.0" y="542.0" name="_top"/>
  <outline>
    <contour>
      <point x="100.3" y="650.0" type="curve" smooth="yes"/>
      <point x="153.5" y="650.0"/>
      <point x="189.70000000000002" y="689.1999999999999"/>
      <point x="189.70000000000002" y="740.4" type="curve" smooth="yes"/>
      <point x="189.70000000000002" y="791.3"/>
      <point x="153.5" y="831.2"/>
      <point x="100.3" y="831.2" type="curve" smooth="yes"/>
      <point x="47.1" y="831.2"/>
      <point x="10.9" y="791.3"/>
      <point x="10.9" y="740.4" type="curve" smooth="yes"/>
      <point x="10.9" y="689.1999999999999"/>
      <point x="47.1" y="650.0"/>
    </contour>
    <contour>
      <point x="100.3" y="674.7" type="curve" smooth="yes"/>
      <point x="62.800000000000004" y="674.7"/>
      <point x="37.199999999999996" y="702.9"/>
      <point x="37.199999999999996" y="740.4" type="curve" smooth="yes"/>
      <point x="37.199999999999996" y="777.6"/>
      <point x="62.800000000000004" y="806.5"/>
      <point x="100.3" y="806.5" type="curve" smooth="yes"/>
      <point x="137.79999999999998" y="806.5"/>
      <point x="163.4" y="777.6"/>
      <point x="163.4" y="740.4" type="curve" smooth="yes"/>
      <point x="163.4" y="702.9"/>
      <point x="137.79999999999998" y="674.7"/>
    </contour>
  </outline>
</glyph>
<glyph name="visarga-tamil" format="2">
  <advance width="692.0"/>
  <unicode hex="0B83"/>
  <note>
uni0B83
</note>
  <outline>
    <contour>
      <point x="123.80000000000001" y="0.0" type="curve" smooth="yes"/>
      <point x="225.5" y="0.0"/>
      <point x="284.4" y="123.19999999999999"/>
      <point x="284.4" y="236.7" type="curve" smooth="yes"/>
      <point x="284.4" y="311.6"/>
      <point x="250.0" y="362.0"/>
      <point x="187.6" y="362.0" type="curve" smooth="yes"/>
      <point x="89.0" y="362.0"/>
      <point x="30.9" y="236.5"/>
      <point x="30.9" y="120.0" type="curve" smooth="yes"/>
      <point x="30.9" y="49.300000000000004"/>
      <point x="61.6" y="0.0"/>
    </contour>
    <contour>
      <point x="124.80000000000001" y="26.0" type="curve" smooth="yes"/>
      <point x="78.5" y="26.0"/>
      <point x="55.1" y="64.4"/>
      <point x="55.1" y="120.60000000000001" type="curve" smooth="yes"/>
      <point x="55.1" y="215.6"/>
      <point x="102.60000000000001" y="337.0"/>
      <point x="184.2" y="337.0" type="curve" smooth="yes"/>
      <point x="234.10000000000002" y="337.0"/>
      <point x="258.1" y="296.40000000000003"/>
      <point x="258.1" y="238.5" type="curve" smooth="yes"/>
      <point x="258.1" y="140.5"/>
      <point x="210.1" y="26.0"/>
    </contour>
    <contour>
      <point x="460.90000000000003" y="0.0" type="curve" smooth="yes"/>
      <point x="562.6" y="0.0"/>
      <point x="621.5" y="123.19999999999999"/>
      <point x="621.5" y="236.7" type="curve" smooth="yes"/>
      <point x="621.5" y="311.6"/>
      <point x="587.1" y="362.0"/>
      <point x="524.6999999999999" y="362.0" type="curve" smooth="yes"/>
      <point x="426.09999999999997" y="362.0"/>
      <point x="368.0" y="236.5"/>
      <point x="368.0" y="120.0" type="curve" smooth="yes"/>
      <point x="368.0" y="49.300000000000004"/>
      <point x="398.7" y="0.0"/>
    </contour>
    <contour>
      <point x="461.9" y="26.0" type="curve" smooth="yes"/>
      <point x="415.6" y="26.0"/>
      <point x="392.2" y="64.4"/>
      <point x="392.2" y="120.60000000000001" type="curve" smooth="yes"/>
      <point x="392.2" y="215.6"/>
      <point x="439.7" y="337.0"/>
      <point x="521.3000000000001" y="337.0" type="curve" smooth="yes"/>
      <point x="571.1999999999999" y="337.0"/>
      <point x="595.1999999999999" y="296.40000000000003"/>
      <point x="595.1999999999999" y="238.5" type="curve" smooth="yes"/>
      <point x="595.1999999999999" y="140.5"/>
      <point x="547.1999999999999" y="26.0"/>
    </contour>
    <contour>
      <point x="372.5" y="404.0" type="curve" smooth="yes"/>
      <point x="474.20000000000005" y="404.0"/>
      <point x="533.1" y="527.2"/>
      <point x="533.1" y="640.7" type="curve" smooth="yes"/>
      <point x="533.1" y="715.6"/>
      <point x="498.7" y="766.0"/>
      <point x="436.29999999999995" y="766.0" type="curve" smooth="yes"/>
      <point x="337.7" y="766.0"/>
      <point x="279.59999999999997" y="640.5"/>
      <point x="279.59999999999997" y="524.0" type="curve" smooth="yes"/>
      <point x="279.59999999999997" y="453.3"/>
      <point x="310.3" y="404.0"/>
    </contour>
    <contour>
      <point x="373.5" y="430.0" type="curve" smooth="yes"/>
      <point x="327.20000000000005" y="430.0"/>
      <point x="303.8" y="468.4"/>
      <point x="303.8" y="524.6" type="curve" smooth="yes"/>
      <point x="303.8" y="619.6"/>
      <point x="351.3" y="741.0"/>
      <point x="432.90000000000003" y="741.0" type="curve" smooth="yes"/>
      <point x="482.8" y="741.0"/>
      <point x="506.8" y="700.4"/>
      <point x="506.8" y="642.5" type="curve" smooth="yes"/>
      <point x="506.8" y="544.5"/>
      <point x="458.79999999999995" y="430.0"/>
    </contour>
  </outline>
</glyph>
<glyph name="a-tamil" format="2">
  <advance width="1019.8999999999999"/>
  <unicode hex="0B85"/>
  <note>
uni0B85
</note>
  <anchor x="433.79999999999995" y="0.0" name="bottom"/>
  <anchor x="285.0" y="-81.0" name="nukta"/>
  <anchor x="553.5" y="542.0" name="top"/>
  <anchor x="554.2" y="542.0" name="vedic"/>
  <outline>
    <contour>
      <point x="800.3" y="-144.1" type="line"/>
      <point x="828.6" y="-144.1" type="line"/>
      <point x="975.1" y="542.6" type="line"/>
      <point x="946.1" y="542.6" type="line"/>
      <point x="865.8000000000001" y="163.1" type="line"/>
      <point x="60.599999999999994" y="163.1" type="line" smooth="yes"/>
      <point x="19.200000000000003" y="163.1"/>
      <point x="-0.7999999999999998" y="135.6"/>
      <point x="-0.7999999999999998" y="97.39999999999999" type="curve" smooth="yes"/>
      <point x="-0.7999999999999998" y="23.0"/>
      <point x="107.5" y="-80.4"/>
      <point x="291.6" y="-80.4" type="curve" smooth="yes"/>
      <point x="550.0" y="-80.4"/>
      <point x="734.5" y="75.4"/>
      <point x="734.5" y="328.4" type="curve" smooth="yes"/>
      <point x="734.5" y="465.90000000000003"/>
      <point x="652.9000000000001" y="551.6"/>
      <point x="530.5" y="551.6" type="curve" smooth="yes"/>
      <point x="409.79999999999995" y="551.6"/>
      <point x="330.4" y="467.6"/>
      <point x="330.4" y="365.2" type="curve" smooth="yes"/>
      <point x="330.4" y="311.0"/>
      <point x="365.8" y="266.6"/>
      <point x="421.6" y="266.6" type="curve" smooth="yes"/>
      <point x="498.2" y="266.6"/>
      <point x="545.0999999999999" y="328.8"/>
      <point x="545.0999999999999" y="415.2" type="curve" smooth="yes"/>
      <point x="545.0999999999999" y="462.4"/>
      <point x="523.6999999999999" y="511.3"/>
      <point x="493.9" y="535.6" type="curve"/>
      <point x="466.4" y="531.3" type="line"/>
      <point x="500.3" y="500.7"/>
      <point x="517.0999999999999" y="456.9"/>
      <point x="517.0999999999999" y="416.7" type="curve" smooth="yes"/>
      <point x="517.0999999999999" y="350.3"/>
      <point x="486.3" y="291.6"/>
      <point x="422.9" y="291.6" type="curve" smooth="yes"/>
      <point x="383.1" y="291.6"/>
      <point x="358.4" y="325.7"/>
      <point x="358.4" y="369.5" type="curve" smooth="yes"/>
      <point x="358.4" y="453.2"/>
      <point x="421.6" y="527.6"/>
      <point x="526.8" y="527.6" type="curve" smooth="yes"/>
      <point x="635.8" y="527.6"/>
      <point x="704.9000000000001" y="447.59999999999997"/>
      <point x="704.9000000000001" y="326.2" type="curve" smooth="yes"/>
      <point x="704.9000000000001" y="95.7"/>
      <point x="530.9" y="-54.4"/>
      <point x="293.3" y="-54.4" type="curve" smooth="yes"/>
      <point x="133.6" y="-54.4"/>
      <point x="26.9" y="31.3"/>
      <point x="26.9" y="100.8" type="curve" smooth="yes"/>
      <point x="26.9" y="124.3"/>
      <point x="40.6" y="140.1"/>
      <point x="61.7" y="140.1" type="curve" smooth="yes"/>
      <point x="860.8000000000001" y="140.1" type="line"/>
    </contour>
  </outline>
</glyph>
<glyph name="aa-tamil" format="2">
  <advance width="1094.7"/>
  <unicode hex="0B86"/>
  <note>
uni0B86
</note>
  <anchor x="482.1" y="0.0" name="bottom"/>
  <anchor x="275.5" y="-81.0" name="nukta"/>
  <anchor x="601.5" y="542.0" name="top"/>
  <anchor x="601.8" y="542.0" name="vedic"/>
  <outline>
    <contour>
      <point x="645.2" y="-387.9" type="curve" smooth="yes"/>
      <point x="800.5" y="-387.9"/>
      <point x="993.6" y="-258.59999999999997"/>
      <point x="993.6" y="-86.8" type="curve" smooth="yes"/>
      <point x="993.6" y="-28.2"/>
      <point x="961.6" y="1.0"/>
      <point x="919.6" y="1.0" type="curve" smooth="yes"/>
      <point x="877.1" y="1.0"/>
      <point x="842.9000000000001" y="-32.300000000000004"/>
      <point x="822.0" y="-102.4" type="curve"/>
      <point x="833.5" y="-112.4" type="line"/>
      <point x="848.8000000000001" y="-50.5"/>
      <point x="879.3000000000001" y="-26.0"/>
      <point x="915.2" y="-26.0" type="curve" smooth="yes"/>
      <point x="942.2" y="-26.0"/>
      <point x="964.3" y="-43.5"/>
      <point x="964.3" y="-87.5" type="curve" smooth="yes"/>
      <point x="964.3" y="-240.2"/>
      <point x="788.2" y="-360.2"/>
      <point x="646.9" y="-360.2" type="curve" smooth="yes"/>
      <point x="580.1999999999999" y="-360.2"/>
      <point x="535.0" y="-332.0"/>
      <point x="535.0" y="-276.1" type="curve" smooth="yes"/>
      <point x="535.0" y="-222.1"/>
      <point x="569.8" y="-190.29999999999998"/>
      <point x="627.4" y="-163.6" type="curve"/>
      <point x="618.6" y="-140.4" type="line"/>
      <point x="549.5" y="-172.1"/>
      <point x="507.0" y="-209.5"/>
      <point x="507.0" y="-277.09999999999997" type="curve" smooth="yes"/>
      <point x="507.0" y="-343.7"/>
      <point x="558.9" y="-387.9"/>
    </contour>
    <component base="a-tamil"/>
  </outline>
</glyph>
<glyph name="i-tamil" format="2">
  <advance width="775.0999999999999"/>
  <unicode hex="0B87"/>
  <note>
uni0B87
</note>
  <anchor x="318.40000000000003" y="0.0" name="bottom"/>
  <anchor x="269.9" y="-244.5" name="nukta"/>
  <anchor x="456.1" y="777.3000000000001" name="top"/>
  <anchor x="421.20000000000005" y="542.0" name="vedic"/>
  <outline>
    <contour>
      <point x="81.0" y="-278.0" type="curve" smooth="yes"/>
      <point x="314.8" y="-278.0"/>
      <point x="585.1" y="85.8"/>
      <point x="585.1" y="359.4" type="curve" smooth="yes"/>
      <point x="585.1" y="474.59999999999997"/>
      <point x="524.5" y="551.0"/>
      <point x="416.7" y="551.0" type="curve" smooth="yes"/>
      <point x="311.40000000000003" y="551.0"/>
      <point x="234.4" y="467.1"/>
      <point x="234.4" y="366.5" type="curve" smooth="yes"/>
      <point x="234.4" y="309.1"/>
      <point x="267.5" y="266.0"/>
      <point x="321.5" y="266.0" type="curve" smooth="yes"/>
      <point x="398.29999999999995" y="266.0"/>
      <point x="446.5" y="333.09999999999997"/>
      <point x="446.5" y="413.3" type="curve" smooth="yes"/>
      <point x="446.5" y="463.9"/>
      <point x="426.2" y="509.90000000000003"/>
      <point x="395.3" y="535.0" type="curve"/>
      <point x="369.90000000000003" y="530.0" type="line"/>
      <point x="403.5" y="499.29999999999995"/>
      <point x="419.5" y="460.40000000000003"/>
      <point x="419.5" y="416.79999999999995" type="curve" smooth="yes"/>
      <point x="419.5" y="351.1"/>
      <point x="382.0" y="291.0"/>
      <point x="322.2" y="291.0" type="curve" smooth="yes"/>
      <point x="286.5" y="291.0"/>
      <point x="261.3" y="325.2"/>
      <point x="261.3" y="367.5" type="curve" smooth="yes"/>
      <point x="261.3" y="452.0"/>
      <point x="323.7" y="527.0"/>
      <point x="413.3" y="527.0" type="curve" smooth="yes"/>
      <point x="507.9" y="527.0"/>
      <point x="556.4000000000001" y="457.6"/>
      <point x="556.4000000000001" y="354.0" type="curve" smooth="yes"/>
      <point x="556.4000000000001" y="104.9"/>
      <point x="299.3" y="-252.0"/>
      <point x="83.5" y="-252.0" type="curve" smooth="yes"/>
      <point x="21.200000000000003" y="-252.0"/>
      <point x="-11.2" y="-214.4"/>
      <point x="-11.2" y="-158.20000000000002" type="curve" smooth="yes"/>
      <point x="-11.2" y="-22.3"/>
      <point x="143.20000000000002" y="80.0"/>
      <point x="312.1" y="80.0" type="curve" smooth="yes"/>
      <point x="462.6" y="80.0"/>
      <point x="592.6999999999999" y="-1.3000000000000007"/>
      <point x="592.6999999999999" y="-125.6" type="curve" smooth="yes"/>
      <point x="592.6999999999999" y="-205.5"/>
      <point x="541.4" y="-252.0"/>
      <point x="460.6" y="-252.0" type="curve" smooth="yes"/>
      <point x="304.29999999999995" y="-252.0"/>
      <point x="106.8" y="23.5"/>
      <point x="106.8" y="317.59999999999997" type="curve" smooth="yes"/>
      <point x="106.8" y="532.1"/>
      <point x="223.4" y="746.3"/>
      <point x="450.6" y="746.3" type="curve" smooth="yes"/>
      <point x="652.9" y="746.3"/>
      <point x="751.6999999999999" y="585.0"/>
      <point x="703.3" y="353.5" type="curve" smooth="yes"/>
      <point x="651.6" y="108.0" type="line"/>
      <point x="676.3" y="108.0" type="line"/>
      <point x="728.7" y="353.5" type="line" smooth="yes"/>
      <point x="783.1" y="606.9000000000001"/>
      <point x="670.1" y="777.3000000000001"/>
      <point x="456.1" y="777.3000000000001" type="curve" smooth="yes"/>
      <point x="208.2" y="777.3000000000001"/>
      <point x="80.2" y="552.5"/>
      <point x="80.2" y="319.2" type="curve" smooth="yes"/>
      <point x="80.2" y="15.100000000000001"/>
      <point x="282.9" y="-278.0"/>
      <point x="462.0" y="-278.0" type="curve" smooth="yes"/>
      <point x="556.8" y="-278.0"/>
      <point x="620.3000000000001" y="-221.4"/>
      <point x="620.3000000000001" y="-121.60000000000001" type="curve" smooth="yes"/>
      <point x="620.3000000000001" y="16.7"/>
      <point x="480.8" y="105.0"/>
      <point x="313.1" y="105.0" type="curve" smooth="yes"/>
      <point x="136.2" y="105.0"/>
      <point x="-39.8" y="-5.699999999999999"/>
      <point x="-39.8" y="-163.9" type="curve" smooth="yes"/>
      <point x="-39.8" y="-232.1"/>
      <point x="8.0" y="-278.0"/>
    </contour>
  </outline>
</glyph>
<glyph name="ii-tamil" format="2">
  <advance width="599.7"/>
  <unicode hex="0B88"/>
  <note>
uni0B88
</note>
  <anchor x="260.3" y="0.0" name="bottom"/>
  <anchor x="260.6" y="0.0" name="nukta"/>
  <anchor x="379.0" y="542.0" name="top"/>
  <anchor x="379.0" y="542.0" name="vedic"/>
  <outline>
    <contour>
      <point x="45.10000000000001" y="0.0" type="line"/>
      <point x="70.8" y="0.0" type="line"/>
      <point x="180.79999999999998" y="519.0" type="line"/>
      <point x="420.7" y="519.0" type="line"/>
      <point x="309.70000000000005" y="0.0" type="line"/>
      <point x="339.40000000000003" y="0.0" type="line"/>
      <point x="449.40000000000003" y="519.0" type="line"/>
      <point x="609.6999999999999" y="519.0" type="line"/>
      <point x="614.6999999999999" y="542.0" type="line"/>
      <point x="160.79999999999998" y="542.0" type="line"/>
    </contour>
    <contour>
      <point x="243.29999999999998" y="229.79999999999998" type="curve" smooth="yes"/>
      <point x="261.6" y="229.79999999999998"/>
      <point x="275.8" y="243.7"/>
      <point x="275.8" y="261.0" type="curve" smooth="yes"/>
      <point x="275.8" y="277.6"/>
      <point x="261.6" y="292.90000000000003"/>
      <point x="243.29999999999998" y="292.90000000000003" type="curve" smooth="yes"/>
      <point x="225.0" y="292.90000000000003"/>
      <point x="211.1" y="277.6"/>
      <point x="211.1" y="261.0" type="curve" smooth="yes"/>
      <point x="211.1" y="243.7"/>
      <point x="225.0" y="229.79999999999998"/>
    </contour>
    <contour>
      <point x="515.5" y="229.79999999999998" type="curve" smooth="yes"/>
      <point x="533.8" y="229.79999999999998"/>
      <point x="548.0" y="243.7"/>
      <point x="548.0" y="261.0" type="curve" smooth="yes"/>
      <point x="548.0" y="277.6"/>
      <point x="533.8" y="292.90000000000003"/>
      <point x="515.5" y="292.90000000000003" type="curve" smooth="yes"/>
      <point x="497.20000000000005" y="292.90000000000003"/>
      <point x="483.3" y="277.6"/>
      <point x="483.3" y="261.0" type="curve" smooth="yes"/>
      <point x="483.3" y="243.7"/>
      <point x="497.20000000000005" y="229.79999999999998"/>
    </contour>
  </outline>
</glyph>
<glyph name="u-tamil" format="2">
  <advance width="836.8"/>
  <unicode hex="0B89"/>
  <note>
uni0B89
</note>
  <anchor x="376.7" y="0.0" name="bottom"/>
  <anchor x="376.70000000000005" y="0.0" name="nukta"/>
  <anchor x="493.7" y="542.0" name="top"/>
  <anchor x="494.0" y="542.0" name="vedic"/>
  <outline>
    <contour>
      <point x="89.39999999999999" y="0.0" type="curve" smooth="yes"/>
      <point x="752.5" y="0.0" type="line"/>
      <point x="757.2" y="23.0" type="line"/>
      <point x="92.1" y="23.0" type="line" smooth="yes"/>
      <point x="53.900000000000006" y="23.0"/>
      <point x="32.900000000000006" y="48.6"/>
      <point x="32.900000000000006" y="81.4" type="curve" smooth="yes"/>
      <point x="32.900000000000006" y="121.3"/>
      <point x="62.800000000000004" y="146.0"/>
      <point x="107.10000000000001" y="146.0" type="curve" smooth="yes"/>
      <point x="289.3" y="146.0" type="line" smooth="yes"/>
      <point x="430.3" y="146.0"/>
      <point x="532.1999999999999" y="238.6"/>
      <point x="532.1999999999999" y="378.0" type="curve" smooth="yes"/>
      <point x="532.1999999999999" y="492.59999999999997"/>
      <point x="454.4" y="551.0"/>
      <point x="349.8" y="551.0" type="curve" smooth="yes"/>
      <point x="238.79999999999998" y="551.0"/>
      <point x="149.79999999999998" y="468.59999999999997"/>
      <point x="149.79999999999998" y="365.5" type="curve" smooth="yes"/>
      <point x="149.79999999999998" y="310.79999999999995"/>
      <point x="183.0" y="266.0"/>
      <point x="239.89999999999998" y="266.0" type="curve" smooth="yes"/>
      <point x="313.29999999999995" y="266.0"/>
      <point x="365.0" y="324.3"/>
      <point x="365.0" y="407.1" type="curve" smooth="yes"/>
      <point x="365.0" y="463.3"/>
      <point x="344.2" y="504.40000000000003"/>
      <point x="315.09999999999997" y="535.0" type="curve"/>
      <point x="288.6" y="530.0" type="line"/>
      <point x="322.5" y="492.8"/>
      <point x="338.0" y="455.70000000000005"/>
      <point x="338.0" y="406.9" type="curve" smooth="yes"/>
      <point x="338.0" y="341.7"/>
      <point x="296.5" y="291.0"/>
      <point x="240.2" y="291.0" type="curve" smooth="yes"/>
      <point x="199.0" y="291.0"/>
      <point x="176.4" y="326.1"/>
      <point x="176.4" y="367.8" type="curve" smooth="yes"/>
      <point x="176.4" y="455.6"/>
      <point x="251.0" y="527.0"/>
      <point x="347.5" y="527.0" type="curve" smooth="yes"/>
      <point x="436.90000000000003" y="527.0"/>
      <point x="502.5" y="476.8"/>
      <point x="502.5" y="378.09999999999997" type="curve" smooth="yes"/>
      <point x="502.5" y="256.2"/>
      <point x="415.8" y="170.0"/>
      <point x="288.0" y="170.0" type="curve" smooth="yes"/>
      <point x="110.0" y="170.0" type="line" smooth="yes"/>
      <point x="49.0" y="170.0"/>
      <point x="7.300000000000001" y="135.70000000000002"/>
      <point x="7.300000000000001" y="79.10000000000001" type="curve" smooth="yes"/>
      <point x="7.300000000000001" y="36.6"/>
      <point x="35.2" y="0.0"/>
    </contour>
  </outline>
</glyph>
<glyph name="uu-tamil" format="2">
  <advance width="1309.2"/>
  <unicode hex="0B8A"/>
  <note>
uni0B8A
</note>
  <anchor x="640.6" y="0.0" name="bottom"/>
  <anchor x="641.6" y="0.0" name="nukta"/>
  <anchor x="758.6" y="542.0" name="top"/>
  <anchor x="758.6" y="542.0" name="vedic"/>
  <outline>
    <contour>
      <point x="89.39999999999999" y="0.0" type="curve" smooth="yes"/>
      <point x="1232.3" y="0.0" type="line"/>
      <point x="1237.0" y="23.0" type="line"/>
      <point x="92.1" y="23.0" type="line" smooth="yes"/>
      <point x="53.900000000000006" y="23.0"/>
      <point x="32.900000000000006" y="48.6"/>
      <point x="32.900000000000006" y="81.4" type="curve" smooth="yes"/>
      <point x="32.900000000000006" y="121.3"/>
      <point x="62.800000000000004" y="146.0"/>
      <point x="107.10000000000001" y="146.0" type="curve" smooth="yes"/>
      <point x="289.3" y="146.0" type="line" smooth="yes"/>
      <point x="430.3" y="146.0"/>
      <point x="532.1999999999999" y="238.6"/>
      <point x="532.1999999999999" y="378.0" type="curve" smooth="yes"/>
      <point x="532.1999999999999" y="492.59999999999997"/>
      <point x="454.4" y="551.0"/>
      <point x="349.8" y="551.0" type="curve" smooth="yes"/>
      <point x="238.79999999999998" y="551.0"/>
      <point x="149.79999999999998" y="468.59999999999997"/>
      <point x="149.79999999999998" y="365.5" type="curve" smooth="yes"/>
      <point x="149.79999999999998" y="310.79999999999995"/>
      <point x="183.0" y="266.0"/>
      <point x="239.89999999999998" y="266.0" type="curve" smooth="yes"/>
      <point x="313.29999999999995" y="266.0"/>
      <point x="365.0" y="324.3"/>
      <point x="365.0" y="407.1" type="curve" smooth="yes"/>
      <point x="365.0" y="463.3"/>
      <point x="344.2" y="504.40000000000003"/>
      <point x="315.09999999999997" y="535.0" type="curve"/>
      <point x="288.6" y="530.0" type="line"/>
      <point x="322.5" y="492.8"/>
      <point x="338.0" y="455.70000000000005"/>
      <point x="338.0" y="406.9" type="curve" smooth="yes"/>
      <point x="338.0" y="341.7"/>
      <point x="296.5" y="291.0"/>
      <point x="240.2" y="291.0" type="curve" smooth="yes"/>
      <point x="199.0" y="291.0"/>
      <point x="176.4" y="326.1"/>
      <point x="176.4" y="367.8" type="curve" smooth="yes"/>
      <point x="176.4" y="455.6"/>
      <point x="251.0" y="527.0"/>
      <point x="347.5" y="527.0" type="curve" smooth="yes"/>
      <point x="436.90000000000003" y="527.0"/>
      <point x="502.5" y="476.8"/>
      <point x="502.5" y="378.09999999999997" type="curve" smooth="yes"/>
      <point x="502.5" y="256.2"/>
      <point x="415.8" y="170.0"/>
      <point x="288.0" y="170.0" type="curve" smooth="yes"/>
      <point x="110.0" y="170.0" type="line" smooth="yes"/>
      <point x="49.0" y="170.0"/>
      <point x="7.300000000000001" y="135.70000000000002"/>
      <point x="7.300000000000001" y="79.10000000000001" type="curve" smooth="yes"/>
      <point x="7.300000000000001" y="36.6"/>
      <point x="35.2" y="0.0"/>
    </contour>
    <contour>
      <point x="703.5" y="104.0" type="curve" smooth="yes"/>
      <point x="779.0" y="104.0"/>
      <point x="837.1" y="169.8"/>
      <point x="837.1" y="260.1" type="curve" smooth="yes"/>
      <point x="837.1" y="327.5"/>
      <point x="800.1" y="371.3"/>
      <point x="741.1999999999999" y="371.3" type="curve" smooth="yes"/>
      <point x="681.4" y="371.3"/>
      <point x="634.2" y="324.1"/>
      <point x="604.5" y="257.8" type="curve"/>
      <point x="610.0" y="231.7" type="line"/>
      <point x="643.0" y="301.0"/>
      <point x="684.0" y="347.0"/>
      <point x="736.6" y="347.0" type="curve" smooth="yes"/>
      <point x="783.4" y="347.0"/>
      <point x="809.8" y="315.2"/>
      <point x="809.8" y="259.5" type="curve" smooth="yes"/>
      <point x="809.8" y="187.6"/>
      <point x="764.9000000000001" y="129.0"/>
      <point x="703.8" y="129.0" type="curve" smooth="yes"/>
      <point x="645.5" y="129.0"/>
      <point x="613.0" y="185.2"/>
      <point x="613.3" y="255.00000000000003" type="curve" smooth="yes"/>
      <point x="613.6" y="381.0"/>
      <point x="694.9" y="527.0"/>
      <point x="827.5" y="527.0" type="curve" smooth="yes"/>
      <point x="925.9000000000001" y="527.0"/>
      <point x="985.8" y="453.70000000000005"/>
      <point x="960.8" y="335.5" type="curve"/>
      <point x="982.8" y="336.5" type="line"/>
      <point x="1011.5" y="473.9"/>
      <point x="941.6999999999999" y="551.3"/>
      <point x="829.1999999999999" y="551.0" type="curve" smooth="yes"/>
      <point x="681.8" y="550.7"/>
      <point x="587.4" y="394.90000000000003"/>
      <point x="587.4" y="253.7" type="curve" smooth="yes"/>
      <point x="587.4" y="171.8"/>
      <point x="630.5" y="104.0"/>
    </contour>
    <contour>
      <point x="912.3" y="107.0" type="line"/>
      <point x="940.0" y="107.0" type="line"/>
      <point x="1028.0" y="519.0" type="line"/>
      <point x="1204.2" y="519.0" type="line"/>
      <point x="1117.2" y="107.0" type="line"/>
      <point x="1144.5" y="107.0" type="line"/>
      <point x="1232.1999999999998" y="519.0" type="line"/>
      <point x="1343.7" y="519.0" type="line"/>
      <point x="1348.7" y="542.0" type="line"/>
      <point x="1005.0" y="542.0" type="line"/>
      <point x="977.6999999999999" y="415.1" type="line"/>
      <point x="973.0" y="394.1" type="line"/>
    </contour>
  </outline>
</glyph>
<glyph name="e-tamil" format="2">
  <advance width="679.9"/>
  <unicode hex="0B8E"/>
  <note>
uni0B8E
</note>
  <anchor x="297.09999999999997" y="0.0" name="bottom"/>
  <anchor x="298.09999999999997" y="0.0" name="nukta"/>
  <anchor x="414.40000000000003" y="542.0" name="top"/>
  <anchor x="415.09999999999997" y="542.0" name="vedic"/>
  <outline>
    <contour>
      <point x="170.0" y="-4.0" type="curve" smooth="yes"/>
      <point x="246.79999999999998" y="-4.0"/>
      <point x="307.90000000000003" y="63.300000000000004"/>
      <point x="307.90000000000003" y="162.0" type="curve" smooth="yes"/>
      <point x="307.90000000000003" y="239.5"/>
      <point x="265.09999999999997" y="283.0"/>
      <point x="204.5" y="283.0" type="curve" smooth="yes"/>
      <point x="132.9" y="283.0"/>
      <point x="82.9" y="226.2"/>
      <point x="54.300000000000004" y="163.79999999999998" type="curve"/>
      <point x="61.8" y="136.0" type="line"/>
      <point x="97.1" y="206.20000000000002"/>
      <point x="137.2" y="258.0"/>
      <point x="199.6" y="258.0" type="curve" smooth="yes"/>
      <point x="252.10000000000002" y="258.0"/>
      <point x="279.59999999999997" y="224.9"/>
      <point x="279.59999999999997" y="159.29999999999998" type="curve" smooth="yes"/>
      <point x="279.59999999999997" y="78.3"/>
      <point x="230.2" y="21.0"/>
      <point x="172.0" y="21.0" type="curve" smooth="yes"/>
      <point x="107.8" y="21.0"/>
      <point x="66.0" y="74.0"/>
      <point x="66.0" y="170.0" type="curve" smooth="yes"/>
      <point x="66.0" y="334.90000000000003"/>
      <point x="160.8" y="519.0"/>
      <point x="351.40000000000003" y="519.0" type="curve" smooth="yes"/>
      <point x="545.6" y="519.0" type="line"/>
      <point x="435.6" y="0.0" type="line"/>
      <point x="463.6" y="0.0" type="line"/>
      <point x="574.3" y="519.0" type="line"/>
      <point x="706.9" y="519.0" type="line"/>
      <point x="711.9" y="542.0" type="line"/>
      <point x="352.3" y="542.0" type="line" smooth="yes"/>
      <point x="140.2" y="542.0"/>
      <point x="39.7" y="346.59999999999997"/>
      <point x="39.7" y="168.7" type="curve" smooth="yes"/>
      <point x="39.7" y="59.7"/>
      <point x="91.0" y="-4.0"/>
    </contour>
  </outline>
</glyph>
<glyph name="ee-tamil" format="2">
  <advance width="695.3"/>
  <unicode hex="0B8F"/>
  <note>
uni0B8F
</note>
  <anchor x="297.09999999999997" y="0.0" name="bottom"/>
  <anchor x="259.9" y="-178.2" name="nukta"/>
  <anchor x="415.5" y="542.0" name="top"/>
  <anchor x="415.09999999999997" y="542.0" name="vedic"/>
  <outline>
    <contour>
      <point x="272.0" y="-198.9" type="line"/>
      <point x="463.6" y="-1.6000000000000005" type="line"/>
      <point x="574.6" y="519.0" type="line"/>
      <point x="722.3000000000001" y="519.0" type="line"/>
      <point x="727.3" y="542.0" type="line"/>
      <point x="352.3" y="542.0" type="line" smooth="yes"/>
      <point x="140.2" y="542.0"/>
      <point x="39.7" y="346.59999999999997"/>
      <point x="39.7" y="168.7" type="curve" smooth="yes"/>
      <point x="39.7" y="59.7"/>
      <point x="90.7" y="-4.0"/>
      <point x="169.7" y="-4.0" type="curve" smooth="yes"/>
      <point x="246.5" y="-4.0"/>
      <point x="307.90000000000003" y="63.300000000000004"/>
      <point x="307.90000000000003" y="162.0" type="curve" smooth="yes"/>
      <point x="307.90000000000003" y="239.2"/>
      <point x="265.09999999999997" y="283.0"/>
      <point x="204.5" y="283.0" type="curve" smooth="yes"/>
      <point x="132.9" y="283.0"/>
      <point x="82.9" y="226.2"/>
      <point x="54.300000000000004" y="163.79999999999998" type="curve"/>
      <point x="61.8" y="136.0" type="line"/>
      <point x="97.1" y="206.20000000000002"/>
      <point x="137.2" y="258.0"/>
      <point x="199.6" y="258.0" type="curve" smooth="yes"/>
      <point x="252.10000000000002" y="258.0"/>
      <point x="279.59999999999997" y="224.9"/>
      <point x="279.59999999999997" y="159.29999999999998" type="curve" smooth="yes"/>
      <point x="279.59999999999997" y="78.3"/>
      <point x="229.89999999999998" y="21.0"/>
      <point x="171.70000000000002" y="21.0" type="curve" smooth="yes"/>
      <point x="107.5" y="21.0"/>
      <point x="66.0" y="74.0"/>
      <point x="66.0" y="170.0" type="curve" smooth="yes"/>
      <point x="66.0" y="334.90000000000003"/>
      <point x="160.8" y="519.0"/>
      <point x="351.40000000000003" y="519.0" type="curve" smooth="yes"/>
      <point x="546.3" y="519.0" type="line"/>
      <point x="437.6" y="8.600000000000001" type="line"/>
      <point x="253.6" y="-181.0" type="line"/>
    </contour>
  </outline>
</glyph>
<glyph name="ai-tamil" format="2">
  <advance width="764.8"/>
  <unicode hex="0B90"/>
  <note>
uni0B90
</note>
  <anchor x="336.5" y="0.0" name="bottom"/>
  <anchor x="276.8" y="-278.0" name="nukta"/>
  <anchor x="455.6" y="542.0" name="top"/>
  <anchor x="456.6" y="542.0" name="vedic"/>
  <outline>
    <contour>
      <point x="120.00000000000001" y="-278.0" type="curve" smooth="yes"/>
      <point x="212.6" y="-278.0"/>
      <point x="271.1" y="-221.6"/>
      <point x="308.5" y="-155.7" type="curve"/>
      <point x="315.8" y="-221.2"/>
      <point x="355.4" y="-278.0"/>
      <point x="439.8" y="-278.0" type="curve" smooth="yes"/>
      <point x="557.9000000000001" y="-278.0"/>
      <point x="637.1" y="-174.8"/>
      <point x="637.1" y="-52.4" type="curve" smooth="yes"/>
      <point x="637.1" y="-2.200000000000001"/>
      <point x="626.0" y="39.800000000000004"/>
      <point x="608.9" y="77.9" type="curve"/>
      <point x="581.9000000000001" y="64.3" type="line"/>
      <point x="596.8" y="33.4"/>
      <point x="607.8" y="-6.8999999999999995"/>
      <point x="607.8" y="-54.0" type="curve" smooth="yes"/>
      <point x="607.8" y="-159.6"/>
      <point x="540.0" y="-254.0"/>
      <point x="440.7" y="-254.0" type="curve" smooth="yes"/>
      <point x="347.59999999999997" y="-254.0"/>
      <point x="318.7" y="-180.10000000000002"/>
      <point x="339.3" y="-83.0" type="curve" smooth="yes"/>
      <point x="355.2" y="-8.0" type="line"/>
      <point x="328.4" y="-8.0" type="line"/>
      <point x="311.70000000000005" y="-86.0" type="line" smooth="yes"/>
      <point x="296.1" y="-157.5"/>
      <point x="224.5" y="-254.0"/>
      <point x="123.6" y="-254.0" type="curve" smooth="yes"/>
      <point x="50.7" y="-254.0"/>
      <point x="10.400000000000002" y="-206.9"/>
      <point x="10.400000000000002" y="-124.1" type="curve" smooth="yes"/>
      <point x="10.400000000000002" y="36.1"/>
      <point x="138.9" y="74.2"/>
      <point x="357.6" y="98.69999999999999" type="curve" smooth="yes"/>
      <point x="586.8" y="124.6"/>
      <point x="727.8" y="202.0"/>
      <point x="727.8" y="393.7" type="curve" smooth="yes"/>
      <point x="727.8" y="493.90000000000003"/>
      <point x="671.6999999999999" y="551.0"/>
      <point x="590.3000000000001" y="551.0" type="curve" smooth="yes"/>
      <point x="506.8" y="551.0"/>
      <point x="457.4" y="492.4"/>
      <point x="428.40000000000003" y="429.4" type="curve"/>
      <point x="417.3" y="495.0"/>
      <point x="370.2" y="551.0"/>
      <point x="277.8" y="551.0" type="curve" smooth="yes"/>
      <point x="146.9" y="551.0"/>
      <point x="63.599999999999994" y="427.3"/>
      <point x="63.599999999999994" y="300.7" type="curve" smooth="yes"/>
      <point x="63.599999999999994" y="219.8"/>
      <point x="100.80000000000001" y="164.0"/>
      <point x="163.4" y="164.0" type="curve" smooth="yes"/>
      <point x="230.9" y="164.0"/>
      <point x="282.0" y="223.6"/>
      <point x="282.0" y="301.59999999999997" type="curve" smooth="yes"/>
      <point x="282.0" y="360.40000000000003"/>
      <point x="250.6" y="398.0"/>
      <point x="198.6" y="398.0" type="curve" smooth="yes"/>
      <point x="142.2" y="398.0"/>
      <point x="101.4" y="350.7"/>
      <point x="75.8" y="283.7" type="curve"/>
      <point x="84.60000000000001" y="264.8" type="line"/>
      <point x="117.0" y="335.09999999999997"/>
      <point x="150.79999999999998" y="374.0"/>
      <point x="192.89999999999998" y="374.0" type="curve" smooth="yes"/>
      <point x="233.29999999999998" y="374.0"/>
      <point x="254.7" y="347.0"/>
      <point x="254.7" y="298.20000000000005" type="curve" smooth="yes"/>
      <point x="254.7" y="241.1"/>
      <point x="219.5" y="190.0"/>
      <point x="164.4" y="190.0" type="curve" smooth="yes"/>
      <point x="113.80000000000001" y="190.0"/>
      <point x="89.19999999999999" y="233.5"/>
      <point x="89.19999999999999" y="301.7" type="curve" smooth="yes"/>
      <point x="89.19999999999999" y="408.2"/>
      <point x="158.79999999999998" y="526.0"/>
      <point x="274.2" y="526.0" type="curve" smooth="yes"/>
      <point x="366.5" y="526.0"/>
      <point x="423.9" y="460.3"/>
      <point x="402.0" y="357.4" type="curve" smooth="yes"/>
      <point x="370.40000000000003" y="208.0" type="line"/>
      <point x="397.2" y="208.0" type="line"/>
      <point x="429.3" y="361.09999999999997" type="line" smooth="yes"/>
      <point x="444.6" y="432.6"/>
      <point x="495.3" y="527.0"/>
      <point x="587.0" y="527.0" type="curve" smooth="yes"/>
      <point x="656.4000000000001" y="527.0"/>
      <point x="698.1999999999999" y="476.7"/>
      <point x="698.1999999999999" y="391.09999999999997" type="curve" smooth="yes"/>
      <point x="698.1999999999999" y="210.3"/>
      <point x="566.1" y="143.79999999999998"/>
      <point x="347.8" y="120.0" type="curve" smooth="yes"/>
      <point x="117.30000000000001" y="94.8"/>
      <point x="-18.6" y="46.0"/>
      <point x="-18.6" y="-126.1" type="curve" smooth="yes"/>
      <point x="-18.6" y="-221.7"/>
      <point x="36.6" y="-278.0"/>
    </contour>
  </outline>
</glyph>
<glyph name="o-tamil" format="2">
  <advance width="776.4"/>
  <unicode hex="0B92"/>
  <note>
uni0B92
</note>
  <anchor x="332.20000000000005" y="0.0" name="bottom"/>
  <anchor x="259.20000000000005" y="-335.0" name="nukta"/>
  <anchor x="436.6" y="542.0" name="top"/>
  <anchor x="436.29999999999995" y="542.0" name="vedic"/>
  <outline>
    <contour>
      <point x="184.4" y="-266.2" type="curve" smooth="yes"/>
      <point x="313.2" y="-266.2"/>
      <point x="371.2" y="-117.3"/>
      <point x="516.8" y="-117.3" type="curve" smooth="yes"/>
      <point x="532.1" y="-117.3" type="line"/>
      <point x="537.1" y="-93.3" type="line"/>
      <point x="512.2" y="-93.3" type="line" smooth="yes"/>
      <point x="345.2" y="-93.3"/>
      <point x="345.8" y="84.4"/>
      <point x="463.5" y="222.70000000000002" type="curve"/>
      <point x="467.09999999999997" y="220.1" type="line"/>
      <point x="409.5" y="109.69999999999999"/>
      <point x="418.8" y="-5.0"/>
      <point x="523.7" y="-5.0" type="curve" smooth="yes"/>
      <point x="635.8" y="-5.0"/>
      <point x="711.4" y="116.69999999999999"/>
      <point x="711.4" y="256.40000000000003" type="curve" smooth="yes"/>
      <point x="711.4" y="442.2"/>
      <point x="587.2" y="551.0"/>
      <point x="409.5" y="551.0" type="curve" smooth="yes"/>
      <point x="196.6" y="551.0"/>
      <point x="38.5" y="364.4"/>
      <point x="38.5" y="176.9" type="curve" smooth="yes"/>
      <point x="38.5" y="58.1"/>
      <point x="87.1" y="-4.0"/>
      <point x="166.1" y="-4.0" type="curve" smooth="yes"/>
      <point x="242.9" y="-4.0"/>
      <point x="306.7" y="62.7"/>
      <point x="306.7" y="162.0" type="curve" smooth="yes"/>
      <point x="306.7" y="239.5"/>
      <point x="263.9" y="283.0"/>
      <point x="203.3" y="283.0" type="curve" smooth="yes"/>
      <point x="131.7" y="283.0"/>
      <point x="81.69999999999999" y="226.2"/>
      <point x="53.1" y="163.79999999999998" type="curve"/>
      <point x="60.6" y="136.0" type="line"/>
      <point x="95.9" y="206.20000000000002"/>
      <point x="136.0" y="258.0"/>
      <point x="198.4" y="258.0" type="curve" smooth="yes"/>
      <point x="250.9" y="258.0"/>
      <point x="278.4" y="224.9"/>
      <point x="278.4" y="159.29999999999998" type="curve" smooth="yes"/>
      <point x="278.4" y="78.3"/>
      <point x="226.3" y="21.0"/>
      <point x="168.1" y="21.0" type="curve" smooth="yes"/>
      <point x="103.9" y="21.0"/>
      <point x="64.8" y="72.39999999999999"/>
      <point x="64.8" y="178.2" type="curve" smooth="yes"/>
      <point x="64.8" y="347.1"/>
      <point x="214.7" y="527.0"/>
      <point x="407.09999999999997" y="527.0" type="curve" smooth="yes"/>
      <point x="569.5" y="527.0"/>
      <point x="681.6999999999999" y="424.4"/>
      <point x="681.6999999999999" y="251.7" type="curve" smooth="yes"/>
      <point x="681.6999999999999" y="135.7"/>
      <point x="620.6999999999999" y="21.0"/>
      <point x="526.4000000000001" y="21.0" type="curve" smooth="yes"/>
      <point x="434.0" y="21.0"/>
      <point x="441.5" y="145.29999999999998"/>
      <point x="506.29999999999995" y="247.60000000000002" type="curve"/>
      <point x="473.00000000000006" y="267.7" type="line"/>
      <point x="334.2" y="123.39999999999999"/>
      <point x="304.5" y="-59.0"/>
      <point x="448.5" y="-104.0" type="curve"/>
      <point x="448.20000000000005" y="-108.0" type="line"/>
      <point x="338.2" y="-130.89999999999998"/>
      <point x="286.3" y="-238.9"/>
      <point x="185.5" y="-238.9" type="curve" smooth="yes"/>
      <point x="132.4" y="-238.9"/>
      <point x="107.3" y="-205.70000000000002"/>
      <point x="107.3" y="-165.70000000000002" type="curve" smooth="yes"/>
      <point x="107.3" y="-126.10000000000001"/>
      <point x="130.0" y="-100.3"/>
      <point x="168.79999999999998" y="-71.0" type="curve"/>
      <point x="154.5" y="-51.4" type="line"/>
      <point x="109.0" y="-85.7"/>
      <point x="80.0" y="-117.4"/>
      <point x="80.0" y="-170.2" type="curve" smooth="yes"/>
      <point x="80.0" y="-221.7"/>
      <point x="116.1" y="-266.2"/>
    </contour>
  </outline>
</glyph>
<glyph name="oo-tamil" format="2">
  <advance width="776.4"/>
  <unicode hex="0B93"/>
  <note>
uni0B93
</note>
  <anchor x="327.7" y="0.0" name="bottom"/>
  <anchor x="273.2" y="-247.7" name="nukta"/>
  <anchor x="432.40000000000003" y="542.0" name="top"/>
  <anchor x="432.1" y="542.0" name="vedic"/>
  <outline>
    <contour>
      <point x="181.7" y="-267.7" type="curve" smooth="yes"/>
      <point x="307.5" y="-267.7"/>
      <point x="371.2" y="-117.3"/>
      <point x="516.8000000000001" y="-117.3" type="curve" smooth="yes"/>
      <point x="529.1" y="-117.3" type="line"/>
      <point x="534.1" y="-93.3" type="line"/>
      <point x="512.1999999999999" y="-93.3" type="line" smooth="yes"/>
      <point x="345.2" y="-93.3"/>
      <point x="345.8" y="84.4"/>
      <point x="463.5" y="222.7" type="curve"/>
      <point x="467.09999999999997" y="220.1" type="line"/>
      <point x="409.5" y="109.69999999999999"/>
      <point x="418.8" y="-5.0"/>
      <point x="523.7" y="-5.0" type="curve" smooth="yes"/>
      <point x="635.8" y="-5.0"/>
      <point x="711.4" y="116.69999999999999"/>
      <point x="711.4" y="256.40000000000003" type="curve" smooth="yes"/>
      <point x="711.4" y="442.2"/>
      <point x="587.2" y="551.0"/>
      <point x="409.5" y="551.0" type="curve" smooth="yes"/>
      <point x="196.6" y="551.0"/>
      <point x="38.5" y="364.4"/>
      <point x="38.5" y="176.9" type="curve" smooth="yes"/>
      <point x="38.5" y="58.1"/>
      <point x="87.1" y="-4.0"/>
      <point x="166.1" y="-4.0" type="curve" smooth="yes"/>
      <point x="242.9" y="-4.0"/>
      <point x="306.7" y="62.7"/>
      <point x="306.7" y="162.0" type="curve" smooth="yes"/>
      <point x="306.7" y="239.5"/>
      <point x="263.9" y="283.0"/>
      <point x="203.3" y="283.0" type="curve" smooth="yes"/>
      <point x="131.7" y="283.0"/>
      <point x="81.69999999999999" y="226.2"/>
      <point x="53.1" y="163.79999999999998" type="curve"/>
      <point x="60.6" y="136.0" type="line"/>
      <point x="95.9" y="206.20000000000002"/>
      <point x="136.0" y="258.0"/>
      <point x="198.4" y="258.0" type="curve" smooth="yes"/>
      <point x="250.9" y="258.0"/>
      <point x="278.4" y="224.9"/>
      <point x="278.4" y="159.29999999999998" type="curve" smooth="yes"/>
      <point x="278.4" y="78.3"/>
      <point x="226.3" y="21.0"/>
      <point x="168.1" y="21.0" type="curve" smooth="yes"/>
      <point x="103.9" y="21.0"/>
      <point x="64.8" y="72.39999999999999"/>
      <point x="64.8" y="178.2" type="curve" smooth="yes"/>
      <point x="64.8" y="347.1"/>
      <point x="214.7" y="527.0"/>
      <point x="407.09999999999997" y="527.0" type="curve" smooth="yes"/>
      <point x="569.5" y="527.0"/>
      <point x="681.6999999999999" y="424.4"/>
      <point x="681.6999999999999" y="251.7" type="curve" smooth="yes"/>
      <point x="681.6999999999999" y="135.7"/>
      <point x="620.6999999999999" y="21.0"/>
      <point x="526.4000000000001" y="21.0" type="curve" smooth="yes"/>
      <point x="434.0" y="21.0"/>
      <point x="441.5" y="145.29999999999998"/>
      <point x="506.29999999999995" y="247.60000000000002" type="curve"/>
      <point x="473.00000000000006" y="267.7" type="line"/>
      <point x="334.2" y="123.39999999999999"/>
      <point x="304.5" y="-59.0"/>
      <point x="448.5" y="-104.0" type="curve"/>
      <point x="448.2" y="-108.0" type="line"/>
      <point x="338.2" y="-130.89999999999998"/>
      <point x="280.59999999999997" y="-240.4"/>
      <point x="182.8" y="-240.4" type="curve" smooth="yes"/>
      <point x="131.2" y="-240.4"/>
      <point x="102.0" y="-206.8"/>
      <point x="102.0" y="-165.1" type="curve" smooth="yes"/>
      <point x="102.0" y="-124.19999999999999"/>
      <point x="129.4" y="-92.2"/>
      <point x="172.6" y="-92.2" type="curve" smooth="yes"/>
      <point x="206.2" y="-92.2"/>
      <point x="224.20000000000002" y="-112.2"/>
      <point x="227.8" y="-133.5" type="curve"/>
      <point x="242.0" y="-126.6"/>
      <point x="254.0" y="-113.5"/>
      <point x="254.0" y="-95.30000000000001" type="curve" smooth="yes"/>
      <point x="254.0" y="-70.2"/>
      <point x="222.3" y="-54.6"/>
      <point x="187.7" y="-54.6" type="curve" smooth="yes"/>
      <point x="121.60000000000001" y="-54.6"/>
      <point x="76.8" y="-108.6"/>
      <point x="76.8" y="-168.8" type="curve" smooth="yes"/>
      <point x="76.8" y="-221.70000000000002"/>
      <point x="116.8" y="-267.7"/>
    </contour>
  </outline>
</glyph>
<glyph name="ka-tamil" format="2">
  <advance width="625.9"/>
  <unicode hex="0B95"/>
  <note>
uni0B95
</note>
  <anchor x="268.09999999999997" y="0.0" name="bottom"/>
  <anchor x="480.9" y="542.0" name="imatra"/>
  <anchor x="273.09999999999997" y="0.0" name="nukta"/>
  <anchor x="389.9" y="542.0" name="top"/>
  <anchor x="394.59999999999997" y="542.0" name="vedic"/>
  <outline>
    <contour>
      <point x="164.9" y="-4.0" type="curve" smooth="yes"/>
      <point x="245.29999999999998" y="-4.0"/>
      <point x="303.7" y="42.0"/>
      <point x="328.9" y="161.7" type="curve" smooth="yes"/>
      <point x="352.7" y="275.0" type="line"/>
      <point x="405.3" y="275.0" type="line" smooth="yes"/>
      <point x="481.4" y="275.0"/>
      <point x="527.6999999999999" y="242.1"/>
      <point x="527.6999999999999" y="164.79999999999998" type="curve" smooth="yes"/>
      <point x="527.6999999999999" y="82.1"/>
      <point x="470.7" y="21.0"/>
      <point x="389.40000000000003" y="21.0" type="curve" smooth="yes"/>
      <point x="357.5" y="21.0" type="line"/>
      <point x="352.8" y="-2.0" type="line"/>
      <point x="390.4" y="-2.0" type="line" smooth="yes"/>
      <point x="488.3" y="-2.0"/>
      <point x="556.4" y="65.8"/>
      <point x="556.4" y="168.4" type="curve" smooth="yes"/>
      <point x="556.4" y="258.0"/>
      <point x="500.6" y="299.0"/>
      <point x="409.3" y="299.0" type="curve" smooth="yes"/>
      <point x="357.70000000000005" y="299.0" type="line"/>
      <point x="404.70000000000005" y="519.0" type="line"/>
      <point x="541.8" y="519.0" type="line"/>
      <point x="546.8" y="542.0" type="line"/>
      <point x="202.79999999999998" y="542.0" type="line"/>
      <point x="148.5" y="284.0" type="line"/>
      <point x="173.5" y="284.0" type="line"/>
      <point x="223.5" y="519.0" type="line"/>
      <point x="376.7" y="519.0" type="line"/>
      <point x="330.40000000000003" y="299.0" type="line"/>
      <point x="199.60000000000002" y="299.0" type="line" smooth="yes"/>
      <point x="93.5" y="299.0"/>
      <point x="30.299999999999997" y="222.2"/>
      <point x="30.299999999999997" y="135.0" type="curve" smooth="yes"/>
      <point x="30.299999999999997" y="59.699999999999996"/>
      <point x="81.5" y="-4.0"/>
    </contour>
    <contour>
      <point x="168.0" y="21.0" type="curve" smooth="yes"/>
      <point x="96.60000000000001" y="21.0"/>
      <point x="61.5" y="74.10000000000001"/>
      <point x="61.5" y="139.0" type="curve" smooth="yes"/>
      <point x="61.5" y="211.5"/>
      <point x="107.00000000000001" y="275.0"/>
      <point x="198.3" y="275.0" type="curve" smooth="yes"/>
      <point x="324.7" y="275.0" type="line"/>
      <point x="301.6" y="161.5" type="line" smooth="yes"/>
      <point x="282.0" y="63.5"/>
      <point x="232.39999999999998" y="21.0"/>
    </contour>
  </outline>
</glyph>
<glyph name="nga-tamil" format="2">
  <advance width="814.4"/>
  <unicode hex="0B99"/>
  <note>
uni0B99
</note>
  <anchor x="354.0" y="0.0" name="bottom"/>
  <anchor x="505.59999999999997" y="542.0" name="imatra"/>
  <anchor x="354.0" y="0.0" name="nukta"/>
  <anchor x="470.3" y="542.0" name="top"/>
  <anchor x="466.7" y="542.0" name="vedic"/>
  <outline>
    <contour>
      <point x="45.10000000000001" y="0.0" type="line"/>
      <point x="70.8" y="0.0" type="line"/>
      <point x="180.8" y="519.0" type="line"/>
      <point x="356.0" y="519.0" type="line"/>
      <point x="285.7" y="188.0" type="line"/>
      <point x="314.0" y="188.0" type="line"/>
      <point x="319.09999999999997" y="214.20000000000002" type="line" smooth="yes"/>
      <point x="329.4" y="265.9"/>
      <point x="373.2" y="332.0"/>
      <point x="438.1" y="332.0" type="curve" smooth="yes"/>
      <point x="484.2" y="332.0"/>
      <point x="510.79999999999995" y="297.6"/>
      <point x="510.79999999999995" y="241.5" type="curve" smooth="yes"/>
      <point x="510.79999999999995" y="130.29999999999998"/>
      <point x="412.7" y="23.0"/>
      <point x="306.20000000000005" y="23.0" type="curve" smooth="yes"/>
      <point x="250.7" y="23.0" type="line"/>
      <point x="245.7" y="0.0" type="line"/>
      <point x="653.6" y="0.0" type="line"/>
      <point x="768.5999999999999" y="542.0" type="line"/>
      <point x="741.3000000000001" y="542.0" type="line"/>
      <point x="631.3000000000001" y="23.0" type="line"/>
      <point x="387.5" y="23.0" type="line"/>
      <point x="476.59999999999997" y="60.9"/>
      <point x="541.1" y="144.20000000000002"/>
      <point x="541.1" y="243.9" type="curve" smooth="yes"/>
      <point x="541.1" y="312.4"/>
      <point x="502.7" y="355.0"/>
      <point x="443.40000000000003" y="355.0" type="curve" smooth="yes"/>
      <point x="393.5" y="355.0"/>
      <point x="356.7" y="324.9"/>
      <point x="335.70000000000005" y="291.8" type="curve"/>
      <point x="384.0" y="519.0" type="line"/>
      <point x="530.7" y="519.0" type="line"/>
      <point x="535.0" y="542.0" type="line"/>
      <point x="160.79999999999998" y="542.0" type="line"/>
    </contour>
  </outline>
</glyph>
<glyph name="ja-tamil" format="2">
  <advance width="765.9"/>
  <unicode hex="0B9C"/>
  <note>
uni0B9C
</note>
  <anchor x="336.5" y="0.0" name="bottom"/>
  <anchor x="276.8" y="-278.0" name="nukta"/>
  <anchor x="452.4" y="542.0" name="top"/>
  <anchor x="451.8" y="542.0" name="vedic"/>
  <outline>
    <contour>
      <point x="101.30000000000001" y="-278.0" type="curve" smooth="yes"/>
      <point x="270.5" y="-278.0"/>
      <point x="348.2" y="2.0"/>
      <point x="501.09999999999997" y="2.0" type="curve" smooth="yes"/>
      <point x="564.7" y="2.0"/>
      <point x="597.5" y="-41.4"/>
      <point x="597.5" y="-108.69999999999999" type="curve" smooth="yes"/>
      <point x="597.5" y="-191.20000000000002"/>
      <point x="543.8000000000001" y="-254.0"/>
      <point x="469.50000000000006" y="-254.0" type="curve" smooth="yes"/>
      <point x="433.00000000000006" y="-254.0"/>
      <point x="402.5" y="-241.1"/>
      <point x="378.09999999999997" y="-220.5" type="curve"/>
      <point x="361.4" y="-241.5" type="line"/>
      <point x="388.4" y="-263.7"/>
      <point x="421.29999999999995" y="-278.0"/>
      <point x="469.1" y="-278.0" type="curve" smooth="yes"/>
      <point x="558.3" y="-278.0"/>
      <point x="627.5" y="-207.7"/>
      <point x="627.5" y="-108.10000000000001" type="curve" smooth="yes"/>
      <point x="627.5" y="-27.800000000000004"/>
      <point x="582.9" y="26.0"/>
      <point x="503.8" y="26.0" type="curve" smooth="yes"/>
      <point x="331.09999999999997" y="26.0"/>
      <point x="251.39999999999998" y="-254.0"/>
      <point x="104.7" y="-254.0" type="curve" smooth="yes"/>
      <point x="42.5" y="-254.0"/>
      <point x="8.100000000000001" y="-206.2"/>
      <point x="8.100000000000001" y="-132.5" type="curve" smooth="yes"/>
      <point x="8.100000000000001" y="31.6"/>
      <point x="138.0" y="67.19999999999999"/>
      <point x="356.7" y="91.7" type="curve" smooth="yes"/>
      <point x="585.9" y="117.6"/>
      <point x="727.8" y="202.0"/>
      <point x="727.8" y="393.7" type="curve" smooth="yes"/>
      <point x="727.8" y="493.90000000000003"/>
      <point x="671.6999999999999" y="551.0"/>
      <point x="590.3" y="551.0" type="curve" smooth="yes"/>
      <point x="506.8" y="551.0"/>
      <point x="457.40000000000003" y="492.4"/>
      <point x="428.4" y="429.4" type="curve"/>
      <point x="417.3" y="495.0"/>
      <point x="370.2" y="551.0"/>
      <point x="277.8" y="551.0" type="curve" smooth="yes"/>
      <point x="146.9" y="551.0"/>
      <point x="63.60000000000001" y="427.3"/>
      <point x="63.60000000000001" y="300.7" type="curve" smooth="yes"/>
      <point x="63.60000000000001" y="219.8"/>
      <point x="100.8" y="164.0"/>
      <point x="163.4" y="164.0" type="curve" smooth="yes"/>
      <point x="230.89999999999998" y="164.0"/>
      <point x="282.0" y="223.6"/>
      <point x="282.0" y="301.59999999999997" type="curve" smooth="yes"/>
      <point x="282.0" y="360.40000000000003"/>
      <point x="250.6" y="398.0"/>
      <point x="198.6" y="398.0" type="curve" smooth="yes"/>
      <point x="142.2" y="398.0"/>
      <point x="101.4" y="350.7"/>
      <point x="75.8" y="283.7" type="curve"/>
      <point x="84.6" y="264.8" type="line"/>
      <point x="117.0" y="335.09999999999997"/>
      <point x="150.79999999999998" y="374.0"/>
      <point x="192.9" y="374.0" type="curve" smooth="yes"/>
      <point x="233.3" y="374.0"/>
      <point x="254.7" y="347.0"/>
      <point x="254.7" y="298.20000000000005" type="curve" smooth="yes"/>
      <point x="254.7" y="241.1"/>
      <point x="219.5" y="190.0"/>
      <point x="164.4" y="190.0" type="curve" smooth="yes"/>
      <point x="113.8" y="190.0"/>
      <point x="89.2" y="233.5"/>
      <point x="89.2" y="301.7" type="curve" smooth="yes"/>
      <point x="89.2" y="408.2"/>
      <point x="158.8" y="526.0"/>
      <point x="274.2" y="526.0" type="curve" smooth="yes"/>
      <point x="366.5" y="526.0"/>
      <point x="423.90000000000003" y="460.3"/>
      <point x="402.0" y="357.4" type="curve" smooth="yes"/>
      <point x="370.4" y="208.0" type="line"/>
      <point x="397.2" y="208.0" type="line"/>
      <point x="429.3" y="361.09999999999997" type="line" smooth="yes"/>
      <point x="444.59999999999997" y="432.6"/>
      <point x="495.29999999999995" y="527.0"/>
      <point x="587.0" y="527.0" type="curve" smooth="yes"/>
      <point x="656.4" y="527.0"/>
      <point x="698.2" y="476.7"/>
      <point x="698.2" y="391.09999999999997" type="curve" smooth="yes"/>
      <point x="698.2" y="210.3"/>
      <point x="565.2" y="136.8"/>
      <point x="346.9" y="113.0" type="curve" smooth="yes"/>
      <point x="116.4" y="87.80000000000001"/>
      <point x="-20.9" y="42.800000000000004"/>
      <point x="-20.9" y="-133.8" type="curve" smooth="yes"/>
      <point x="-20.9" y="-220.60000000000002"/>
      <point x="26.700000000000003" y="-278.0"/>
    </contour>
  </outline>
</glyph>
<glyph name="nya-tamil" format="2">
  <advance width="961.2"/>
  <unicode hex="0B9E"/>
  <note>
uni0B9E
</note>
  <anchor x="459.5" y="0.0" name="bottom"/>
  <anchor x="837.5" y="542.0" name="imatra"/>
  <anchor x="412.90000000000003" y="-269.5" name="nukta"/>
  <anchor x="596.0" y="542.0" name="top"/>
  <anchor x="545.8" y="542.0" name="vedic"/>
  <outline>
    <contour>
      <point x="412.90000000000003" y="-269.5" type="curve" smooth="yes"/>
      <point x="689.1999999999999" y="-269.5"/>
      <point x="896.2" y="-73.0"/>
      <point x="896.2" y="189.9" type="curve" smooth="yes"/>
      <point x="896.2" y="275.20000000000005"/>
      <point x="853.1" y="328.0"/>
      <point x="787.5999999999999" y="328.0" type="curve" smooth="yes"/>
      <point x="721.2" y="328.0"/>
      <point x="674.5999999999999" y="275.1"/>
      <point x="654.6" y="181.1" type="curve" smooth="yes"/>
      <point x="651.6" y="167.1" type="line"/>
      <point x="665.4" y="167.1" type="line"/>
      <point x="668.4" y="180.39999999999998" type="line" smooth="yes"/>
      <point x="684.4000000000001" y="249.9"/>
      <point x="723.9" y="304.0"/>
      <point x="782.6" y="304.0" type="curve" smooth="yes"/>
      <point x="836.2" y="304.0"/>
      <point x="866.9" y="261.6"/>
      <point x="866.9" y="188.5" type="curve" smooth="yes"/>
      <point x="866.9" y="-52.4"/>
      <point x="668.7" y="-243.5"/>
      <point x="413.0" y="-243.5" type="curve" smooth="yes"/>
      <point x="192.70000000000002" y="-243.5"/>
      <point x="63.3" y="-83.7"/>
      <point x="63.3" y="134.2" type="curve" smooth="yes"/>
      <point x="63.3" y="318.6"/>
      <point x="142.5" y="477.40000000000003"/>
      <point x="293.4" y="628.4" type="curve"/>
      <point x="274.3" y="646.3" type="line"/>
      <point x="119.1" y="490.2"/>
      <point x="34.0" y="326.40000000000003"/>
      <point x="34.0" y="131.89999999999998" type="curve" smooth="yes"/>
      <point x="34.0" y="-93.8"/>
      <point x="173.2" y="-269.5"/>
    </contour>
    <component base="e-tamil" xOffset="167.3"/>
  </outline>
</glyph>
<glyph name="tta-tamil" format="2">
  <advance width="698.7"/>
  <unicode hex="0B9F"/>
  <note>
uni0B9F
</note>
  <anchor x="334.8" y="0.0" name="bottom"/>
  <anchor x="334.8" y="0.0" name="nukta"/>
  <anchor x="450.2" y="542.0" name="top"/>
  <anchor x="439.3" y="542.0" name="vedic"/>
  <outline>
    <contour>
      <point x="45.10000000000001" y="0.0" type="line"/>
      <point x="619.0" y="0.0" type="line"/>
      <point x="624.0" y="23.0" type="line"/>
      <point x="78.80000000000001" y="23.0" type="line"/>
      <point x="188.79999999999998" y="542.0" type="line"/>
      <point x="160.79999999999998" y="542.0" type="line"/>
    </contour>
  </outline>
</glyph>
<glyph name="nna-tamil" format="2">
  <advance width="1298.2"/>
  <unicode hex="0BA3"/>
  <note>
uni0BA3
</note>
  <anchor x="636.8" y="0.0" name="bottom"/>
  <anchor x="1255.5" y="542.0" name="imatra"/>
  <anchor x="636.8" y="0.0" name="nukta"/>
  <anchor x="740.0" y="542.0" name="top"/>
  <anchor x="724.1" y="542.0" name="vedic"/>
  <outline>
    <contour>
      <point x="478.40000000000003" y="-5.0" type="curve" smooth="yes"/>
      <point x="566.1999999999999" y="-5.0"/>
      <point x="642.4000000000001" y="89.0"/>
      <point x="642.4000000000001" y="238.0" type="curve" smooth="yes"/>
      <point x="642.4000000000001" y="431.7"/>
      <point x="530.8" y="551.7"/>
      <point x="366.70000000000005" y="551.7" type="curve" smooth="yes"/>
      <point x="168.9" y="551.7"/>
      <point x="38.400000000000006" y="356.2"/>
      <point x="38.400000000000006" y="168.7" type="curve" smooth="yes"/>
      <point x="38.400000000000006" y="59.7"/>
      <point x="89.7" y="-4.0"/>
      <point x="168.7" y="-4.0" type="curve" smooth="yes"/>
      <point x="245.5" y="-4.0"/>
      <point x="306.6" y="62.7"/>
      <point x="306.6" y="162.0" type="curve" smooth="yes"/>
      <point x="306.6" y="239.5"/>
      <point x="263.8" y="283.0"/>
      <point x="203.2" y="283.0" type="curve" smooth="yes"/>
      <point x="131.6" y="283.0"/>
      <point x="81.6" y="226.2"/>
      <point x="53.0" y="163.79999999999998" type="curve"/>
      <point x="60.5" y="136.0" type="line"/>
      <point x="95.8" y="206.20000000000002"/>
      <point x="135.9" y="258.0"/>
      <point x="198.29999999999998" y="258.0" type="curve" smooth="yes"/>
      <point x="250.8" y="258.0"/>
      <point x="278.3" y="224.9"/>
      <point x="278.3" y="159.29999999999998" type="curve" smooth="yes"/>
      <point x="278.3" y="78.3"/>
      <point x="228.89999999999998" y="21.0"/>
      <point x="170.70000000000002" y="21.0" type="curve" smooth="yes"/>
      <point x="106.5" y="21.0"/>
      <point x="64.69999999999999" y="74.0"/>
      <point x="64.69999999999999" y="170.0" type="curve" smooth="yes"/>
      <point x="64.69999999999999" y="338.9"/>
      <point x="184.9" y="527.7"/>
      <point x="364.3" y="527.7" type="curve" smooth="yes"/>
      <point x="519.9" y="527.7"/>
      <point x="613.4" y="416.0"/>
      <point x="613.4" y="233.29999999999998" type="curve" smooth="yes"/>
      <point x="613.4" y="102.6"/>
      <point x="548.4000000000001" y="21.0"/>
      <point x="478.7" y="21.0" type="curve" smooth="yes"/>
      <point x="429.9" y="21.0"/>
      <point x="402.9" y="64.4"/>
      <point x="402.9" y="145.3" type="curve" smooth="yes"/>
      <point x="402.9" y="327.7"/>
      <point x="545.7" y="527.7"/>
      <point x="724.9" y="527.7" type="curve" smooth="yes"/>
      <point x="882.7" y="527.7"/>
      <point x="950.2" y="402.1"/>
      <point x="950.2" y="242.2" type="curve" smooth="yes"/>
      <point x="950.2" y="108.69999999999999"/>
      <point x="883.5" y="21.0"/>
      <point x="813.8" y="21.0" type="curve" smooth="yes"/>
      <point x="764.0999999999999" y="21.0"/>
      <point x="739.7" y="63.5"/>
      <point x="739.7" y="142.29999999999998" type="curve" smooth="yes"/>
      <point x="739.7" y="324.7"/>
      <point x="895.6" y="519.0"/>
      <point x="1084.0" y="519.0" type="curve" smooth="yes"/>
      <point x="1325.1999999999998" y="519.0" type="line"/>
      <point x="1330.2" y="542.0" type="line"/>
      <point x="1086.3000000000002" y="542.0" type="line" smooth="yes"/>
      <point x="877.0" y="542.0"/>
      <point x="714.1" y="340.20000000000005"/>
      <point x="714.1" y="133.6" type="curve" smooth="yes"/>
      <point x="714.1" y="44.4"/>
      <point x="750.6" y="-5.0"/>
      <point x="813.5" y="-5.0" type="curve" smooth="yes"/>
      <point x="901.6" y="-5.0"/>
      <point x="979.1999999999999" y="95.1"/>
      <point x="979.1999999999999" y="246.9" type="curve" smooth="yes"/>
      <point x="979.1999999999999" y="418.1"/>
      <point x="899.7" y="551.7"/>
      <point x="726.6" y="551.7" type="curve" smooth="yes"/>
      <point x="527.4" y="551.7"/>
      <point x="377.3" y="342.6"/>
      <point x="377.3" y="136.6" type="curve" smooth="yes"/>
      <point x="377.3" y="45.300000000000004"/>
      <point x="416.4" y="-5.0"/>
    </contour>
    <contour>
      <point x="1057.5" y="0.0" type="line"/>
      <point x="1085.9" y="0.0" type="line"/>
      <point x="1198.2" y="528.0" type="line"/>
      <point x="1170.2" y="528.0" type="line"/>
    </contour>
  </outline>
</glyph>
<glyph name="na-tamil" format="2">
  <advance width="618.4"/>
  <unicode hex="0BA8"/>
  <note>
uni0BA8
</note>
  <anchor x="258.9" y="0.0" name="bottom"/>
  <anchor x="490.4" y="542.0" name="imatra"/>
  <anchor x="233.5" y="-157.0" name="nukta"/>
  <anchor x="391.90000000000003" y="542.0" name="top"/>
  <anchor x="385.40000000000003" y="542.0" name="vedic"/>
  <outline>
    <contour>
      <point x="35.4" y="-189.0" type="curve"/>
      <point x="43.4" y="-144.6"/>
      <point x="69.0" y="-118.10000000000001"/>
      <point x="116.2" y="-118.10000000000001" type="curve" smooth="yes"/>
      <point x="252.0" y="-118.10000000000001" type="line" smooth="yes"/>
      <point x="432.7" y="-118.10000000000001"/>
      <point x="557.6999999999999" y="11.399999999999999"/>
      <point x="557.6999999999999" y="201.1" type="curve" smooth="yes"/>
      <point x="557.6999999999999" y="278.59999999999997"/>
      <point x="519.0" y="328.0"/>
      <point x="453.8" y="328.0" type="curve" smooth="yes"/>
      <point x="402.59999999999997" y="328.0"/>
      <point x="370.7" y="296.0"/>
      <point x="348.3" y="262.6" type="curve"/>
      <point x="402.8" y="519.0" type="line"/>
      <point x="528.4" y="519.0" type="line"/>
      <point x="533.4" y="542.0" type="line"/>
      <point x="162.89999999999998" y="542.0" type="line"/>
      <point x="47.900000000000006" y="0.0" type="line"/>
      <point x="73.6" y="0.0" type="line"/>
      <point x="183.6" y="519.0" type="line"/>
      <point x="375.5" y="519.0" type="line"/>
      <point x="264.5" y="0.0" type="line"/>
      <point x="292.8" y="0.0" type="line"/>
      <point x="331.3" y="181.3" type="line" smooth="yes"/>
      <point x="342.29999999999995" y="234.29999999999998"/>
      <point x="384.5" y="304.0"/>
      <point x="450.20000000000005" y="304.0" type="curve" smooth="yes"/>
      <point x="501.4" y="304.0"/>
      <point x="527.1" y="264.90000000000003"/>
      <point x="527.1" y="199.70000000000002" type="curve" smooth="yes"/>
      <point x="527.1" y="23.999999999999996"/>
      <point x="418.20000000000005" y="-93.0"/>
      <point x="252.6" y="-93.0" type="curve" smooth="yes"/>
      <point x="98.1" y="-93.0" type="line" smooth="yes"/>
      <point x="46.0" y="-93.0"/>
      <point x="3.6" y="-117.70000000000002"/>
      <point x="3.6" y="-154.39999999999998" type="curve" smooth="yes"/>
      <point x="3.6" y="-176.4"/>
      <point x="17.0" y="-189.0"/>
    </contour>
  </outline>
</glyph>
<glyph name="nnna-tamil" format="2">
  <advance width="981.4"/>
  <unicode hex="0BA9"/>
  <note>
uni0BA9
</note>
  <anchor x="450.5" y="0.0" name="bottom"/>
  <anchor x="936.6" y="542.0" name="imatra"/>
  <anchor x="451.79999999999995" y="0.0" name="nukta"/>
  <anchor x="574.4000000000001" y="542.0" name="top"/>
  <anchor x="567.0999999999999" y="542.0" name="vedic"/>
  <outline>
    <contour>
      <point x="168.7" y="-4.0" type="curve" smooth="yes"/>
      <point x="245.5" y="-4.0"/>
      <point x="306.6" y="62.7"/>
      <point x="306.6" y="162.0" type="curve" smooth="yes"/>
      <point x="306.6" y="239.5"/>
      <point x="263.8" y="283.0"/>
      <point x="203.2" y="283.0" type="curve" smooth="yes"/>
      <point x="131.6" y="283.0"/>
      <point x="81.6" y="226.2"/>
      <point x="53.0" y="163.79999999999998" type="curve"/>
      <point x="60.5" y="136.0" type="line"/>
      <point x="95.8" y="206.20000000000002"/>
      <point x="135.9" y="258.0"/>
      <point x="198.29999999999998" y="258.0" type="curve" smooth="yes"/>
      <point x="250.8" y="258.0"/>
      <point x="278.3" y="224.9"/>
      <point x="278.3" y="159.29999999999998" type="curve" smooth="yes"/>
      <point x="278.3" y="78.3"/>
      <point x="228.89999999999998" y="21.0"/>
      <point x="170.70000000000002" y="21.0" type="curve" smooth="yes"/>
      <point x="106.5" y="21.0"/>
      <point x="64.69999999999999" y="74.0"/>
      <point x="64.69999999999999" y="170.0" type="curve" smooth="yes"/>
      <point x="64.69999999999999" y="338.9"/>
      <point x="183.7" y="527.7"/>
      <point x="362.2" y="527.7" type="curve" smooth="yes"/>
      <point x="522.3000000000001" y="527.7"/>
      <point x="613.4000000000001" y="417.2"/>
      <point x="613.4000000000001" y="234.5" type="curve" smooth="yes"/>
      <point x="613.4000000000001" y="103.8"/>
      <point x="547.5" y="21.0"/>
      <point x="478.40000000000003" y="21.0" type="curve" smooth="yes"/>
      <point x="428.4" y="21.0"/>
      <point x="402.9" y="63.5"/>
      <point x="402.9" y="142.29999999999998" type="curve" smooth="yes"/>
      <point x="402.9" y="324.7"/>
      <point x="569.4000000000001" y="519.0"/>
      <point x="757.8" y="519.0" type="curve" smooth="yes"/>
      <point x="1008.4" y="519.0" type="line"/>
      <point x="1013.4" y="542.0" type="line"/>
      <point x="760.1" y="542.0" type="line" smooth="yes"/>
      <point x="548.6999999999999" y="542.0"/>
      <point x="377.3" y="340.20000000000005"/>
      <point x="377.3" y="133.6" type="curve" smooth="yes"/>
      <point x="377.3" y="44.4"/>
      <point x="414.90000000000003" y="-5.0"/>
      <point x="478.1" y="-5.0" type="curve" smooth="yes"/>
      <point x="565.6" y="-5.0"/>
      <point x="642.4" y="90.19999999999999"/>
      <point x="642.4" y="239.20000000000002" type="curve" smooth="yes"/>
      <point x="642.4" y="433.2"/>
      <point x="533.8000000000001" y="551.7"/>
      <point x="364.59999999999997" y="551.7" type="curve" smooth="yes"/>
      <point x="167.39999999999998" y="551.7"/>
      <point x="38.400000000000006" y="356.2"/>
      <point x="38.400000000000006" y="168.7" type="curve" smooth="yes"/>
      <point x="38.400000000000006" y="59.7"/>
      <point x="89.7" y="-4.0"/>
    </contour>
    <contour>
      <point x="740.7" y="0.0" type="line"/>
      <point x="769.1" y="0.0" type="line"/>
      <point x="881.4000000000001" y="528.0" type="line"/>
      <point x="853.4" y="528.0" type="line"/>
    </contour>
  </outline>
</glyph>
<glyph name="pa-tamil" format="2">
  <advance width="706.9"/>
  <unicode hex="0BAA"/>
  <note>
uni0BAA
</note>
  <anchor x="296.6" y="0.0" name="bottom"/>
  <anchor x="652.9000000000001" y="542.0" name="imatra"/>
  <anchor x="296.6" y="0.0" name="nukta"/>
  <anchor x="410.20000000000005" y="542.0" name="top"/>
  <anchor x="406.5" y="542.0" name="vedic"/>
  <outline>
    <contour>
      <point x="45.10000000000001" y="0.0" type="line"/>
      <point x="546.1" y="0.0" type="line"/>
      <point x="661.1" y="542.0" type="line"/>
      <point x="633.1" y="542.0" type="line"/>
      <point x="522.8000000000001" y="23.0" type="line"/>
      <point x="78.80000000000001" y="23.0" type="line"/>
      <point x="188.79999999999998" y="542.0" type="line"/>
      <point x="160.79999999999998" y="542.0" type="line"/>
    </contour>
  </outline>
</glyph>
<glyph name="ma-tamil" format="2">
  <advance width="717.0"/>
  <unicode hex="0BAE"/>
  <note>
uni0BAE
</note>
  <anchor x="307.5" y="0.0" name="bottom"/>
  <anchor x="704.3" y="542.0" name="imatra"/>
  <anchor x="307.8" y="0.0" name="nukta"/>
  <anchor x="441.7" y="542.0" name="top"/>
  <anchor x="438.6" y="542.0" name="vedic"/>
  <outline>
    <contour>
      <point x="45.10000000000001" y="0.0" type="line"/>
      <point x="469.20000000000005" y="0.0" type="line" smooth="yes"/>
      <point x="598.1" y="0.0"/>
      <point x="659.1" y="156.2"/>
      <point x="659.1" y="324.3" type="curve" smooth="yes"/>
      <point x="659.1" y="469.5"/>
      <point x="608.6999999999999" y="551.0"/>
      <point x="524.6" y="551.0" type="curve" smooth="yes"/>
      <point x="448.8" y="551.0"/>
      <point x="411.59999999999997" y="500.7"/>
      <point x="391.4" y="406.0" type="curve" smooth="yes"/>
      <point x="310.09999999999997" y="23.0" type="line"/>
      <point x="78.80000000000001" y="23.0" type="line"/>
      <point x="188.79999999999998" y="542.0" type="line"/>
      <point x="160.79999999999998" y="542.0" type="line"/>
    </contour>
    <contour>
      <point x="338.8" y="23.0" type="line"/>
      <point x="419.7" y="406.0" type="line" smooth="yes"/>
      <point x="437.90000000000003" y="492.1"/>
      <point x="464.40000000000003" y="526.3"/>
      <point x="523.1999999999999" y="526.3" type="curve" smooth="yes"/>
      <point x="591.5" y="526.3"/>
      <point x="631.5" y="451.4"/>
      <point x="631.5" y="318.8" type="curve" smooth="yes"/>
      <point x="631.5" y="171.7"/>
      <point x="572.2" y="23.0"/>
      <point x="468.8" y="23.0" type="curve" smooth="yes"/>
    </contour>
  </outline>
</glyph>
<glyph name="ya-tamil" format="2">
  <advance width="745.9"/>
  <unicode hex="0BAF"/>
  <note>
uni0BAF
</note>
  <anchor x="329.5" y="0.0" name="bottom"/>
  <anchor x="697.1" y="542.0" name="imatra"/>
  <anchor x="329.5" y="0.0" name="nukta"/>
  <anchor x="442.09999999999997" y="542.0" name="top"/>
  <anchor x="432.8" y="542.0" name="vedic"/>
  <outline>
    <contour>
      <point x="154.5" y="-5.0" type="curve" smooth="yes"/>
      <point x="197.10000000000002" y="-5.0"/>
      <point x="231.5" y="18.8"/>
      <point x="256.5" y="55.1" type="curve"/>
      <point x="244.6" y="0.0" type="line"/>
      <point x="585.0999999999999" y="0.0" type="line"/>
      <point x="700.8" y="542.0" type="line"/>
      <point x="672.5" y="542.0" type="line"/>
      <point x="562.1999999999999" y="23.0" type="line"/>
      <point x="275.6" y="23.0" type="line"/>
      <point x="385.6" y="542.0" type="line"/>
      <point x="357.59999999999997" y="542.0" type="line"/>
      <point x="270.5" y="128.4" type="line" smooth="yes"/>
      <point x="258.2" y="70.2"/>
      <point x="212.79999999999998" y="21.0"/>
      <point x="159.5" y="21.0" type="curve" smooth="yes"/>
      <point x="107.0" y="21.0"/>
      <point x="83.1" y="64.5"/>
      <point x="98.8" y="137.20000000000002" type="curve" smooth="yes"/>
      <point x="185.2" y="542.0" type="line"/>
      <point x="157.9" y="542.0" type="line"/>
      <point x="72.2" y="140.79999999999998" type="line" smooth="yes"/>
      <point x="52.2" y="48.2"/>
      <point x="92.0" y="-5.0"/>
    </contour>
  </outline>
</glyph>
<glyph name="ra-tamil" format="2">
  <advance width="547.0"/>
  <unicode hex="0BB0"/>
  <note>
uni0BB0
</note>
  <anchor x="234.8" y="0.0" name="bottom"/>
  <anchor x="530.0999999999999" y="542.0" name="imatra"/>
  <anchor x="197.5" y="-165.0" name="nukta"/>
  <anchor x="363.7" y="542.0" name="top"/>
  <anchor x="367.0" y="542.0" name="vedic"/>
  <outline>
    <contour>
      <point x="112.89999999999999" y="-198.9" type="line"/>
      <point x="304.5" y="-1.5999999999999996" type="line"/>
      <point x="415.5" y="519.0" type="line"/>
      <point x="574.0" y="519.0" type="line"/>
      <point x="579.0" y="542.0" type="line"/>
      <point x="160.79999999999998" y="542.0" type="line"/>
      <point x="45.10000000000001" y="0.0" type="line"/>
      <point x="70.8" y="0.0" type="line"/>
      <point x="180.79999999999998" y="519.0" type="line"/>
      <point x="387.5" y="519.0" type="line"/>
      <point x="278.8" y="8.600000000000001" type="line"/>
      <point x="94.5" y="-181.0" type="line"/>
    </contour>
  </outline>
</glyph>
<glyph name="rra-tamil" format="2">
  <advance width="682.9"/>
  <unicode hex="0BB1"/>
  <note>
uni0BB1
</note>
  <anchor x="277.5" y="0.0" name="bottom"/>
  <anchor x="261.8" y="-131.0" name="nukta"/>
  <anchor x="392.09999999999997" y="542.0" name="top"/>
  <anchor x="401.4" y="542.0" name="vedic"/>
  <outline>
    <contour>
      <point x="40.3" y="-189.0" type="curve"/>
      <point x="48.3" y="-144.6"/>
      <point x="74.6" y="-117.7"/>
      <point x="121.80000000000001" y="-117.7" type="curve" smooth="yes"/>
      <point x="240.89999999999998" y="-117.7" type="line" smooth="yes"/>
      <point x="479.6" y="-117.7"/>
      <point x="631.2" y="82.3"/>
      <point x="631.2" y="352.1" type="curve" smooth="yes"/>
      <point x="631.2" y="485.7"/>
      <point x="569.2" y="551.0"/>
      <point x="485.1" y="551.0" type="curve" smooth="yes"/>
      <point x="414.9" y="551.0"/>
      <point x="376.3" y="506.0"/>
      <point x="355.0" y="468.8" type="curve"/>
      <point x="347.3" y="508.4"/>
      <point x="319.6" y="551.0"/>
      <point x="258.5" y="551.0" type="curve" smooth="yes"/>
      <point x="194.10000000000002" y="551.0"/>
      <point x="149.20000000000002" y="501.90000000000003"/>
      <point x="131.9" y="419.8" type="curve" smooth="yes"/>
      <point x="42.699999999999996" y="0.0" type="line"/>
      <point x="68.4" y="0.0" type="line"/>
      <point x="157.20000000000002" y="419.7" type="line" smooth="yes"/>
      <point x="171.2" y="486.4"/>
      <point x="203.29999999999998" y="527.0"/>
      <point x="258.5" y="527.0" type="curve" smooth="yes"/>
      <point x="316.7" y="527.0"/>
      <point x="342.2" y="474.9"/>
      <point x="328.29999999999995" y="408.7" type="curve" smooth="yes"/>
      <point x="241.5" y="0.0" type="line"/>
      <point x="269.5" y="0.0" type="line"/>
      <point x="356.3" y="407.7" type="line" smooth="yes"/>
      <point x="372.59999999999997" y="482.2"/>
      <point x="422.1" y="527.0"/>
      <point x="483.1" y="527.0" type="curve" smooth="yes"/>
      <point x="545.2" y="527.0"/>
      <point x="601.8000000000001" y="483.5"/>
      <point x="601.8000000000001" y="349.0" type="curve" smooth="yes"/>
      <point x="601.8000000000001" y="95.69999999999999"/>
      <point x="459.3" y="-92.39999999999999"/>
      <point x="236.7" y="-92.39999999999999" type="curve" smooth="yes"/>
      <point x="103.0" y="-92.39999999999999" type="line" smooth="yes"/>
      <point x="50.9" y="-92.39999999999999"/>
      <point x="8.5" y="-117.7"/>
      <point x="8.5" y="-154.39999999999998" type="curve" smooth="yes"/>
      <point x="8.5" y="-176.4"/>
      <point x="21.900000000000002" y="-189.0"/>
    </contour>
  </outline>
</glyph>
<glyph name="la-tamil" format="2">
  <advance width="805.6"/>
  <unicode hex="0BB2"/>
  <note>
uni0BB2
</note>
  <anchor x="352.9" y="0.0" name="bottom"/>
  <anchor x="352.9" y="0.0" name="nukta"/>
  <anchor x="472.8" y="542.0" name="top"/>
  <anchor x="461.9" y="542.0" name="vedic"/>
  <outline>
    <contour>
      <point x="169.70000000000002" y="-4.0" type="curve" smooth="yes"/>
      <point x="246.5" y="-4.0"/>
      <point x="307.59999999999997" y="62.7"/>
      <point x="307.59999999999997" y="162.0" type="curve" smooth="yes"/>
      <point x="307.59999999999997" y="239.5"/>
      <point x="264.8" y="283.0"/>
      <point x="204.2" y="283.0" type="curve" smooth="yes"/>
      <point x="132.6" y="283.0"/>
      <point x="82.6" y="226.2"/>
      <point x="54.0" y="163.79999999999998" type="curve"/>
      <point x="61.50000000000001" y="136.0" type="line"/>
      <point x="96.80000000000001" y="206.20000000000002"/>
      <point x="136.9" y="258.0"/>
      <point x="199.3" y="258.0" type="curve" smooth="yes"/>
      <point x="251.8" y="258.0"/>
      <point x="279.3" y="224.9"/>
      <point x="279.3" y="159.29999999999998" type="curve" smooth="yes"/>
      <point x="279.3" y="78.3"/>
      <point x="229.9" y="21.0"/>
      <point x="171.7" y="21.0" type="curve" smooth="yes"/>
      <point x="107.50000000000001" y="21.0"/>
      <point x="65.7" y="74.0"/>
      <point x="65.7" y="170.0" type="curve" smooth="yes"/>
      <point x="65.7" y="338.9"/>
      <point x="171.20000000000002" y="527.0"/>
      <point x="339.8" y="527.0" type="curve" smooth="yes"/>
      <point x="450.09999999999997" y="527.0"/>
      <point x="486.8" y="444.5"/>
      <point x="462.3" y="333.8" type="curve" smooth="yes"/>
      <point x="421.0" y="149.0" type="line" smooth="yes"/>
      <point x="401.4" y="60.2"/>
      <point x="428.6" y="-4.0"/>
      <point x="513.1" y="-4.0" type="curve" smooth="yes"/>
      <point x="648.1" y="-4.0"/>
      <point x="759.7" y="161.3"/>
      <point x="759.7" y="359.70000000000005" type="curve" smooth="yes"/>
      <point x="759.7" y="437.6"/>
      <point x="744.2" y="489.8"/>
      <point x="716.8000000000001" y="547.0" type="curve"/>
      <point x="688.7" y="532.8" type="line"/>
      <point x="712.5" y="485.3"/>
      <point x="731.4000000000001" y="425.4"/>
      <point x="731.4000000000001" y="357.3" type="curve" smooth="yes"/>
      <point x="731.4000000000001" y="184.79999999999998"/>
      <point x="633.1999999999999" y="20.0"/>
      <point x="516.2" y="20.0" type="curve" smooth="yes"/>
      <point x="447.20000000000005" y="20.0"/>
      <point x="433.5" y="72.7"/>
      <point x="449.70000000000005" y="147.0" type="curve" smooth="yes"/>
      <point x="489.6" y="330.4" type="line" smooth="yes"/>
      <point x="517.8000000000001" y="460.0"/>
      <point x="468.8" y="551.0"/>
      <point x="342.2" y="551.0" type="curve" smooth="yes"/>
      <point x="154.9" y="551.0"/>
      <point x="39.4" y="356.2"/>
      <point x="39.4" y="168.7" type="curve" smooth="yes"/>
      <point x="39.4" y="59.7"/>
      <point x="90.7" y="-4.0"/>
    </contour>
  </outline>
</glyph>
<glyph name="lla-tamil" format="2">
  <advance width="955.7"/>
  <unicode hex="0BB3"/>
  <note>
uni0BB3
</note>
  <anchor x="429.0" y="0.0" name="bottom"/>
  <anchor x="941.3" y="542.0" name="imatra"/>
  <anchor x="428.7" y="0.0" name="nukta"/>
  <anchor x="569.8" y="542.0" name="top"/>
  <anchor x="554.8000000000001" y="542.0" name="vedic"/>
  <outline>
    <contour>
      <point x="170.4" y="-4.0" type="curve" smooth="yes"/>
      <point x="247.20000000000002" y="-4.0"/>
      <point x="308.3" y="62.7"/>
      <point x="308.3" y="162.0" type="curve" smooth="yes"/>
      <point x="308.3" y="239.5"/>
      <point x="265.5" y="283.0"/>
      <point x="204.9" y="283.0" type="curve" smooth="yes"/>
      <point x="133.3" y="283.0"/>
      <point x="83.30000000000001" y="226.2"/>
      <point x="54.7" y="163.79999999999998" type="curve"/>
      <point x="62.2" y="136.0" type="line"/>
      <point x="97.5" y="206.20000000000002"/>
      <point x="137.6" y="258.0"/>
      <point x="200.0" y="258.0" type="curve" smooth="yes"/>
      <point x="252.5" y="258.0"/>
      <point x="280.0" y="224.9"/>
      <point x="280.0" y="159.29999999999998" type="curve" smooth="yes"/>
      <point x="280.0" y="78.3"/>
      <point x="230.6" y="21.0"/>
      <point x="172.4" y="21.0" type="curve" smooth="yes"/>
      <point x="108.2" y="21.0"/>
      <point x="66.4" y="74.0"/>
      <point x="66.4" y="170.0" type="curve" smooth="yes"/>
      <point x="66.4" y="338.0"/>
      <point x="169.0" y="527.0"/>
      <point x="336.8" y="527.0" type="curve" smooth="yes"/>
      <point x="450.6" y="527.0"/>
      <point x="535.0" y="444.5"/>
      <point x="502.7" y="287.90000000000003" type="curve"/>
      <point x="525.7" y="288.9" type="line"/>
      <point x="561.0" y="458.59999999999997"/>
      <point x="473.4" y="551.0"/>
      <point x="338.5" y="551.0" type="curve" smooth="yes"/>
      <point x="152.0" y="551.0"/>
      <point x="40.10000000000001" y="355.3"/>
      <point x="40.10000000000001" y="168.7" type="curve" smooth="yes"/>
      <point x="40.10000000000001" y="59.7"/>
      <point x="91.4" y="-4.0"/>
    </contour>
    <contour>
      <point x="441.1" y="0.0" type="line"/>
      <point x="469.1" y="0.0" type="line"/>
      <point x="579.8000000000001" y="519.0" type="line"/>
      <point x="797.6" y="519.0" type="line"/>
      <point x="686.6" y="0.0" type="line"/>
      <point x="715.6" y="0.0" type="line"/>
      <point x="825.6" y="519.0" type="line"/>
      <point x="982.6999999999999" y="519.0" type="line"/>
      <point x="987.7" y="542.0" type="line"/>
      <point x="556.8" y="542.0" type="line"/>
      <point x="522.5" y="382.1" type="line"/>
      <point x="516.8" y="356.1" type="line"/>
    </contour>
  </outline>
</glyph>
<glyph name="va-tamil" format="2">
  <advance width="909.1"/>
  <unicode hex="0BB5"/>
  <note>
uni0BB5
</note>
  <anchor x="402.0" y="0.0" name="bottom"/>
  <anchor x="842.3" y="542.0" name="imatra"/>
  <anchor x="402.0" y="0.0" name="nukta"/>
  <anchor x="505.09999999999997" y="542.0" name="top"/>
  <anchor x="499.7" y="542.0" name="vedic"/>
  <outline>
    <contour>
      <point x="169.1" y="-4.0" type="curve" smooth="yes"/>
      <point x="245.89999999999998" y="-4.0"/>
      <point x="307.0" y="62.7"/>
      <point x="307.0" y="162.0" type="curve" smooth="yes"/>
      <point x="307.0" y="239.5"/>
      <point x="264.2" y="283.0"/>
      <point x="203.6" y="283.0" type="curve" smooth="yes"/>
      <point x="132.0" y="283.0"/>
      <point x="82.0" y="226.2"/>
      <point x="53.400000000000006" y="163.79999999999998" type="curve"/>
      <point x="60.9" y="136.0" type="line"/>
      <point x="96.2" y="206.20000000000002"/>
      <point x="136.3" y="258.0"/>
      <point x="198.7" y="258.0" type="curve" smooth="yes"/>
      <point x="251.20000000000002" y="258.0"/>
      <point x="278.7" y="224.9"/>
      <point x="278.7" y="159.29999999999998" type="curve" smooth="yes"/>
      <point x="278.7" y="78.3"/>
      <point x="229.29999999999998" y="21.0"/>
      <point x="171.1" y="21.0" type="curve" smooth="yes"/>
      <point x="106.9" y="21.0"/>
      <point x="65.1" y="74.0"/>
      <point x="65.1" y="170.0" type="curve" smooth="yes"/>
      <point x="65.1" y="338.9"/>
      <point x="184.2" y="527.7"/>
      <point x="357.5" y="527.7" type="curve" smooth="yes"/>
      <point x="469.09999999999997" y="527.7"/>
      <point x="545.6999999999999" y="460.7"/>
      <point x="545.6999999999999" y="327.6" type="curve" smooth="yes"/>
      <point x="545.6999999999999" y="209.79999999999998"/>
      <point x="485.5" y="104.2"/>
      <point x="405.5" y="19.0" type="curve"/>
      <point x="415.7" y="0.0" type="line"/>
      <point x="748.3" y="0.0" type="line"/>
      <point x="864.0" y="542.0" type="line"/>
      <point x="835.3" y="542.0" type="line"/>
      <point x="725.0" y="23.0" type="line"/>
      <point x="440.7" y="23.0" type="line"/>
      <point x="515.2" y="105.2"/>
      <point x="575.1" y="205.1"/>
      <point x="575.1" y="329.2" type="curve" smooth="yes"/>
      <point x="575.1" y="474.2"/>
      <point x="486.5" y="551.7"/>
      <point x="359.90000000000003" y="551.7" type="curve" smooth="yes"/>
      <point x="167.9" y="551.7"/>
      <point x="38.800000000000004" y="356.2"/>
      <point x="38.800000000000004" y="168.7" type="curve" smooth="yes"/>
      <point x="38.800000000000004" y="59.7"/>
      <point x="90.1" y="-4.0"/>
    </contour>
  </outline>
</glyph>
<glyph name="sha-tamil" format="2">
  <advance width="891.8"/>
  <unicode hex="0BB6"/>
  <note>
uni0BB6
</note>
  <anchor x="403.2" y="0.0" name="bottom"/>
  <anchor x="752.4" y="542.0" name="imatra"/>
  <anchor x="403.2" y="0.0" name="nukta"/>
  <anchor x="520.5" y="542.0" name="top"/>
  <anchor x="526.1" y="542.0" name="vedic"/>
  <outline>
    <contour>
      <point x="196.0" y="-9.0" type="curve" smooth="yes"/>
      <point x="271.90000000000003" y="-9.0"/>
      <point x="338.9" y="29.5"/>
      <point x="366.1" y="157.6" type="curve" smooth="yes"/>
      <point x="442.9" y="519.0" type="line"/>
      <point x="583.9" y="519.0" type="line"/>
      <point x="506.99999999999994" y="160.70000000000002" type="line" smooth="yes"/>
      <point x="485.09999999999997" y="59.199999999999996"/>
      <point x="506.70000000000005" y="-9.0"/>
      <point x="589.0" y="-9.0" type="curve" smooth="yes"/>
      <point x="743.3" y="-9.0"/>
      <point x="858.3" y="249.9"/>
      <point x="858.3" y="422.4" type="curve" smooth="yes"/>
      <point x="858.3" y="503.2"/>
      <point x="825.4" y="542.0"/>
      <point x="754.4" y="542.0" type="curve" smooth="yes"/>
      <point x="421.9" y="542.0" type="line"/>
      <point x="339.7" y="159.10000000000002" type="line" smooth="yes"/>
      <point x="315.5" y="46.400000000000006"/>
      <point x="258.2" y="15.0"/>
      <point x="196.0" y="15.0" type="curve" smooth="yes"/>
      <point x="113.2" y="15.0"/>
      <point x="88.80000000000001" y="85.10000000000001"/>
      <point x="109.0" y="177.8" type="curve" smooth="yes"/>
      <point x="186.6" y="542.0" type="line"/>
      <point x="158.6" y="542.0" type="line"/>
      <point x="80.30000000000001" y="177.8" type="line" smooth="yes"/>
      <point x="57.800000000000004" y="76.5"/>
      <point x="92.10000000000001" y="-9.0"/>
    </contour>
    <contour>
      <point x="590.0" y="15.0" type="curve" smooth="yes"/>
      <point x="524.6" y="15.0"/>
      <point x="516.5" y="76.0"/>
      <point x="534.7" y="158.79999999999998" type="curve" smooth="yes"/>
      <point x="611.6" y="519.0" type="line"/>
      <point x="747.4" y="519.0" type="line" smooth="yes"/>
      <point x="804.2" y="519.0"/>
      <point x="832.0" y="490.8"/>
      <point x="832.0" y="422.4" type="curve" smooth="yes"/>
      <point x="832.0" y="269.9"/>
      <point x="723.1" y="15.0"/>
    </contour>
  </outline>
</glyph>
<glyph name="ssa-tamil" format="2">
  <advance width="1094.5"/>
  <unicode hex="0BB7"/>
  <note>
uni0BB7
</note>
  <anchor x="498.9" y="0.0" name="bottom"/>
  <anchor x="462.9" y="0.0" name="nukta"/>
  <anchor x="627.1" y="542.0" name="top"/>
  <anchor x="595.5" y="542.0" name="vedic"/>
  <outline>
    <contour>
      <point x="169.4" y="-4.0" type="curve" smooth="yes"/>
      <point x="246.2" y="-4.0"/>
      <point x="307.3" y="62.7"/>
      <point x="307.3" y="162.0" type="curve" smooth="yes"/>
      <point x="307.3" y="239.5"/>
      <point x="264.5" y="283.0"/>
      <point x="203.89999999999998" y="283.0" type="curve" smooth="yes"/>
      <point x="132.3" y="283.0"/>
      <point x="82.3" y="226.2"/>
      <point x="53.7" y="163.79999999999998" type="curve"/>
      <point x="61.2" y="136.0" type="line"/>
      <point x="96.5" y="206.20000000000002"/>
      <point x="136.6" y="258.0"/>
      <point x="199.0" y="258.0" type="curve" smooth="yes"/>
      <point x="251.50000000000003" y="258.0"/>
      <point x="279.0" y="224.9"/>
      <point x="279.0" y="159.29999999999998" type="curve" smooth="yes"/>
      <point x="279.0" y="78.3"/>
      <point x="229.6" y="21.0"/>
      <point x="171.4" y="21.0" type="curve" smooth="yes"/>
      <point x="107.2" y="21.0"/>
      <point x="65.39999999999999" y="74.0"/>
      <point x="65.39999999999999" y="170.0" type="curve" smooth="yes"/>
      <point x="65.39999999999999" y="338.9"/>
      <point x="181.5" y="527.7"/>
      <point x="354.8" y="527.7" type="curve" smooth="yes"/>
      <point x="466.4" y="527.7"/>
      <point x="546.0" y="458.6"/>
      <point x="546.0" y="325.5" type="curve" smooth="yes"/>
      <point x="546.0" y="207.7"/>
      <point x="485.79999999999995" y="104.2"/>
      <point x="405.79999999999995" y="19.0" type="curve"/>
      <point x="416.0" y="0.0" type="line"/>
      <point x="973.9" y="0.0" type="line"/>
      <point x="1040.6" y="308.8" type="line"/>
      <point x="1009.9" y="300.8" type="line"/>
      <point x="950.9" y="23.0" type="line"/>
      <point x="441.0" y="23.0" type="line"/>
      <point x="515.5" y="105.2"/>
      <point x="575.4" y="203.0"/>
      <point x="575.4" y="327.1" type="curve" smooth="yes"/>
      <point x="575.4" y="472.09999999999997"/>
      <point x="483.79999999999995" y="551.7"/>
      <point x="357.2" y="551.7" type="curve" smooth="yes"/>
      <point x="165.20000000000002" y="551.7"/>
      <point x="39.1" y="356.20000000000005"/>
      <point x="39.1" y="168.7" type="curve" smooth="yes"/>
      <point x="39.1" y="59.7"/>
      <point x="90.4" y="-4.0"/>
    </contour>
    <contour>
      <point x="707.8" y="-235.29999999999998" type="line"/>
      <point x="735.8000000000001" y="-235.29999999999998" type="line"/>
      <point x="876.5" y="427.3" type="line" smooth="yes"/>
      <point x="892.4" y="500.5"/>
      <point x="866.6999999999999" y="551.0"/>
      <point x="804.0" y="551.0" type="curve" smooth="yes"/>
      <point x="726.6" y="551.0"/>
      <point x="668.8000000000001" y="456.40000000000003"/>
      <point x="668.8000000000001" y="368.3" type="curve" smooth="yes"/>
      <point x="668.8000000000001" y="279.4"/>
      <point x="716.8" y="221.0"/>
      <point x="812.0" y="221.0" type="curve" smooth="yes"/>
      <point x="888.8" y="221.0"/>
      <point x="959.0" y="246.5"/>
      <point x="1039.6" y="304.5" type="curve"/>
      <point x="1041.6" y="314.1" type="line"/>
      <point x="1029.6" y="327.9" type="line"/>
      <point x="950.2" y="270.6"/>
      <point x="881.7" y="245.0"/>
      <point x="813.7" y="245.0" type="curve" smooth="yes"/>
      <point x="734.8" y="245.0"/>
      <point x="694.6999999999999" y="291.5"/>
      <point x="694.6999999999999" y="369.59999999999997" type="curve" smooth="yes"/>
      <point x="694.6999999999999" y="433.90000000000003"/>
      <point x="737.0999999999999" y="527.0"/>
      <point x="802.0" y="527.0" type="curve" smooth="yes"/>
      <point x="848.0" y="527.0"/>
      <point x="862.4" y="490.7"/>
      <point x="849.5" y="431.1" type="curve" smooth="yes"/>
    </contour>
  </outline>
</glyph>
<glyph name="sa-tamil" format="2">
  <advance width="1005.0"/>
  <unicode hex="0BB8"/>
  <note>
uni0BB8
</note>
  <anchor x="459.4" y="0.0" name="bottom"/>
  <anchor x="459.4" y="0.0" name="nukta"/>
  <anchor x="566.4" y="542.0" name="top"/>
  <anchor x="559.0" y="542.0" name="vedic"/>
  <outline>
    <contour>
      <point x="400.2" y="0.0" type="line"/>
      <point x="427.90000000000003" y="0.0" type="line"/>
      <point x="519.8" y="431.2" type="line" smooth="yes"/>
      <point x="533.0" y="492.9"/>
      <point x="566.9" y="527.0"/>
      <point x="615.5" y="527.0" type="curve" smooth="yes"/>
      <point x="669.5" y="527.0"/>
      <point x="692.4" y="483.1"/>
      <point x="678.4000000000001" y="417.7" type="curve" smooth="yes"/>
      <point x="620.4000000000001" y="148.29999999999998" type="line" smooth="yes"/>
      <point x="601.5" y="59.50000000000001"/>
      <point x="628.0" y="-4.0"/>
      <point x="712.5" y="-4.0" type="curve" smooth="yes"/>
      <point x="847.5" y="-4.0"/>
      <point x="959.1" y="161.3"/>
      <point x="959.1" y="359.70000000000005" type="curve" smooth="yes"/>
      <point x="959.1" y="437.6"/>
      <point x="943.5999999999999" y="489.8"/>
      <point x="916.1999999999999" y="547.0" type="curve"/>
      <point x="888.1" y="532.8000000000001" type="line"/>
      <point x="911.9" y="485.3"/>
      <point x="930.8" y="425.4"/>
      <point x="930.8" y="357.3" type="curve" smooth="yes"/>
      <point x="930.8" y="184.79999999999998"/>
      <point x="832.6" y="20.0"/>
      <point x="715.6" y="20.0" type="curve" smooth="yes"/>
      <point x="646.6" y="20.0"/>
      <point x="632.9" y="72.69999999999999"/>
      <point x="649.1" y="147.0" type="curve" smooth="yes"/>
      <point x="706.1" y="414.1" type="line" smooth="yes"/>
      <point x="722.7" y="491.8"/>
      <point x="688.9" y="551.0"/>
      <point x="616.8" y="551.0" type="curve" smooth="yes"/>
      <point x="555.4" y="551.0"/>
      <point x="510.8" y="501.6"/>
      <point x="496.9" y="437.2" type="curve" smooth="yes"/>
      <point x="485.79999999999995" y="384.79999999999995" type="line"/>
      <point x="481.70000000000005" y="384.79999999999995" type="line"/>
    </contour>
    <contour>
      <point x="168.29999999999998" y="-4.0" type="curve" smooth="yes"/>
      <point x="245.10000000000002" y="-4.0"/>
      <point x="307.59999999999997" y="62.7"/>
      <point x="307.59999999999997" y="162.0" type="curve" smooth="yes"/>
      <point x="307.59999999999997" y="239.5"/>
      <point x="264.8" y="283.0"/>
      <point x="204.20000000000002" y="283.0" type="curve" smooth="yes"/>
      <point x="132.60000000000002" y="283.0"/>
      <point x="82.60000000000001" y="226.2"/>
      <point x="54.0" y="163.79999999999998" type="curve"/>
      <point x="61.5" y="136.0" type="line"/>
      <point x="96.8" y="206.20000000000002"/>
      <point x="136.9" y="258.0"/>
      <point x="199.29999999999998" y="258.0" type="curve" smooth="yes"/>
      <point x="251.79999999999998" y="258.0"/>
      <point x="279.3" y="224.9"/>
      <point x="279.3" y="159.29999999999998" type="curve" smooth="yes"/>
      <point x="279.3" y="78.3"/>
      <point x="228.5" y="21.0"/>
      <point x="170.3" y="21.0" type="curve" smooth="yes"/>
      <point x="106.1" y="21.0"/>
      <point x="65.7" y="74.0"/>
      <point x="65.7" y="170.0" type="curve" smooth="yes"/>
      <point x="65.7" y="338.0"/>
      <point x="170.29999999999998" y="527.0"/>
      <point x="339.5" y="527.0" type="curve" smooth="yes"/>
      <point x="441.2" y="527.0"/>
      <point x="497.3" y="459.0"/>
      <point x="471.9" y="336.6" type="curve"/>
      <point x="496.5" y="335.3" type="line"/>
      <point x="524.1" y="472.59999999999997"/>
      <point x="460.3" y="551.0"/>
      <point x="341.9" y="551.0" type="curve" smooth="yes"/>
      <point x="154.0" y="551.0"/>
      <point x="39.4" y="355.3"/>
      <point x="39.4" y="168.7" type="curve" smooth="yes"/>
      <point x="39.4" y="59.7"/>
      <point x="89.30000000000001" y="-4.0"/>
    </contour>
  </outline>
</glyph>
<glyph name="ha-tamil" format="2">
  <advance width="1265.3"/>
  <unicode hex="0BB9"/>
  <note>
uni0BB9
</note>
  <anchor x="587.4" y="0.0" name="bottom"/>
  <anchor x="558.1" y="-139.0" name="nukta"/>
  <anchor x="706.5" y="542.0" name="top"/>
  <anchor x="701.1" y="542.0" name="vedic"/>
  <outline>
    <contour>
      <point x="49.400000000000006" y="-191.10000000000002" type="curve"/>
      <point x="57.400000000000006" y="-146.7"/>
      <point x="83.7" y="-119.8"/>
      <point x="130.9" y="-119.8" type="curve" smooth="yes"/>
      <point x="774.6999999999999" y="-119.8" type="line" smooth="yes"/>
      <point x="1057.8" y="-119.8"/>
      <point x="1213.8" y="82.3"/>
      <point x="1213.8" y="352.1" type="curve" smooth="yes"/>
      <point x="1213.8" y="485.7"/>
      <point x="1151.8000000000002" y="551.0"/>
      <point x="1067.7" y="551.0" type="curve" smooth="yes"/>
      <point x="997.5" y="551.0"/>
      <point x="958.9000000000001" y="506.0"/>
      <point x="937.5999999999999" y="468.8" type="curve"/>
      <point x="929.9" y="508.4"/>
      <point x="900.1" y="551.0"/>
      <point x="841.1" y="551.0" type="curve" smooth="yes"/>
      <point x="776.7" y="551.0"/>
      <point x="731.8" y="501.90000000000003"/>
      <point x="714.5" y="419.8" type="curve" smooth="yes"/>
      <point x="630.3000000000001" y="23.0" type="line"/>
      <point x="441.0" y="23.0" type="line"/>
      <point x="515.5" y="105.2"/>
      <point x="575.4" y="203.0"/>
      <point x="575.4" y="327.1" type="curve" smooth="yes"/>
      <point x="575.4" y="472.09999999999997"/>
      <point x="483.79999999999995" y="551.7"/>
      <point x="357.2" y="551.7" type="curve" smooth="yes"/>
      <point x="165.20000000000002" y="551.7"/>
      <point x="39.1" y="356.20000000000005"/>
      <point x="39.1" y="168.7" type="curve" smooth="yes"/>
      <point x="39.1" y="59.7"/>
      <point x="90.4" y="-4.0"/>
      <point x="169.4" y="-4.0" type="curve" smooth="yes"/>
      <point x="246.2" y="-4.0"/>
      <point x="307.3" y="62.7"/>
      <point x="307.3" y="162.0" type="curve" smooth="yes"/>
      <point x="307.3" y="239.5"/>
      <point x="264.5" y="283.0"/>
      <point x="203.89999999999998" y="283.0" type="curve" smooth="yes"/>
      <point x="132.3" y="283.0"/>
      <point x="82.3" y="226.2"/>
      <point x="53.7" y="163.79999999999998" type="curve"/>
      <point x="61.2" y="136.0" type="line"/>
      <point x="96.5" y="206.20000000000002"/>
      <point x="136.6" y="258.0"/>
      <point x="199.0" y="258.0" type="curve" smooth="yes"/>
      <point x="251.50000000000003" y="258.0"/>
      <point x="279.0" y="224.9"/>
      <point x="279.0" y="159.29999999999998" type="curve" smooth="yes"/>
      <point x="279.0" y="78.3"/>
      <point x="229.6" y="21.0"/>
      <point x="171.4" y="21.0" type="curve" smooth="yes"/>
      <point x="107.2" y="21.0"/>
      <point x="65.39999999999999" y="74.0"/>
      <point x="65.39999999999999" y="170.0" type="curve" smooth="yes"/>
      <point x="65.39999999999999" y="338.9"/>
      <point x="181.5" y="527.7"/>
      <point x="354.8" y="527.7" type="curve" smooth="yes"/>
      <point x="466.4" y="527.7"/>
      <point x="546.0" y="458.6"/>
      <point x="546.0" y="325.5" type="curve" smooth="yes"/>
      <point x="546.0" y="207.7"/>
      <point x="485.79999999999995" y="104.2"/>
      <point x="405.79999999999995" y="19.0" type="curve"/>
      <point x="416.0" y="0.0" type="line"/>
      <point x="650.6999999999999" y="0.0" type="line"/>
      <point x="739.8000000000001" y="419.7" type="line" smooth="yes"/>
      <point x="753.8000000000001" y="486.4"/>
      <point x="785.9" y="527.0"/>
      <point x="841.1" y="527.0" type="curve" smooth="yes"/>
      <point x="899.3000000000001" y="527.0"/>
      <point x="924.8" y="474.9"/>
      <point x="910.9" y="408.7" type="curve" smooth="yes"/>
      <point x="824.1" y="0.0" type="line"/>
      <point x="852.1" y="0.0" type="line"/>
      <point x="938.9000000000001" y="407.7" type="line" smooth="yes"/>
      <point x="955.1999999999999" y="482.2"/>
      <point x="1004.7" y="527.0"/>
      <point x="1065.7" y="527.0" type="curve" smooth="yes"/>
      <point x="1127.8000000000002" y="527.0"/>
      <point x="1184.3999999999999" y="483.5"/>
      <point x="1184.3999999999999" y="349.0" type="curve" smooth="yes"/>
      <point x="1184.3999999999999" y="95.69999999999999"/>
      <point x="1037.5" y="-94.5"/>
      <point x="770.5" y="-94.5" type="curve" smooth="yes"/>
      <point x="112.1" y="-94.5" type="line" smooth="yes"/>
      <point x="60.0" y="-94.5"/>
      <point x="17.6" y="-119.8"/>
      <point x="17.6" y="-156.5" type="curve" smooth="yes"/>
      <point x="17.6" y="-178.5"/>
      <point x="31.0" y="-191.10000000000002"/>
    </contour>
  </outline>
</glyph>
<glyph name="aaMatra-tamil" format="2">
  <advance width="563.7"/>
  <unicode hex="0BBE"/>
  <note>
uni0BBE
</note>
  <anchor x="246.3" y="0.0" name="bottom"/>
  <anchor x="246.0" y="0.0" name="nukta"/>
  <anchor x="355.0" y="542.0" name="top"/>
  <anchor x="355.0" y="542.0" name="vedic"/>
  <outline>
    <contour>
      <point x="45.10000000000001" y="0.0" type="line"/>
      <point x="70.8" y="0.0" type="line"/>
      <point x="180.79999999999998" y="519.0" type="line"/>
      <point x="402.4" y="519.0" type="line"/>
      <point x="292.09999999999997" y="0.0" type="line"/>
      <point x="320.4" y="0.0" type="line"/>
      <point x="431.09999999999997" y="519.0" type="line"/>
      <point x="590.6999999999999" y="519.0" type="line"/>
      <point x="595.7" y="542.0" type="line"/>
      <point x="160.79999999999998" y="542.0" type="line"/>
    </contour>
  </outline>
</glyph>
<glyph name="iMatra-tamil" format="2">
  <advance width="186.3"/>
  <unicode hex="0BBF"/>
  <note>
uni0BBF
</note>
  <anchor x="-11.100000000000001" y="786.7" name="top"/>
  <outline>
    <contour>
      <point x="12.500000000000002" y="0.0" type="line"/>
      <point x="39.400000000000006" y="0.0" type="line"/>
      <point x="157.3" y="553.4" type="line" smooth="yes"/>
      <point x="186.3" y="690.3"/>
      <point x="119.5" y="786.7"/>
      <point x="-11.100000000000001" y="786.7" type="curve" smooth="yes"/>
      <point x="-119.4" y="786.7"/>
      <point x="-186.89999999999998" y="710.7"/>
      <point x="-186.89999999999998" y="628.8" type="curve" smooth="yes"/>
      <point x="-186.89999999999998" y="562.5"/>
      <point x="-136.20000000000002" y="519.0"/>
      <point x="-82.3" y="519.0" type="curve" smooth="yes"/>
      <point x="-75.7" y="519.0" type="line"/>
      <point x="-71.0" y="542.0" type="line"/>
      <point x="-75.0" y="542.0" type="line" smooth="yes"/>
      <point x="-122.2" y="542.0"/>
      <point x="-159.89999999999998" y="576.9000000000001"/>
      <point x="-159.89999999999998" y="627.9" type="curve" smooth="yes"/>
      <point x="-159.89999999999998" y="691.8000000000001"/>
      <point x="-107.5" y="756.0"/>
      <point x="-13.000000000000002" y="756.0" type="curve" smooth="yes"/>
      <point x="103.5" y="756.0"/>
      <point x="154.39999999999998" y="668.9"/>
      <point x="128.0" y="544.5" type="curve" smooth="yes"/>
    </contour>
  </outline>
</glyph>
<glyph name="iiMatra-tamil" format="2">
  <unicode hex="0BC0"/>
  <note>
uni0BC0
</note>
  <anchor x="56.0" y="542.0" name="_imatra"/>
  <anchor x="115.30000000000001" y="872.0" name="top"/>
  <outline>
    <contour>
      <point x="41.9" y="521.0" type="curve" smooth="yes"/>
      <point x="52.0" y="521.0" type="line"/>
      <point x="56.0" y="542.0" type="line"/>
      <point x="48.3" y="542.0" type="line" smooth="yes"/>
      <point x="-17.5" y="542.0"/>
      <point x="-46.6" y="587.2"/>
      <point x="-46.6" y="666.6" type="curve" smooth="yes"/>
      <point x="-46.6" y="758.2"/>
      <point x="14.599999999999998" y="850.0"/>
      <point x="113.6" y="850.0" type="curve" smooth="yes"/>
      <point x="174.10000000000002" y="850.0"/>
      <point x="217.79999999999998" y="812.1"/>
      <point x="217.79999999999998" y="749.5999999999999" type="curve" smooth="yes"/>
      <point x="217.79999999999998" y="694.0"/>
      <point x="184.8" y="645.0"/>
      <point x="130.1" y="645.0" type="curve" smooth="yes"/>
      <point x="47.5" y="645.0"/>
      <point x="55.4" y="767.3000000000001"/>
      <point x="113.5" y="855.0" type="curve"/>
      <point x="92.80000000000001" y="859.0" type="line"/>
      <point x="20.7" y="756.4"/>
      <point x="23.5" y="622.0"/>
      <point x="129.5" y="622.0" type="curve" smooth="yes"/>
      <point x="197.39999999999998" y="622.0"/>
      <point x="246.5" y="677.6999999999999"/>
      <point x="246.5" y="749.4" type="curve" smooth="yes"/>
      <point x="246.5" y="825.0999999999999"/>
      <point x="193.10000000000002" y="872.0"/>
      <point x="115.30000000000001" y="872.0" type="curve" smooth="yes"/>
      <point x="0.9999999999999991" y="872.0"/>
      <point x="-75.89999999999999" y="772.0"/>
      <point x="-75.89999999999999" y="665.6" type="curve" smooth="yes"/>
      <point x="-75.89999999999999" y="578.6"/>
      <point x="-34.9" y="521.0"/>
    </contour>
  </outline>
</glyph>
<glyph name="uMatra-tamil" format="2">
  <advance width="414.9"/>
  <unicode hex="0BC1"/>
  <note>
uni0BC1
</note>
  <anchor x="225.2" y="542.0" name="top"/>
  <outline>
    <contour>
      <point x="256.0" y="229.0" type="curve" smooth="yes"/>
      <point x="318.7" y="229.0"/>
      <point x="379.2" y="264.40000000000003"/>
      <point x="399.8" y="361.3" type="curve" smooth="yes"/>
      <point x="438.8" y="542.0" type="line"/>
      <point x="-144.3" y="542.0" type="line"/>
      <point x="-128.4" y="519.0" type="line"/>
      <point x="405.09999999999997" y="519.0" type="line"/>
      <point x="371.5" y="363.8" type="line" smooth="yes"/>
      <point x="354.90000000000003" y="286.7"/>
      <point x="308.5" y="255.00000000000003"/>
      <point x="255.6" y="255.00000000000003" type="curve" smooth="yes"/>
      <point x="188.3" y="255.00000000000003"/>
      <point x="158.4" y="306.90000000000003"/>
      <point x="176.2" y="392.8" type="curve" smooth="yes"/>
      <point x="204.5" y="529.0" type="line"/>
      <point x="179.5" y="529.0" type="line"/>
      <point x="151.2" y="395.2" type="line" smooth="yes"/>
      <point x="129.0" y="291.8"/>
      <point x="173.10000000000002" y="229.0"/>
    </contour>
  </outline>
</glyph>
<glyph name="uuMatra-tamil" format="2">
  <advance width="670.6"/>
  <unicode hex="0BC2"/>
  <note>
uni0BC2
</note>
  <anchor x="433.90000000000003" y="780.0" name="top"/>
  <outline>
    <contour>
      <point x="277.7" y="1.0" type="curve" smooth="yes"/>
      <point x="505.20000000000005" y="1.0"/>
      <point x="664.5" y="221.20000000000002"/>
      <point x="664.5" y="500.4" type="curve" smooth="yes"/>
      <point x="664.5" y="681.2"/>
      <point x="572.3" y="780.0"/>
      <point x="433.9" y="780.0" type="curve" smooth="yes"/>
      <point x="279.09999999999997" y="780.0"/>
      <point x="206.79999999999998" y="664.9"/>
      <point x="182.29999999999998" y="545.8000000000001" type="curve" smooth="yes"/>
      <point x="151.20000000000002" y="395.2" type="line" smooth="yes"/>
      <point x="131.10000000000002" y="297.4"/>
      <point x="166.8" y="229.0"/>
      <point x="256.0" y="229.0" type="curve" smooth="yes"/>
      <point x="318.7" y="229.0"/>
      <point x="379.2" y="264.40000000000003"/>
      <point x="399.79999999999995" y="361.3" type="curve" smooth="yes"/>
      <point x="438.8" y="542.0" type="line"/>
      <point x="-145.5" y="542.0" type="line"/>
      <point x="-129.9" y="519.0" type="line"/>
      <point x="405.1" y="519.0" type="line"/>
      <point x="371.5" y="363.8" type="line" smooth="yes"/>
      <point x="354.9" y="286.7"/>
      <point x="308.5" y="255.00000000000003"/>
      <point x="255.60000000000002" y="255.00000000000003" type="curve" smooth="yes"/>
      <point x="184.79999999999998" y="255.00000000000003"/>
      <point x="159.1" y="310.40000000000003"/>
      <point x="176.20000000000002" y="392.8" type="curve" smooth="yes"/>
      <point x="208.0" y="545.8000000000001" type="line" smooth="yes"/>
      <point x="230.2" y="652.3"/>
      <point x="298.2" y="756.0"/>
      <point x="430.9" y="756.0" type="curve" smooth="yes"/>
      <point x="557.3" y="756.0"/>
      <point x="635.1" y="665.1"/>
      <point x="635.1" y="499.1" type="curve" smooth="yes"/>
      <point x="635.1" y="239.39999999999998"/>
      <point x="483.79999999999995" y="25.0"/>
      <point x="277.29999999999995" y="25.0" type="curve" smooth="yes"/>
      <point x="176.60000000000002" y="25.0"/>
      <point x="113.60000000000001" y="63.5"/>
      <point x="62.3" y="131.29999999999998" type="curve"/>
      <point x="39.0" y="112.60000000000001" type="line"/>
      <point x="94.30000000000001" y="42.8"/>
      <point x="164.2" y="1.0"/>
    </contour>
  </outline>
</glyph>
<glyph name="eMatra-tamil" format="2">
  <advance width="650.8000000000001"/>
  <unicode hex="0BC6"/>
  <note>
uni0BC6
</note>
  <outline>
    <contour>
      <point x="192.8" y="-4.0" type="curve" smooth="yes"/>
      <point x="278.2" y="-4.0"/>
      <point x="344.8" y="64.7"/>
      <point x="344.8" y="163.39999999999998" type="curve" smooth="yes"/>
      <point x="344.8" y="240.9"/>
      <point x="297.2" y="290.0"/>
      <point x="230.3" y="290.0" type="curve" smooth="yes"/>
      <point x="155.9" y="290.0"/>
      <point x="102.69999999999999" y="227.6"/>
      <point x="68.5" y="153.29999999999998" type="curve"/>
      <point x="77.4" y="125.5" type="line"/>
      <point x="118.30000000000001" y="207.6"/>
      <point x="162.3" y="265.0"/>
      <point x="224.7" y="265.0" type="curve" smooth="yes"/>
      <point x="283.2" y="265.0"/>
      <point x="316.5" y="226.3"/>
      <point x="316.5" y="160.7" type="curve" smooth="yes"/>
      <point x="316.5" y="79.7"/>
      <point x="261.6" y="21.0"/>
      <point x="194.8" y="21.0" type="curve" smooth="yes"/>
      <point x="126.9" y="21.0"/>
      <point x="78.5" y="87.7"/>
      <point x="78.5" y="209.0" type="curve" smooth="yes"/>
      <point x="78.5" y="449.4"/>
      <point x="209.3" y="770.0"/>
      <point x="435.2" y="770.0" type="curve" smooth="yes"/>
      <point x="565.4000000000001" y="770.0"/>
      <point x="621.8000000000001" y="678.1999999999999"/>
      <point x="589.8" y="528.4" type="curve" smooth="yes"/>
      <point x="477.0" y="0.0" type="line"/>
      <point x="503.59999999999997" y="0.0" type="line"/>
      <point x="619.1" y="543.0" type="line" smooth="yes"/>
      <point x="651.0" y="693.8000000000001"/>
      <point x="579.9000000000001" y="800.0"/>
      <point x="438.90000000000003" y="800.0" type="curve" smooth="yes"/>
      <point x="192.3" y="800.0"/>
      <point x="52.2" y="472.5"/>
      <point x="52.2" y="206.3" type="curve" smooth="yes"/>
      <point x="52.2" y="72.0"/>
      <point x="110.10000000000001" y="-4.0"/>
    </contour>
  </outline>
</glyph>
<glyph name="eeMatra-tamil" format="2">
  <advance width="479.8"/>
  <unicode hex="0BC7"/>
  <note>
uni0BC7
</note>
  <outline>
    <contour>
      <point x="247.39999999999998" y="-4.0" type="curve" smooth="yes"/>
      <point x="333.1" y="-4.0"/>
      <point x="402.09999999999997" y="62.3"/>
      <point x="402.09999999999997" y="165.1" type="curve" smooth="yes"/>
      <point x="402.09999999999997" y="240.20000000000002"/>
      <point x="357.5" y="283.0"/>
      <point x="299.8" y="283.0" type="curve" smooth="yes"/>
      <point x="212.4" y="283.0"/>
      <point x="157.9" y="195.3"/>
      <point x="126.9" y="79.0" type="curve"/>
      <point x="142.5" y="55.800000000000004" type="line"/>
      <point x="178.0" y="176.7"/>
      <point x="223.4" y="258.0"/>
      <point x="296.7" y="258.0" type="curve" smooth="yes"/>
      <point x="344.2" y="258.0"/>
      <point x="374.1" y="224.4"/>
      <point x="374.1" y="162.4" type="curve" smooth="yes"/>
      <point x="374.1" y="77.6"/>
      <point x="317.9" y="21.0"/>
      <point x="249.70000000000002" y="21.0" type="curve" smooth="yes"/>
      <point x="134.3" y="21.0"/>
      <point x="93.0" y="175.2"/>
      <point x="93.0" y="286.2" type="curve" smooth="yes"/>
      <point x="93.0" y="490.8"/>
      <point x="226.60000000000002" y="761.0"/>
      <point x="389.7" y="761.0" type="curve" smooth="yes"/>
      <point x="448.9" y="761.0"/>
      <point x="487.29999999999995" y="731.4"/>
      <point x="487.29999999999995" y="661.1999999999999" type="curve" smooth="yes"/>
      <point x="487.29999999999995" y="588.9"/>
      <point x="439.9" y="524.6999999999999"/>
      <point x="379.2" y="524.6999999999999" type="curve" smooth="yes"/>
      <point x="301.0" y="524.6999999999999"/>
      <point x="291.1" y="632.5999999999999"/>
      <point x="305.8" y="752.1" type="curve"/>
      <point x="283.1" y="737.0" type="line"/>
      <point x="264.0" y="609.2"/>
      <point x="285.4" y="499.70000000000005"/>
      <point x="377.40000000000003" y="499.70000000000005" type="curve" smooth="yes"/>
      <point x="454.0" y="499.70000000000005"/>
      <point x="514.3" y="571.8"/>
      <point x="514.3" y="662.9" type="curve" smooth="yes"/>
      <point x="514.3" y="743.7"/>
      <point x="466.9" y="786.7"/>
      <point x="393.70000000000005" y="786.7" type="curve" smooth="yes"/>
      <point x="210.0" y="786.7"/>
      <point x="66.39999999999999" y="507.9"/>
      <point x="66.39999999999999" y="284.59999999999997" type="curve" smooth="yes"/>
      <point x="66.39999999999999" y="162.1"/>
      <point x="116.29999999999998" y="-4.0"/>
    </contour>
  </outline>
</glyph>
<glyph name="aiMatra-tamil" format="2">
  <advance width="974.6"/>
  <unicode hex="0BC8"/>
  <note>
uni0BC8
</note>
  <outline>
    <contour>
      <point x="750.1" y="-8.4" type="line"/>
      <point x="863.8" y="74.6"/>
      <point x="923.6999999999999" y="196.1"/>
      <point x="923.6999999999999" y="324.8" type="curve" smooth="yes"/>
      <point x="923.6999999999999" y="457.5"/>
      <point x="848.4" y="551.0"/>
      <point x="714.5" y="551.0" type="curve" smooth="yes"/>
      <point x="532.2" y="551.0"/>
      <point x="377.0" y="337.5"/>
      <point x="377.0" y="134.5" type="curve" smooth="yes"/>
      <point x="377.0" y="45.3"/>
      <point x="415.2" y="-5.0"/>
      <point x="477.5" y="-5.0" type="curve" smooth="yes"/>
      <point x="565.0" y="-5.0"/>
      <point x="644.5" y="93.5"/>
      <point x="644.5" y="242.5" type="curve" smooth="yes"/>
      <point x="644.5" y="436.2"/>
      <point x="540.1" y="551.0"/>
      <point x="372.40000000000003" y="551.0" type="curve" smooth="yes"/>
      <point x="174.0" y="551.0"/>
      <point x="38.1" y="353.2"/>
      <point x="38.1" y="169.0" type="curve" smooth="yes"/>
      <point x="38.1" y="58.5"/>
      <point x="87.6" y="-4.0"/>
      <point x="166.3" y="-4.0" type="curve" smooth="yes"/>
      <point x="243.10000000000002" y="-4.0"/>
      <point x="306.3" y="62.7"/>
      <point x="306.3" y="162.0" type="curve" smooth="yes"/>
      <point x="306.3" y="239.5"/>
      <point x="263.5" y="283.0"/>
      <point x="202.89999999999998" y="283.0" type="curve" smooth="yes"/>
      <point x="131.3" y="283.0"/>
      <point x="81.3" y="226.2"/>
      <point x="52.7" y="163.79999999999998" type="curve"/>
      <point x="60.2" y="136.0" type="line"/>
      <point x="95.5" y="206.20000000000002"/>
      <point x="135.6" y="258.0"/>
      <point x="198.0" y="258.0" type="curve" smooth="yes"/>
      <point x="250.50000000000003" y="258.0"/>
      <point x="278.0" y="224.9"/>
      <point x="278.0" y="159.29999999999998" type="curve" smooth="yes"/>
      <point x="278.0" y="78.3"/>
      <point x="226.50000000000003" y="21.0"/>
      <point x="168.3" y="21.0" type="curve" smooth="yes"/>
      <point x="104.4" y="21.0"/>
      <point x="64.39999999999999" y="72.80000000000001"/>
      <point x="64.39999999999999" y="170.29999999999998" type="curve" smooth="yes"/>
      <point x="64.39999999999999" y="335.9"/>
      <point x="190.0" y="527.0"/>
      <point x="370.0" y="527.0" type="curve" smooth="yes"/>
      <point x="528.3000000000001" y="527.0"/>
      <point x="615.5" y="420.5"/>
      <point x="615.5" y="237.8" type="curve" smooth="yes"/>
      <point x="615.5" y="107.1"/>
      <point x="547.2" y="21.0"/>
      <point x="477.8" y="21.0" type="curve" smooth="yes"/>
      <point x="428.7" y="21.0"/>
      <point x="402.59999999999997" y="64.4"/>
      <point x="402.59999999999997" y="143.20000000000002" type="curve" smooth="yes"/>
      <point x="402.59999999999997" y="322.59999999999997"/>
      <point x="550.5" y="527.0"/>
      <point x="712.8" y="527.0" type="curve" smooth="yes"/>
      <point x="828.8000000000001" y="527.0"/>
      <point x="894.0" y="445.0"/>
      <point x="894.0" y="324.3" type="curve" smooth="yes"/>
      <point x="894.0" y="207.7"/>
      <point x="836.7" y="90.8"/>
      <point x="733.4" y="13.600000000000001" type="curve"/>
    </contour>
  </outline>
</glyph>
<glyph name="halant-tamil" format="2">
  <unicode hex="0BCD"/>
  <note>
uni0BCD
</note>
  <anchor x="56.0" y="542.0" name="_top"/>
  <outline>
    <contour>
      <point x="85.0" y="635.7" type="curve" smooth="yes"/>
      <point x="105.3" y="635.7"/>
      <point x="120.9" y="651.3"/>
      <point x="120.9" y="670.6" type="curve" smooth="yes"/>
      <point x="120.9" y="689.1999999999999"/>
      <point x="105.3" y="706.1999999999999"/>
      <point x="85.0" y="706.1999999999999" type="curve" smooth="yes"/>
      <point x="64.7" y="706.1999999999999"/>
      <point x="49.1" y="689.1999999999999"/>
      <point x="49.1" y="670.6" type="curve" smooth="yes"/>
      <point x="49.1" y="651.3"/>
      <point x="64.7" y="635.7"/>
    </contour>
  </outline>
</glyph>
<glyph name="om-tamil" format="2">
  <advance width="776.6999999999999"/>
  <unicode hex="0BD0"/>
  <note>
uni0BD0
</note>
  <outline>
    <contour>
      <point x="145.10000000000002" y="-306.0" type="curve" smooth="yes"/>
      <point x="308.9" y="-306.0"/>
      <point x="371.5" y="-117.3"/>
      <point x="517.0999999999999" y="-117.3" type="curve" smooth="yes"/>
      <point x="532.4" y="-117.3" type="line"/>
      <point x="537.4" y="-93.3" type="line"/>
      <point x="512.5" y="-93.3" type="line" smooth="yes"/>
      <point x="345.5" y="-93.3"/>
      <point x="346.1" y="84.4"/>
      <point x="463.8" y="222.70000000000002" type="curve"/>
      <point x="467.4" y="220.1" type="line"/>
      <point x="409.8" y="109.7"/>
      <point x="419.1" y="-5.0"/>
      <point x="524.0" y="-5.0" type="curve" smooth="yes"/>
      <point x="636.0999999999999" y="-5.0"/>
      <point x="711.6999999999999" y="116.7"/>
      <point x="711.6999999999999" y="256.4" type="curve" smooth="yes"/>
      <point x="711.6999999999999" y="443.4"/>
      <point x="587.5" y="551.0"/>
      <point x="409.79999999999995" y="551.0" type="curve" smooth="yes"/>
      <point x="196.89999999999998" y="551.0"/>
      <point x="38.8" y="362.90000000000003"/>
      <point x="38.8" y="179.3" type="curve" smooth="yes"/>
      <point x="38.8" y="60.5"/>
      <point x="88.60000000000001" y="-1.5999999999999996"/>
      <point x="167.3" y="-1.5999999999999996" type="curve" smooth="yes"/>
      <point x="243.5" y="-1.5999999999999996"/>
      <point x="308.8" y="64.5"/>
      <point x="308.8" y="164.7" type="curve" smooth="yes"/>
      <point x="308.8" y="242.8"/>
      <point x="266.0" y="285.4"/>
      <point x="204.5" y="285.4" type="curve" smooth="yes"/>
      <point x="132.9" y="285.4"/>
      <point x="80.8" y="228.9"/>
      <point x="52.199999999999996" y="166.5" type="curve"/>
      <point x="59.7" y="138.7" type="line"/>
      <point x="95.0" y="208.9"/>
      <point x="137.2" y="260.4"/>
      <point x="199.6" y="260.4" type="curve" smooth="yes"/>
      <point x="253.00000000000003" y="260.4"/>
      <point x="280.5" y="228.2"/>
      <point x="280.5" y="162.0" type="curve" smooth="yes"/>
      <point x="280.5" y="80.1"/>
      <point x="227.20000000000002" y="23.4"/>
      <point x="169.29999999999998" y="23.4" type="curve" smooth="yes"/>
      <point x="105.4" y="23.4"/>
      <point x="65.10000000000001" y="74.8"/>
      <point x="65.10000000000001" y="180.6" type="curve" smooth="yes"/>
      <point x="65.10000000000001" y="345.90000000000003"/>
      <point x="215.0" y="527.0"/>
      <point x="407.4" y="527.0" type="curve" smooth="yes"/>
      <point x="569.8" y="527.0"/>
      <point x="682.0" y="425.6"/>
      <point x="682.0" y="251.70000000000002" type="curve" smooth="yes"/>
      <point x="682.0" y="135.7"/>
      <point x="621.0" y="21.0"/>
      <point x="526.7" y="21.0" type="curve" smooth="yes"/>
      <point x="434.3" y="21.0"/>
      <point x="441.8" y="145.3"/>
      <point x="506.6" y="247.60000000000002" type="curve"/>
      <point x="473.3" y="267.7" type="line"/>
      <point x="334.5" y="123.39999999999999"/>
      <point x="304.5" y="-59.3"/>
      <point x="450.59999999999997" y="-104.6" type="curve"/>
      <point x="450.29999999999995" y="-108.6" type="line"/>
      <point x="339.4" y="-132.7"/>
      <point x="284.2" y="-278.70000000000005"/>
      <point x="143.4" y="-278.70000000000005" type="curve" smooth="yes"/>
      <point x="62.6" y="-278.70000000000005"/>
      <point x="27.3" y="-220.8"/>
      <point x="50.400000000000006" y="-146.3" type="curve"/>
      <point x="24.5" y="-143.0" type="line"/>
      <point x="-3.3999999999999986" y="-234.3"/>
      <point x="42.3" y="-306.0"/>
    </contour>
    <contour>
      <point x="86.6" y="-216.7" type="line"/>
      <point x="109.19999999999999" y="-216.7" type="line"/>
      <point x="139.2" y="-77.2" type="line"/>
      <point x="116.19999999999999" y="-77.2" type="line"/>
    </contour>
    <contour>
      <point x="94.6" y="-216.7" type="line"/>
      <point x="236.79999999999998" y="-216.7" type="line"/>
      <point x="241.5" y="-195.4" type="line"/>
      <point x="98.9" y="-195.4" type="line"/>
    </contour>
    <contour>
      <point x="154.0" y="-216.7" type="line"/>
      <point x="176.0" y="-216.7" type="line"/>
      <point x="194.39999999999998" y="-126.7" type="line" smooth="yes"/>
      <point x="197.7" y="-109.2"/>
      <point x="207.9" y="-96.9"/>
      <point x="223.9" y="-96.9" type="curve" smooth="yes"/>
      <point x="240.2" y="-96.9"/>
      <point x="246.70000000000002" y="-111.3"/>
      <point x="242.8" y="-130.9" type="curve" smooth="yes"/>
      <point x="224.70000000000002" y="-216.7" type="line"/>
      <point x="247.7" y="-216.7" type="line"/>
      <point x="265.1" y="-134.3" type="line" smooth="yes"/>
      <point x="273.7" y="-95.6"/>
      <point x="254.20000000000002" y="-74.9"/>
      <point x="226.2" y="-74.9" type="curve" smooth="yes"/>
      <point x="198.9" y="-74.9"/>
      <point x="179.0" y="-93.6"/>
      <point x="172.4" y="-125.30000000000001" type="curve" smooth="yes"/>
    </contour>
    <contour>
      <point x="200.89999999999998" y="-57.6" type="curve" smooth="yes"/>
      <point x="211.79999999999998" y="-57.6"/>
      <point x="220.39999999999998" y="-48.7"/>
      <point x="220.39999999999998" y="-38.1" type="curve" smooth="yes"/>
      <point x="220.39999999999998" y="-28.5"/>
      <point x="211.79999999999998" y="-18.9"/>
      <point x="200.89999999999998" y="-18.9" type="curve" smooth="yes"/>
      <point x="190.0" y="-18.9"/>
      <point x="180.39999999999998" y="-28.5"/>
      <point x="180.39999999999998" y="-38.1" type="curve" smooth="yes"/>
      <point x="180.39999999999998" y="-48.7"/>
      <point x="190.0" y="-57.6"/>
    </contour>
  </outline>
</glyph>
<glyph name="zero-tamil" format="2">
  <advance width="471.6"/>
  <unicode hex="0BE6"/>
  <note>
uni0BE6
</note>
  <outline>
    <contour>
      <point x="182.7" y="-4.0" type="curve" smooth="yes"/>
      <point x="336.5" y="-4.0"/>
      <point x="426.5" y="184.5"/>
      <point x="426.5" y="364.6" type="curve" smooth="yes"/>
      <point x="426.5" y="476.3"/>
      <point x="375.40000000000003" y="550.0"/>
      <point x="280.0" y="550.0" type="curve" smooth="yes"/>
      <point x="125.5" y="550.0"/>
      <point x="44.0" y="351.9"/>
      <point x="44.0" y="179.9" type="curve" smooth="yes"/>
      <point x="44.0" y="73.89999999999999"/>
      <point x="86.4" y="-4.0"/>
    </contour>
    <contour>
      <point x="182.7" y="21.0" type="curve" smooth="yes"/>
      <point x="104.0" y="21.0"/>
      <point x="70.3" y="89.6"/>
      <point x="70.3" y="180.70000000000002" type="curve" smooth="yes"/>
      <point x="70.3" y="333.40000000000003"/>
      <point x="142.5" y="526.0"/>
      <point x="276.3" y="526.0" type="curve" smooth="yes"/>
      <point x="359.2" y="526.0"/>
      <point x="399.2" y="461.3"/>
      <point x="399.2" y="363.09999999999997" type="curve" smooth="yes"/>
      <point x="399.2" y="206.4"/>
      <point x="320.59999999999997" y="21.0"/>
    </contour>
  </outline>
</glyph>
<glyph name="one-tamil" format="2">
  <advance width="634.3"/>
  <unicode hex="0BE7"/>
  <note>
uni0BE7
</note>
  <outline>
    <contour>
      <point x="164.9" y="-4.0" type="curve" smooth="yes"/>
      <point x="245.29999999999998" y="-4.0"/>
      <point x="303.7" y="42.0"/>
      <point x="328.9" y="161.7" type="curve" smooth="yes"/>
      <point x="352.7" y="275.0" type="line"/>
      <point x="405.3" y="275.0" type="line" smooth="yes"/>
      <point x="481.4" y="275.0"/>
      <point x="527.6999999999999" y="243.3"/>
      <point x="527.6999999999999" y="166.0" type="curve" smooth="yes"/>
      <point x="527.6999999999999" y="81.8"/>
      <point x="469.59999999999997" y="21.0"/>
      <point x="394.70000000000005" y="21.0" type="curve" smooth="yes"/>
      <point x="343.6" y="21.0"/>
      <point x="311.4" y="47.8"/>
      <point x="296.9" y="84.3" type="curve"/>
      <point x="275.2" y="67.1" type="line"/>
      <point x="293.1" y="29.5"/>
      <point x="331.59999999999997" y="-4.0"/>
      <point x="395.7" y="-4.0" type="curve" smooth="yes"/>
      <point x="486.6" y="-4.0"/>
      <point x="556.4" y="65.8"/>
      <point x="556.4" y="168.4" type="curve" smooth="yes"/>
      <point x="556.4" y="258.0"/>
      <point x="500.6" y="299.0"/>
      <point x="409.3" y="299.0" type="curve" smooth="yes"/>
      <point x="357.70000000000005" y="299.0" type="line"/>
      <point x="404.70000000000005" y="519.0" type="line"/>
      <point x="539.4" y="519.0" type="line"/>
      <point x="544.4" y="542.0" type="line"/>
      <point x="202.79999999999998" y="542.0" type="line"/>
      <point x="148.5" y="284.0" type="line"/>
      <point x="173.5" y="284.0" type="line"/>
      <point x="223.5" y="519.0" type="line"/>
      <point x="376.7" y="519.0" type="line"/>
      <point x="330.40000000000003" y="299.0" type="line"/>
      <point x="199.60000000000002" y="299.0" type="line" smooth="yes"/>
      <point x="93.5" y="299.0"/>
      <point x="30.299999999999997" y="222.2"/>
      <point x="30.299999999999997" y="135.0" type="curve" smooth="yes"/>
      <point x="30.299999999999997" y="59.699999999999996"/>
      <point x="81.5" y="-4.0"/>
    </contour>
    <contour>
      <point x="168.0" y="21.0" type="curve" smooth="yes"/>
      <point x="96.60000000000001" y="21.0"/>
      <point x="61.5" y="74.10000000000001"/>
      <point x="61.5" y="139.0" type="curve" smooth="yes"/>
      <point x="61.5" y="211.5"/>
      <point x="107.00000000000001" y="275.0"/>
      <point x="198.3" y="275.0" type="curve" smooth="yes"/>
      <point x="324.7" y="275.0" type="line"/>
      <point x="301.6" y="161.5" type="line" smooth="yes"/>
      <point x="282.0" y="63.5"/>
      <point x="232.39999999999998" y="21.0"/>
    </contour>
  </outline>
</glyph>
<glyph name="two-tamil" format="2">
  <advance width="730.5"/>
  <unicode hex="0BE8"/>
  <note>
uni0BE8
</note>
  <outline>
    <contour>
      <point x="87.89999999999999" y="0.0" type="curve" smooth="yes"/>
      <point x="648.9" y="0.0" type="line"/>
      <point x="653.9" y="23.0" type="line"/>
      <point x="90.6" y="23.0" type="line" smooth="yes"/>
      <point x="52.400000000000006" y="23.0"/>
      <point x="31.400000000000002" y="48.6"/>
      <point x="31.400000000000002" y="81.4" type="curve" smooth="yes"/>
      <point x="31.400000000000002" y="121.3"/>
      <point x="61.300000000000004" y="146.0"/>
      <point x="105.60000000000001" y="146.0" type="curve" smooth="yes"/>
      <point x="295.3" y="146.0" type="line" smooth="yes"/>
      <point x="435.8" y="146.0"/>
      <point x="532.0999999999999" y="235.8"/>
      <point x="532.0999999999999" y="374.59999999999997" type="curve" smooth="yes"/>
      <point x="532.0999999999999" y="484.90000000000003"/>
      <point x="455.4" y="551.0"/>
      <point x="345.8" y="551.0" type="curve" smooth="yes"/>
      <point x="213.9" y="551.0"/>
      <point x="122.1" y="448.7"/>
      <point x="122.1" y="324.40000000000003" type="curve" smooth="yes"/>
      <point x="122.1" y="218.39999999999998"/>
      <point x="189.5" y="150.3"/>
      <point x="287.29999999999995" y="150.3" type="curve"/>
      <point x="292.29999999999995" y="170.0" type="line"/>
      <point x="206.0" y="170.0"/>
      <point x="147.70000000000002" y="230.70000000000002"/>
      <point x="147.70000000000002" y="326.0" type="curve" smooth="yes"/>
      <point x="147.70000000000002" y="433.7"/>
      <point x="226.9" y="527.0"/>
      <point x="343.79999999999995" y="527.0" type="curve" smooth="yes"/>
      <point x="441.0" y="527.0"/>
      <point x="502.8" y="468.9"/>
      <point x="502.8" y="371.59999999999997" type="curve" smooth="yes"/>
      <point x="502.8" y="249.10000000000002"/>
      <point x="418.7" y="170.0"/>
      <point x="296.0" y="170.0" type="curve" smooth="yes"/>
      <point x="108.5" y="170.0" type="line" smooth="yes"/>
      <point x="47.5" y="170.0"/>
      <point x="5.8" y="135.70000000000002"/>
      <point x="5.8" y="79.10000000000001" type="curve" smooth="yes"/>
      <point x="5.8" y="36.6"/>
      <point x="33.7" y="0.0"/>
    </contour>
  </outline>
</glyph>
<glyph name="five-tamil" format="2">
  <advance width="838.5"/>
  <unicode hex="0BEB"/>
  <note>
uni0BEB
</note>
  <outline>
    <contour>
      <point x="301.90000000000003" y="-278.0" type="curve" smooth="yes"/>
      <point x="535.0" y="-278.0"/>
      <point x="693.3" y="-64.9"/>
      <point x="693.3" y="178.0" type="curve" smooth="yes"/>
      <point x="693.3" y="280.20000000000005"/>
      <point x="647.8000000000001" y="328.0"/>
      <point x="583.5" y="328.0" type="curve" smooth="yes"/>
      <point x="514.3" y="328.0"/>
      <point x="468.7" y="270.7"/>
      <point x="450.2" y="183.0" type="curve" smooth="yes"/>
      <point x="445.8" y="162.0" type="line"/>
      <point x="459.6" y="162.0" type="line"/>
      <point x="463.3" y="180.20000000000002" type="line" smooth="yes"/>
      <point x="475.7" y="241.20000000000002"/>
      <point x="515.1999999999999" y="304.0"/>
      <point x="578.6999999999999" y="304.0" type="curve" smooth="yes"/>
      <point x="630.8000000000001" y="304.0"/>
      <point x="663.3" y="265.8"/>
      <point x="663.3" y="179.10000000000002" type="curve" smooth="yes"/>
      <point x="663.3" y="-49.7"/>
      <point x="512.7" y="-252.0"/>
      <point x="302.59999999999997" y="-252.0" type="curve" smooth="yes"/>
      <point x="133.3" y="-252.0"/>
      <point x="47.10000000000001" y="-105.1"/>
      <point x="47.10000000000001" y="120.30000000000001" type="curve" smooth="yes"/>
      <point x="47.10000000000001" y="407.3"/>
      <point x="202.20000000000002" y="761.0"/>
      <point x="484.5" y="761.0" type="curve" smooth="yes"/>
      <point x="675.6" y="761.0"/>
      <point x="784.2" y="616.5"/>
      <point x="774.8" y="402.8" type="curve"/>
      <point x="801.4" y="402.8" type="line"/>
      <point x="819.6" y="631.1"/>
      <point x="694.0999999999999" y="792.0"/>
      <point x="489.9" y="792.0" type="curve" smooth="yes"/>
      <point x="185.0" y="792.0"/>
      <point x="19.1" y="427.5"/>
      <point x="19.1" y="118.19999999999999" type="curve" smooth="yes"/>
      <point x="19.1" y="-116.4"/>
      <point x="111.7" y="-278.0"/>
    </contour>
    <contour>
      <point x="188.70000000000002" y="0.0" type="line"/>
      <point x="213.7" y="0.0" type="line"/>
      <point x="323.7" y="519.0" type="line"/>
      <point x="507.5" y="519.0" type="line"/>
      <point x="397.5" y="0.0" type="line"/>
      <point x="425.2" y="0.0" type="line"/>
      <point x="535.9" y="519.0" type="line"/>
      <point x="664.3" y="519.0" type="line"/>
      <point x="669.3000000000001" y="542.0" type="line"/>
      <point x="303.7" y="542.0" type="line"/>
    </contour>
  </outline>
</glyph>
<glyph name="six-tamil" format="2">
  <advance width="810.0"/>
  <unicode hex="0BEC"/>
  <note>
uni0BEC
</note>
  <outline>
    <contour>
      <point x="164.9" y="-4.0" type="curve" smooth="yes"/>
      <point x="245.29999999999998" y="-4.0"/>
      <point x="303.7" y="42.0"/>
      <point x="328.9" y="161.7" type="curve" smooth="yes"/>
      <point x="352.7" y="275.0" type="line"/>
      <point x="447.40000000000003" y="275.0" type="line" smooth="yes"/>
      <point x="475.2" y="275.0"/>
      <point x="492.09999999999997" y="258.5"/>
      <point x="485.8" y="229.70000000000002" type="curve" smooth="yes"/>
      <point x="436.7" y="0.0" type="line"/>
      <point x="462.5" y="0.0" type="line"/>
      <point x="510.2" y="226.2" type="line" smooth="yes"/>
      <point x="516.5" y="255.00000000000003"/>
      <point x="534.1" y="275.0"/>
      <point x="561.9" y="275.0" type="curve" smooth="yes"/>
      <point x="763.0" y="275.0" type="line"/>
      <point x="768.0" y="299.0" type="line"/>
      <point x="565.3" y="299.0" type="line" smooth="yes"/>
      <point x="536.8" y="299.0"/>
      <point x="517.5" y="288.40000000000003"/>
      <point x="503.8" y="263.7" type="curve"/>
      <point x="497.9" y="287.7"/>
      <point x="478.9" y="299.0"/>
      <point x="451.40000000000003" y="299.0" type="curve" smooth="yes"/>
      <point x="357.70000000000005" y="299.0" type="line"/>
      <point x="404.70000000000005" y="519.0" type="line"/>
      <point x="538.8" y="519.0" type="line"/>
      <point x="543.8" y="542.0" type="line"/>
      <point x="202.79999999999998" y="542.0" type="line"/>
      <point x="148.5" y="284.0" type="line"/>
      <point x="173.5" y="284.0" type="line"/>
      <point x="223.5" y="519.0" type="line"/>
      <point x="376.7" y="519.0" type="line"/>
      <point x="330.40000000000003" y="299.0" type="line"/>
      <point x="199.60000000000002" y="299.0" type="line" smooth="yes"/>
      <point x="93.5" y="299.0"/>
      <point x="30.299999999999997" y="222.2"/>
      <point x="30.299999999999997" y="135.0" type="curve" smooth="yes"/>
      <point x="30.299999999999997" y="59.699999999999996"/>
      <point x="81.5" y="-4.0"/>
    </contour>
    <contour>
      <point x="168.0" y="21.0" type="curve" smooth="yes"/>
      <point x="96.60000000000001" y="21.0"/>
      <point x="61.5" y="74.10000000000001"/>
      <point x="61.5" y="139.0" type="curve" smooth="yes"/>
      <point x="61.5" y="211.5"/>
      <point x="107.00000000000001" y="275.0"/>
      <point x="198.3" y="275.0" type="curve" smooth="yes"/>
      <point x="324.7" y="275.0" type="line"/>
      <point x="301.6" y="161.5" type="line" smooth="yes"/>
      <point x="282.0" y="63.5"/>
      <point x="232.39999999999998" y="21.0"/>
    </contour>
    <contour>
      <point x="605.5" y="0.0" type="line"/>
      <point x="630.5" y="0.0" type="line"/>
      <point x="692.1999999999999" y="288.0" type="line"/>
      <point x="666.8" y="288.0" type="line"/>
    </contour>
  </outline>
</glyph>
<glyph name="eight-tamil" format="2">
  <advance width="1019.3"/>
  <unicode hex="0BEE"/>
  <note>
uni0BEE
</note>
  <outline>
    <contour>
      <point x="799.4000000000001" y="-144.7" type="line"/>
      <point x="827.7" y="-144.7" type="line"/>
      <point x="974.1999999999999" y="542.0" type="line"/>
      <point x="945.1999999999999" y="542.0" type="line"/>
      <point x="865.2" y="163.1" type="line"/>
      <point x="60.599999999999994" y="163.1" type="line" smooth="yes"/>
      <point x="19.200000000000003" y="163.1"/>
      <point x="-0.7999999999999998" y="135.6"/>
      <point x="-0.7999999999999998" y="97.39999999999999" type="curve" smooth="yes"/>
      <point x="-0.7999999999999998" y="23.0"/>
      <point x="107.5" y="-80.4"/>
      <point x="291.6" y="-80.4" type="curve" smooth="yes"/>
      <point x="550.0" y="-80.4"/>
      <point x="736.3000000000001" y="81.4"/>
      <point x="736.3000000000001" y="334.40000000000003" type="curve" smooth="yes"/>
      <point x="736.3000000000001" y="461.4"/>
      <point x="668.0" y="551.0"/>
      <point x="548.9" y="551.0" type="curve" smooth="yes"/>
      <point x="410.70000000000005" y="551.0"/>
      <point x="319.79999999999995" y="418.2"/>
      <point x="319.79999999999995" y="289.3" type="curve" smooth="yes"/>
      <point x="319.79999999999995" y="231.1"/>
      <point x="333.8" y="175.6"/>
      <point x="348.40000000000003" y="148.0" type="curve"/>
      <point x="376.20000000000005" y="148.0" type="line"/>
      <point x="358.09999999999997" y="177.9"/>
      <point x="344.1" y="233.2"/>
      <point x="344.1" y="288.1" type="curve" smooth="yes"/>
      <point x="344.1" y="398.8"/>
      <point x="425.0" y="527.0"/>
      <point x="545.5" y="527.0" type="curve" smooth="yes"/>
      <point x="652.0" y="527.0"/>
      <point x="706.6999999999999" y="444.3"/>
      <point x="706.6999999999999" y="332.20000000000005" type="curve" smooth="yes"/>
      <point x="706.6999999999999" y="101.7"/>
      <point x="530.9" y="-54.4"/>
      <point x="293.3" y="-54.4" type="curve" smooth="yes"/>
      <point x="133.6" y="-54.4"/>
      <point x="26.9" y="31.3"/>
      <point x="26.9" y="100.8" type="curve" smooth="yes"/>
      <point x="26.9" y="124.3"/>
      <point x="40.6" y="140.1"/>
      <point x="61.7" y="140.1" type="curve" smooth="yes"/>
      <point x="860.2" y="140.1" type="line"/>
    </contour>
  </outline>
</glyph>
<glyph name="nine-tamil" format="2">
  <advance width="963.1"/>
  <unicode hex="0BEF"/>
  <note>
uni0BEF
</note>
  <outline>
    <contour>
      <point x="771.5" y="-7.3999999999999995" type="line"/>
      <point x="846.1" y="59.0"/>
      <point x="896.1" y="131.5"/>
      <point x="896.1" y="235.5" type="curve" smooth="yes"/>
      <point x="896.1" y="347.09999999999997"/>
      <point x="818.0" y="414.0"/>
      <point x="705.9000000000001" y="414.0" type="curve" smooth="yes"/>
      <point x="549.1999999999999" y="414.0"/>
      <point x="441.5" y="269.6"/>
      <point x="441.5" y="126.5" type="curve" smooth="yes"/>
      <point x="441.5" y="44.1"/>
      <point x="481.40000000000003" y="-4.0"/>
      <point x="545.1" y="-4.0" type="curve" smooth="yes"/>
      <point x="624.1" y="-4.0"/>
      <point x="686.3" y="65.8"/>
      <point x="686.3" y="156.39999999999998" type="curve" smooth="yes"/>
      <point x="686.3" y="257.7"/>
      <point x="616.4" y="299.0"/>
      <point x="523.4000000000001" y="299.0" type="curve" smooth="yes"/>
      <point x="357.70000000000005" y="299.0" type="line"/>
      <point x="404.70000000000005" y="519.0" type="line"/>
      <point x="538.8" y="519.0" type="line"/>
      <point x="543.8" y="542.0" type="line"/>
      <point x="202.79999999999998" y="542.0" type="line"/>
      <point x="148.5" y="284.0" type="line"/>
      <point x="173.5" y="284.0" type="line"/>
      <point x="223.5" y="519.0" type="line"/>
      <point x="376.7" y="519.0" type="line"/>
      <point x="330.40000000000003" y="299.0" type="line"/>
      <point x="199.60000000000002" y="299.0" type="line" smooth="yes"/>
      <point x="93.5" y="299.0"/>
      <point x="30.299999999999997" y="222.2"/>
      <point x="30.299999999999997" y="135.0" type="curve" smooth="yes"/>
      <point x="30.299999999999997" y="59.699999999999996"/>
      <point x="81.5" y="-4.0"/>
      <point x="164.9" y="-4.0" type="curve" smooth="yes"/>
      <point x="245.29999999999998" y="-4.0"/>
      <point x="303.7" y="42.0"/>
      <point x="328.9" y="161.7" type="curve" smooth="yes"/>
      <point x="352.7" y="275.0" type="line"/>
      <point x="518.4" y="275.0" type="line" smooth="yes"/>
      <point x="594.1" y="275.0"/>
      <point x="656.9" y="245.79999999999998"/>
      <point x="656.9" y="153.4" type="curve" smooth="yes"/>
      <point x="656.9" y="85.30000000000001"/>
      <point x="611.6" y="21.0"/>
      <point x="546.1" y="21.0" type="curve" smooth="yes"/>
      <point x="497.1" y="21.0"/>
      <point x="468.90000000000003" y="61.099999999999994"/>
      <point x="468.90000000000003" y="130.1" type="curve" smooth="yes"/>
      <point x="468.90000000000003" y="255.9"/>
      <point x="562.8" y="390.0"/>
      <point x="703.1999999999999" y="390.0" type="curve" smooth="yes"/>
      <point x="799.0999999999999" y="390.0"/>
      <point x="867.1" y="331.0"/>
      <point x="867.1" y="232.8" type="curve" smooth="yes"/>
      <point x="867.1" y="143.3"/>
      <point x="823.8" y="73.39999999999999"/>
      <point x="755.8" y="11.399999999999999" type="curve"/>
    </contour>
    <contour>
      <point x="168.0" y="21.0" type="curve" smooth="yes"/>
      <point x="96.60000000000001" y="21.0"/>
      <point x="61.5" y="74.10000000000001"/>
      <point x="61.5" y="139.0" type="curve" smooth="yes"/>
      <point x="61.5" y="211.5"/>
      <point x="107.00000000000001" y="275.0"/>
      <point x="198.3" y="275.0" type="curve" smooth="yes"/>
      <point x="324.7" y="275.0" type="line"/>
      <point x="301.6" y="161.5" type="line" smooth="yes"/>
      <point x="282.0" y="63.5"/>
      <point x="232.39999999999998" y="21.0"/>
    </contour>
  </outline>
</glyph>
<glyph name="ten-tamil" format="2">
  <advance width="638.5"/>
  <unicode hex="0BF0"/>
  <note>
uni0BF0
</note>
  <outline>
    <contour>
      <point x="335.5" y="-5.0" type="curve" smooth="yes"/>
      <point x="491.40000000000003" y="-5.0"/>
      <point x="597.6999999999999" y="237.4"/>
      <point x="597.6999999999999" y="441.7" type="curve" smooth="yes"/>
      <point x="597.6999999999999" y="630.5"/>
      <point x="511.1" y="750.4000000000001"/>
      <point x="361.90000000000003" y="778.7" type="curve"/>
      <point x="353.0" y="750.0" type="line"/>
      <point x="493.5" y="722.0"/>
      <point x="570.4" y="610.7"/>
      <point x="570.4" y="438.7" type="curve" smooth="yes"/>
      <point x="570.4" y="266.2"/>
      <point x="473.5" y="21.0"/>
      <point x="336.79999999999995" y="21.0" type="curve" smooth="yes"/>
      <point x="280.20000000000005" y="21.0"/>
      <point x="259.5" y="67.5"/>
      <point x="273.7" y="132.9" type="curve" smooth="yes"/>
      <point x="361.2" y="542.0" type="line"/>
      <point x="332.6" y="542.0" type="line"/>
      <point x="248.1" y="142.6" type="line" smooth="yes"/>
      <point x="231.3" y="62.2"/>
      <point x="256.70000000000005" y="-5.0"/>
    </contour>
    <contour>
      <point x="131.20000000000002" y="-5.0" type="curve" smooth="yes"/>
      <point x="186.39999999999998" y="-5.0"/>
      <point x="244.7" y="37.8"/>
      <point x="262.2" y="121.1" type="curve" smooth="yes"/>
      <point x="270.2" y="159.1" type="line"/>
      <point x="251.8" y="159.1" type="line"/>
      <point x="245.79999999999998" y="129.8" type="line" smooth="yes"/>
      <point x="233.79999999999998" y="69.5"/>
      <point x="188.79999999999998" y="21.0"/>
      <point x="135.5" y="21.0" type="curve" smooth="yes"/>
      <point x="80.89999999999999" y="21.0"/>
      <point x="63.3" y="70.1"/>
      <point x="76.9" y="134.4" type="curve" smooth="yes"/>
      <point x="163.3" y="542.0" type="line"/>
      <point x="135.3" y="542.0" type="line"/>
      <point x="49.6" y="138.7" type="line" smooth="yes"/>
      <point x="31.700000000000003" y="54.5"/>
      <point x="63.8" y="-5.0"/>
    </contour>
  </outline>
</glyph>
<glyph name="onehundred-tamil" format="2">
  <advance width="735.8"/>
  <unicode hex="0BF1"/>
  <note>
uni0BF1
</note>
  <outline>
    <contour>
      <point x="216.8" y="0.0" type="line"/>
      <point x="243.2" y="0.0" type="line"/>
      <point x="353.2" y="519.0" type="line"/>
      <point x="574.6" y="519.0" type="line"/>
      <point x="464.6" y="0.0" type="line"/>
      <point x="491.9" y="0.0" type="line"/>
      <point x="602.2" y="519.0" type="line"/>
      <point x="758.6999999999999" y="519.0" type="line"/>
      <point x="763.0" y="542.0" type="line"/>
      <point x="331.8" y="542.0" type="line"/>
    </contour>
    <contour>
      <point x="24.800000000000004" y="0.0" type="line"/>
      <point x="49.8" y="0.0" type="line"/>
      <point x="141.70000000000002" y="429.4" type="line" smooth="yes"/>
      <point x="153.20000000000002" y="482.7"/>
      <point x="182.1" y="521.0"/>
      <point x="234.1" y="521.0" type="curve" smooth="yes"/>
      <point x="287.59999999999997" y="521.0"/>
      <point x="318.5" y="479.8"/>
      <point x="303.59999999999997" y="409.1" type="curve"/>
      <point x="322.0" y="409.1" type="line"/>
      <point x="341.2" y="501.5"/>
      <point x="294.2" y="547.0"/>
      <point x="234.6" y="547.0" type="curve" smooth="yes"/>
      <point x="171.2" y="547.0"/>
      <point x="131.60000000000002" y="498.8"/>
      <point x="116.00000000000001" y="427.09999999999997" type="curve" smooth="yes"/>
    </contour>
  </outline>
</glyph>
